0
SECTION
2
ENTITIES
0
3DFACE
8
m_rifle
10
-0.597006
20
18.4212
30
-22.536
11
-0.597007
21
19.5279
31
-7.87195
12
-0.597007
22
18.4212
32
33.3743
13
-0.597007
23
18.4212
33
33.3743
0
3DFACE
8
m_rifle
10
-0.597007
20
19.5279
30
-7.87195
11
-0.597007
21
19.5279
31
32.4484
12
-0.597007
22
18.4212
32
33.3743
13
-0.597007
23
18.4212
33
33.3743
0
3DFACE
8
m_rifle
10
-0.597006
20
18.4212
30
-22.536
11
-0.597006
21
20.2329
31
-20.9831
12
-0.597007
22
19.5279
32
-7.87195
13
-0.597007
23
19.5279
33
-7.87195
0
3DFACE
8
m_rifle
10
-0.597006
20
20.2329
30
-20.9831
11
-0.597007
21
20.2329
31
-9.28176
12
-0.597007
22
19.5279
32
-7.87195
13
-0.597007
23
19.5279
33
-7.87195
0
3DFACE
8
m_rifle
10
-0.597006
20
18.4212
30
-22.536
11
-0.597007
21
18.4212
31
33.3743
12
0.597023
22
18.4212
32
33.3743
13
0.597023
23
18.4212
33
33.3743
0
3DFACE
8
m_rifle
10
0.597023
20
18.4212
30
33.3743
11
0.597023
21
18.4212
31
-22.536
12
-0.597006
22
18.4212
32
-22.536
13
-0.597006
23
18.4212
33
-22.536
0
3DFACE
8
m_rifle
10
0.597023
20
19.5279
30
32.4484
11
0.597023
21
19.5279
31
-7.87195
12
0.597023
22
18.4212
32
33.3743
13
0.597023
23
18.4212
33
33.3743
0
3DFACE
8
m_rifle
10
0.597023
20
19.5279
30
-7.87195
11
0.597023
21
18.4212
31
-22.536
12
0.597023
22
18.4212
32
33.3743
13
0.597023
23
18.4212
33
33.3743
0
3DFACE
8
m_rifle
10
0.597023
20
19.5279
30
-7.87195
11
0.597023
21
20.2329
31
-20.9831
12
0.597023
22
18.4212
32
-22.536
13
0.597023
23
18.4212
33
-22.536
0
3DFACE
8
m_rifle
10
0.597023
20
19.5279
30
-7.87195
11
0.597023
21
20.2329
31
-9.28176
12
0.597023
22
20.2329
32
-20.9831
13
0.597023
23
20.2329
33
-20.9831
0
3DFACE
8
m_rifle
10
-0.597007
20
20.2329
30
-9.28176
11
-0.597006
21
20.2329
31
-20.9831
12
-1.09701
22
20.2329
32
-20.9831
13
-1.09701
23
20.2329
33
-20.9831
0
3DFACE
8
m_rifle
10
-1.09701
20
20.2329
30
-20.9831
11
-1.09701
21
20.2329
31
-9.28176
12
-0.597007
22
20.2329
32
-9.28176
13
-0.597007
23
20.2329
33
-9.28176
0
3DFACE
8
m_rifle
10
-0.597007
20
19.5279
30
-7.87195
11
-0.597007
21
20.2329
31
-9.28176
12
-1.09701
22
20.2329
32
-9.28176
13
-1.09701
23
20.2329
33
-9.28176
0
3DFACE
8
m_rifle
10
-1.09701
20
20.2329
30
-9.28176
11
-1.12997
21
19.528
31
-7.87195
12
-0.597007
22
19.5279
32
-7.87195
13
-0.597007
23
19.5279
33
-7.87195
0
3DFACE
8
m_rifle
10
-0.597007
20
19.5279
30
32.4484
11
-0.597007
21
19.5279
31
-7.87195
12
-1.12997
22
19.528
32
-7.87195
13
-1.12997
23
19.528
33
-7.87195
0
3DFACE
8
m_rifle
10
-1.12997
20
19.528
30
-7.87195
11
-1.12997
21
19.528
31
32.4484
12
-0.597007
22
19.5279
32
32.4484
13
-0.597007
23
19.5279
33
32.4484
0
3DFACE
8
m_rifle
10
-0.597006
20
18.4212
30
-22.536
11
-1.09701
21
20.2329
31
-20.9831
12
-0.597006
22
20.2329
32
-20.9831
13
-0.597006
23
20.2329
33
-20.9831
0
3DFACE
8
m_rifle
10
-0.597006
20
18.4212
30
-22.536
11
-1.46616
21
12.338
31
-27.7502
12
-1.09701
22
20.2329
32
-20.9831
13
-1.09701
23
20.2329
33
-20.9831
0
3DFACE
8
m_rifle
10
-0.597006
20
18.4212
30
-22.536
11
1.4662
21
12.3379
31
-27.7502
12
-1.46616
22
12.338
32
-27.7502
13
-1.46616
23
12.338
33
-27.7502
0
3DFACE
8
m_rifle
10
-0.597006
20
18.4212
30
-22.536
11
0.597023
21
18.4212
31
-22.536
12
1.4662
22
12.3379
32
-27.7502
13
1.4662
23
12.3379
33
-27.7502
0
3DFACE
8
m_rifle
10
0.597023
20
18.4212
30
-22.536
11
1.09705
21
20.2329
31
-20.9831
12
1.4662
22
12.3379
32
-27.7502
13
1.4662
23
12.3379
33
-27.7502
0
3DFACE
8
m_rifle
10
0.597023
20
18.4212
30
-22.536
11
0.597023
21
20.2329
31
-20.9831
12
1.09705
22
20.2329
32
-20.9831
13
1.09705
23
20.2329
33
-20.9831
0
3DFACE
8
m_rifle
10
0.597023
20
18.4212
30
33.3743
11
1.13001
21
19.5279
31
32.4484
12
0.597023
22
19.5279
32
32.4484
13
0.597023
23
19.5279
33
32.4484
0
3DFACE
8
m_rifle
10
0.597023
20
18.4212
30
33.3743
11
3.47648
21
4.86599
31
44.7137
12
1.13001
22
19.5279
32
32.4484
13
1.13001
23
19.5279
33
32.4484
0
3DFACE
8
m_rifle
10
0.597023
20
18.4212
30
33.3743
11
-3.47644
21
4.86599
31
44.7137
12
3.47648
22
4.86599
32
44.7137
13
3.47648
23
4.86599
33
44.7137
0
3DFACE
8
m_rifle
10
0.597023
20
18.4212
30
33.3743
11
-0.597007
21
18.4212
31
33.3743
12
-3.47644
22
4.86599
32
44.7137
13
-3.47644
23
4.86599
33
44.7137
0
3DFACE
8
m_rifle
10
-0.597007
20
18.4212
30
33.3743
11
-1.12997
21
19.528
31
32.4484
12
-3.47644
22
4.86599
32
44.7137
13
-3.47644
23
4.86599
33
44.7137
0
3DFACE
8
m_rifle
10
-0.597007
20
18.4212
30
33.3743
11
-0.597007
21
19.5279
31
32.4484
12
-1.12997
22
19.528
32
32.4484
13
-1.12997
23
19.528
33
32.4484
0
3DFACE
8
m_rifle
10
1.40687
20
13.6068
30
20.888
11
-1.40683
21
13.6068
31
20.888
12
-1.40683
22
13.6068
32
29.3468
13
-1.40683
23
13.6068
33
29.3468
0
3DFACE
8
m_rifle
10
-1.40683
20
13.6068
30
29.3468
11
1.40687
21
13.6068
31
29.3468
12
1.40687
22
13.6068
32
20.888
13
1.40687
23
13.6068
33
20.888
0
3DFACE
8
m_rifle
10
1.40687
20
13.6068
30
29.3468
11
-1.40683
21
13.6068
31
29.3468
12
-1.32773
22
15.2985
32
29.3468
13
-1.32773
23
15.2985
33
29.3468
0
3DFACE
8
m_rifle
10
-1.32773
20
15.2985
30
29.3468
11
1.32777
21
15.2985
31
29.3468
12
1.40687
22
13.6068
32
29.3468
13
1.40687
23
13.6068
33
29.3468
0
3DFACE
8
m_rifle
10
-3.34593
20
7.65733
30
15.7551
11
3.40397
21
6.41678
31
14.6849
12
-3.40393
22
6.41678
32
14.6849
13
-3.40393
23
6.41678
33
14.6849
0
3DFACE
8
m_rifle
10
-3.34593
20
7.65733
30
15.7551
11
3.34596
21
7.65733
31
15.7551
12
3.40397
22
6.41678
32
14.6849
13
3.40397
23
6.41678
33
14.6849
0
3DFACE
8
m_rifle
10
-3.34593
20
7.65733
30
15.7551
11
1.40687
21
13.6068
31
20.888
12
3.34596
22
7.65733
32
15.7551
13
3.34596
23
7.65733
33
15.7551
0
3DFACE
8
m_rifle
10
-3.34593
20
7.65733
30
15.7551
11
-1.40683
21
13.6068
31
20.888
12
1.40687
22
13.6068
32
20.888
13
1.40687
23
13.6068
33
20.888
0
3DFACE
8
m_rifle
10
2.59019
20
6.9807
30
-15.4849
11
-2.59017
21
6.9807
31
-15.4849
12
-2.61654
22
6.41678
32
-12.9473
13
-2.61654
23
6.41678
33
-12.9473
0
3DFACE
8
m_rifle
10
-2.61654
20
6.41678
30
-12.9473
11
2.61651
21
6.41678
31
-12.9473
12
2.59019
22
6.9807
32
-15.4849
13
2.59019
23
6.9807
33
-15.4849
0
3DFACE
8
m_rifle
10
2.45176
20
9.94129
30
-16.4718
11
-2.45174
21
9.94129
31
-16.4718
12
-2.51107
22
8.67246
32
-16.4718
13
-2.51107
23
8.67246
33
-16.4718
0
3DFACE
8
m_rifle
10
-2.51107
20
8.67246
30
-16.4718
11
2.51109
21
8.67246
31
-16.4718
12
2.45176
22
9.94129
32
-16.4718
13
2.45176
23
9.94129
33
-16.4718
0
3DFACE
8
m_rifle
10
2.51109
20
8.67246
30
-16.4718
11
-2.51107
21
8.67246
31
-16.4718
12
-2.59017
22
6.9807
32
-15.4849
13
-2.59017
23
6.9807
33
-15.4849
0
3DFACE
8
m_rifle
10
-2.59017
20
6.9807
30
-15.4849
11
2.59019
21
6.9807
31
-15.4849
12
2.51109
22
8.67246
32
-16.4718
13
2.51109
23
8.67246
33
-16.4718
0
3DFACE
8
m_rifle
10
1.32777
20
15.2985
30
29.3468
11
-1.32773
21
15.2985
31
-12.2424
12
1.32777
22
15.2985
32
0.546196
13
1.32777
23
15.2985
33
0.546196
0
3DFACE
8
m_rifle
10
-1.32773
20
15.2985
30
-12.2424
11
1.32777
21
15.2985
31
-12.2424
12
1.32777
22
15.2985
32
0.546196
13
1.32777
23
15.2985
33
0.546196
0
3DFACE
8
m_rifle
10
1.32777
20
15.2985
30
29.3468
11
-1.32773
21
15.2985
31
0.546196
12
-1.32773
22
15.2985
32
-12.2424
13
-1.32773
23
15.2985
33
-12.2424
0
3DFACE
8
m_rifle
10
1.32777
20
15.2985
30
29.3468
11
-1.32773
21
15.2985
31
29.3468
12
-1.32773
22
15.2985
32
0.546196
13
-1.32773
23
15.2985
33
0.546196
0
3DFACE
8
m_rifle
10
1.32777
20
15.2985
30
-12.2424
11
-1.32773
21
15.2985
31
-12.2424
12
-2.45174
22
9.94129
32
-16.4718
13
-2.45174
23
9.94129
33
-16.4718
0
3DFACE
8
m_rifle
10
-2.45174
20
9.94129
30
-16.4718
11
2.45176
21
9.94129
31
-16.4718
12
1.32777
22
15.2985
32
-12.2424
13
1.32777
23
15.2985
33
-12.2424
0
3DFACE
8
m_rifle
10
2.61651
20
6.41678
30
-12.9473
11
-2.61654
21
6.41678
31
-12.9473
12
-3.40393
22
6.41678
32
14.6849
13
-3.40393
23
6.41678
33
14.6849
0
3DFACE
8
m_rifle
10
-3.40393
20
6.41678
30
14.6849
11
3.40397
21
6.41678
31
14.6849
12
2.61651
22
6.41678
32
-12.9473
13
2.61651
23
6.41678
33
-12.9473
0
3DFACE
8
m_rifle
10
-1.45298
20
12.6199
30
-34.3763
11
-1.47934
21
12.056
31
-29.7239
12
-1.42661
22
13.1838
32
-29.8649
13
-1.42661
23
13.1838
33
-29.8649
0
3DFACE
8
m_rifle
10
-1.45298
20
12.6199
30
-34.3763
11
-1.86168
21
3.87913
31
-30.7108
12
-1.47934
22
12.056
32
-29.7239
13
-1.47934
23
12.056
33
-29.7239
0
3DFACE
8
m_rifle
10
-1.45298
20
12.6199
30
-34.3763
11
-1.88805
21
3.31521
31
-35.927
12
-1.86168
22
3.87913
32
-30.7108
13
-1.86168
23
3.87913
33
-30.7108
0
3DFACE
8
m_rifle
10
1.45299
20
12.6199
30
-34.3763
11
1.86172
21
3.87913
31
-30.7108
12
1.88807
22
3.31521
32
-35.927
13
1.88807
23
3.31521
33
-35.927
0
3DFACE
8
m_rifle
10
1.45299
20
12.6199
30
-34.3763
11
1.47938
21
12.056
31
-29.7239
12
1.86172
22
3.87913
32
-30.7108
13
1.86172
23
3.87913
33
-30.7108
0
3DFACE
8
m_rifle
10
1.45299
20
12.6199
30
-34.3763
11
1.42663
21
13.1838
31
-29.8649
12
1.47938
22
12.056
32
-29.7239
13
1.47938
23
12.056
33
-29.7239
0
3DFACE
8
m_rifle
10
-1.86168
20
3.87913
30
-30.7108
11
-1.88805
21
3.31521
31
-35.927
12
1.88807
22
3.31521
32
-35.927
13
1.88807
23
3.31521
33
-35.927
0
3DFACE
8
m_rifle
10
1.88807
20
3.31521
30
-35.927
11
1.86172
21
3.87913
31
-30.7108
12
-1.86168
22
3.87913
32
-30.7108
13
-1.86168
23
3.87913
33
-30.7108
0
3DFACE
8
m_rifle
10
-1.88805
20
3.31521
30
-35.927
11
-1.45298
21
12.6199
31
-34.3763
12
1.45299
22
12.6199
32
-34.3763
13
1.45299
23
12.6199
33
-34.3763
0
3DFACE
8
m_rifle
10
1.45299
20
12.6199
30
-34.3763
11
1.88807
21
3.31521
31
-35.927
12
-1.88805
22
3.31521
32
-35.927
13
-1.88805
23
3.31521
33
-35.927
0
3DFACE
8
m_rifle
10
-1.45298
20
12.6199
30
-34.3763
11
-1.42661
21
13.1838
31
-29.8649
12
1.42663
22
13.1838
32
-29.8649
13
1.42663
23
13.1838
33
-29.8649
0
3DFACE
8
m_rifle
10
1.42663
20
13.1838
30
-29.8649
11
1.45299
21
12.6199
31
-34.3763
12
-1.45298
22
12.6199
32
-34.3763
13
-1.45298
23
12.6199
33
-34.3763
0
3DFACE
8
m_rifle
10
-1.42661
20
13.1838
30
-29.8649
11
-1.47934
21
12.056
31
-29.7239
12
1.47938
22
12.056
32
-29.7239
13
1.47938
23
12.056
33
-29.7239
0
3DFACE
8
m_rifle
10
1.47938
20
12.056
30
-29.7239
11
1.42663
21
13.1838
31
-29.8649
12
-1.42661
22
13.1838
32
-29.8649
13
-1.42661
23
13.1838
33
-29.8649
0
3DFACE
8
m_rifle
10
-1.47934
20
12.056
30
-29.7239
11
-1.46616
21
12.338
31
-27.7502
12
1.4662
22
12.3379
32
-27.7502
13
1.4662
23
12.3379
33
-27.7502
0
3DFACE
8
m_rifle
10
1.4662
20
12.3379
30
-27.7502
11
1.47938
21
12.056
31
-29.7239
12
-1.47934
22
12.056
32
-29.7239
13
-1.47934
23
12.056
33
-29.7239
0
3DFACE
8
m_rifle
10
1.09705
20
20.2329
30
-20.9831
11
0.597023
21
20.2329
31
-20.9831
12
0.597023
22
20.2329
32
-9.28176
13
0.597023
23
20.2329
33
-9.28176
0
3DFACE
8
m_rifle
10
0.597023
20
20.2329
30
-9.28176
11
1.09705
21
20.2329
31
-9.28176
12
1.09705
22
20.2329
32
-20.9831
13
1.09705
23
20.2329
33
-20.9831
0
3DFACE
8
m_rifle
10
1.09705
20
20.2329
30
-9.28176
11
0.597023
21
20.2329
31
-9.28176
12
0.597023
22
19.5279
32
-7.87195
13
0.597023
23
19.5279
33
-7.87195
0
3DFACE
8
m_rifle
10
0.597023
20
19.5279
30
-7.87195
11
1.13001
21
19.528
31
-7.87195
12
1.09705
22
20.2329
32
-9.28176
13
1.09705
23
20.2329
33
-9.28176
0
3DFACE
8
m_rifle
10
0.597023
20
19.5279
30
-7.87195
11
0.597023
21
19.5279
31
32.4484
12
1.13001
22
19.5279
32
32.4484
13
1.13001
23
19.5279
33
32.4484
0
3DFACE
8
m_rifle
10
1.13001
20
19.5279
30
32.4484
11
1.13001
21
19.528
31
-7.87195
12
0.597023
22
19.5279
32
-7.87195
13
0.597023
23
19.5279
33
-7.87195
0
3DFACE
8
m_rifle
10
-3.47644
20
4.86599
30
44.7137
11
-3.47644
21
4.86599
31
21.311
12
3.47648
22
4.86599
32
21.311
13
3.47648
23
4.86599
33
21.311
0
3DFACE
8
m_rifle
10
3.47648
20
4.86599
30
21.311
11
3.47648
21
4.86599
31
44.7137
12
-3.47644
22
4.86599
32
44.7137
13
-3.47644
23
4.86599
33
44.7137
0
3DFACE
8
m_rifle
10
-3.47644
20
4.86599
30
21.311
11
-3.52259
21
3.87913
31
19.9012
12
3.52262
22
3.87913
32
19.9012
13
3.52262
23
3.87913
33
19.9012
0
3DFACE
8
m_rifle
10
3.52262
20
3.87913
30
19.9012
11
3.47648
21
4.86599
31
21.311
12
-3.47644
22
4.86599
32
21.311
13
-3.47644
23
4.86599
33
21.311
0
3DFACE
8
m_rifle
10
-3.52259
20
3.87913
30
19.9012
11
-1.86168
21
3.87913
31
-30.7108
12
1.86172
22
3.87913
32
-30.7108
13
1.86172
23
3.87913
33
-30.7108
0
3DFACE
8
m_rifle
10
1.86172
20
3.87913
30
-30.7108
11
3.52262
21
3.87913
31
19.9012
12
-3.52259
22
3.87913
32
19.9012
13
-3.52259
23
3.87913
33
19.9012
0
3DFACE
8
m_rifle
10
1.09705
20
20.2329
30
-9.28176
11
1.32777
21
15.2985
31
-12.2424
12
1.09705
22
20.2329
32
-20.9831
13
1.09705
23
20.2329
33
-20.9831
0
3DFACE
8
m_rifle
10
1.13001
20
19.528
30
-7.87195
11
1.32777
21
15.2985
31
-12.2424
12
1.09705
22
20.2329
32
-9.28176
13
1.09705
23
20.2329
33
-9.28176
0
3DFACE
8
m_rifle
10
1.32777
20
15.2985
30
0.546196
11
1.32777
21
15.2985
31
-12.2424
12
1.13001
22
19.528
32
-7.87195
13
1.13001
23
19.528
33
-7.87195
0
3DFACE
8
m_rifle
10
1.09705
20
20.2329
30
-20.9831
11
1.32777
21
15.2985
31
-12.2424
12
1.4662
22
12.3379
32
-27.7502
13
1.4662
23
12.3379
33
-27.7502
0
3DFACE
8
m_rifle
10
2.45176
20
9.94129
30
-16.4718
11
1.4662
21
12.3379
31
-27.7502
12
1.32777
22
15.2985
32
-12.2424
13
1.32777
23
15.2985
33
-12.2424
0
3DFACE
8
m_rifle
10
1.4662
20
12.3379
30
-27.7502
11
2.45176
21
9.94129
31
-16.4718
12
1.86172
22
3.87913
32
-30.7108
13
1.86172
23
3.87913
33
-30.7108
0
3DFACE
8
m_rifle
10
2.51109
20
8.67246
30
-16.4718
11
1.86172
21
3.87913
31
-30.7108
12
2.45176
22
9.94129
32
-16.4718
13
2.45176
23
9.94129
33
-16.4718
0
3DFACE
8
m_rifle
10
2.51109
20
8.67246
30
-16.4718
11
2.59019
21
6.9807
31
-15.4849
12
1.86172
22
3.87913
32
-30.7108
13
1.86172
23
3.87913
33
-30.7108
0
3DFACE
8
m_rifle
10
2.59019
20
6.9807
30
-15.4849
11
2.61651
21
6.41678
31
-12.9473
12
1.86172
22
3.87913
32
-30.7108
13
1.86172
23
3.87913
33
-30.7108
0
3DFACE
8
m_rifle
10
1.86172
20
3.87913
30
-30.7108
11
2.61651
21
6.41678
31
-12.9473
12
3.52262
22
3.87913
32
19.9012
13
3.52262
23
3.87913
33
19.9012
0
3DFACE
8
m_rifle
10
3.40397
20
6.41678
30
14.6849
11
3.52262
21
3.87913
31
19.9012
12
2.61651
22
6.41678
32
-12.9473
13
2.61651
23
6.41678
33
-12.9473
0
3DFACE
8
m_rifle
10
3.47648
20
4.86599
30
21.311
11
1.40687
21
13.6068
31
29.3468
12
3.47648
22
4.86599
32
44.7137
13
3.47648
23
4.86599
33
44.7137
0
3DFACE
8
m_rifle
10
1.40687
20
13.6068
30
20.888
11
1.40687
21
13.6068
31
29.3468
12
3.47648
22
4.86599
32
21.311
13
3.47648
23
4.86599
33
21.311
0
3DFACE
8
m_rifle
10
3.34596
20
7.65733
30
15.7551
11
1.40687
21
13.6068
31
20.888
12
3.47648
22
4.86599
32
21.311
13
3.47648
23
4.86599
33
21.311
0
3DFACE
8
m_rifle
10
3.47648
20
4.86599
30
44.7137
11
1.40687
21
13.6068
31
29.3468
12
1.13001
22
19.5279
32
32.4484
13
1.13001
23
19.5279
33
32.4484
0
3DFACE
8
m_rifle
10
1.32777
20
15.2985
30
29.3468
11
1.13001
21
19.5279
31
32.4484
12
1.40687
22
13.6068
32
29.3468
13
1.40687
23
13.6068
33
29.3468
0
3DFACE
8
m_rifle
10
3.34596
20
7.65733
30
15.7551
11
3.47648
21
4.86599
31
21.311
12
3.40397
22
6.41678
32
14.6849
13
3.40397
23
6.41678
33
14.6849
0
3DFACE
8
m_rifle
10
3.52262
20
3.87913
30
19.9012
11
3.40397
21
6.41678
31
14.6849
12
3.47648
22
4.86599
32
21.311
13
3.47648
23
4.86599
33
21.311
0
3DFACE
8
m_rifle
10
1.13001
20
19.5279
30
32.4484
11
1.32777
21
15.2985
31
29.3468
12
1.13001
22
19.528
32
-7.87195
13
1.13001
23
19.528
33
-7.87195
0
3DFACE
8
m_rifle
10
1.32777
20
15.2985
30
0.546196
11
1.13001
21
19.528
31
-7.87195
12
1.32777
22
15.2985
32
29.3468
13
1.32777
23
15.2985
33
29.3468
0
3DFACE
8
m_rifle
10
1.47938
20
12.056
30
-29.7239
11
1.4662
21
12.3379
31
-27.7502
12
1.86172
22
3.87913
32
-30.7108
13
1.86172
23
3.87913
33
-30.7108
0
3DFACE
8
m_rifle
10
-1.32773
20
15.2985
30
-12.2424
11
-1.09701
21
20.2329
31
-9.28176
12
-1.09701
22
20.2329
32
-20.9831
13
-1.09701
23
20.2329
33
-20.9831
0
3DFACE
8
m_rifle
10
-1.32773
20
15.2985
30
-12.2424
11
-1.12997
21
19.528
31
-7.87195
12
-1.09701
22
20.2329
32
-9.28176
13
-1.09701
23
20.2329
33
-9.28176
0
3DFACE
8
m_rifle
10
-1.32773
20
15.2985
30
-12.2424
11
-1.32773
21
15.2985
31
0.546196
12
-1.12997
22
19.528
32
-7.87195
13
-1.12997
23
19.528
33
-7.87195
0
3DFACE
8
m_rifle
10
-1.32773
20
15.2985
30
-12.2424
11
-1.09701
21
20.2329
31
-20.9831
12
-1.46616
22
12.338
32
-27.7502
13
-1.46616
23
12.338
33
-27.7502
0
3DFACE
8
m_rifle
10
-1.46616
20
12.338
30
-27.7502
11
-2.45174
21
9.94129
31
-16.4718
12
-1.32773
22
15.2985
32
-12.2424
13
-1.32773
23
15.2985
33
-12.2424
0
3DFACE
8
m_rifle
10
-2.45174
20
9.94129
30
-16.4718
11
-1.46616
21
12.338
31
-27.7502
12
-1.86168
22
3.87913
32
-30.7108
13
-1.86168
23
3.87913
33
-30.7108
0
3DFACE
8
m_rifle
10
-1.86168
20
3.87913
30
-30.7108
11
-2.51107
21
8.67246
31
-16.4718
12
-2.45174
22
9.94129
32
-16.4718
13
-2.45174
23
9.94129
33
-16.4718
0
3DFACE
8
m_rifle
10
-2.59017
20
6.9807
30
-15.4849
11
-2.51107
21
8.67246
31
-16.4718
12
-1.86168
22
3.87913
32
-30.7108
13
-1.86168
23
3.87913
33
-30.7108
0
3DFACE
8
m_rifle
10
-2.61654
20
6.41678
30
-12.9473
11
-2.59017
21
6.9807
31
-15.4849
12
-1.86168
22
3.87913
32
-30.7108
13
-1.86168
23
3.87913
33
-30.7108
0
3DFACE
8
m_rifle
10
-2.61654
20
6.41678
30
-12.9473
11
-1.86168
21
3.87913
31
-30.7108
12
-3.52259
22
3.87913
32
19.9012
13
-3.52259
23
3.87913
33
19.9012
0
3DFACE
8
m_rifle
10
-3.52259
20
3.87913
30
19.9012
11
-3.40393
21
6.41678
31
14.6849
12
-2.61654
22
6.41678
32
-12.9473
13
-2.61654
23
6.41678
33
-12.9473
0
3DFACE
8
m_rifle
10
-1.40683
20
13.6068
30
29.3468
11
-3.47644
21
4.86599
31
21.311
12
-3.47644
22
4.86599
32
44.7137
13
-3.47644
23
4.86599
33
44.7137
0
3DFACE
8
m_rifle
10
-1.40683
20
13.6068
30
29.3468
11
-1.40683
21
13.6068
31
20.888
12
-3.47644
22
4.86599
32
21.311
13
-3.47644
23
4.86599
33
21.311
0
3DFACE
8
m_rifle
10
-1.40683
20
13.6068
30
20.888
11
-3.34593
21
7.65733
31
15.7551
12
-3.47644
22
4.86599
32
21.311
13
-3.47644
23
4.86599
33
21.311
0
3DFACE
8
m_rifle
10
-1.40683
20
13.6068
30
29.3468
11
-3.47644
21
4.86599
31
44.7137
12
-1.12997
22
19.528
32
32.4484
13
-1.12997
23
19.528
33
32.4484
0
3DFACE
8
m_rifle
10
-1.12997
20
19.528
30
32.4484
11
-1.32773
21
15.2985
31
29.3468
12
-1.40683
22
13.6068
32
29.3468
13
-1.40683
23
13.6068
33
29.3468
0
3DFACE
8
m_rifle
10
-3.47644
20
4.86599
30
21.311
11
-3.34593
21
7.65733
31
15.7551
12
-3.40393
22
6.41678
32
14.6849
13
-3.40393
23
6.41678
33
14.6849
0
3DFACE
8
m_rifle
10
-3.40393
20
6.41678
30
14.6849
11
-3.52259
21
3.87913
31
19.9012
12
-3.47644
22
4.86599
32
21.311
13
-3.47644
23
4.86599
33
21.311
0
3DFACE
8
m_rifle
10
-1.32773
20
15.2985
30
29.3468
11
-1.12997
21
19.528
31
32.4484
12
-1.12997
22
19.528
32
-7.87195
13
-1.12997
23
19.528
33
-7.87195
0
3DFACE
8
m_rifle
10
-1.12997
20
19.528
30
-7.87195
11
-1.32773
21
15.2985
31
0.546196
12
-1.32773
22
15.2985
32
29.3468
13
-1.32773
23
15.2985
33
29.3468
0
3DFACE
8
m_rifle
10
-1.46616
20
12.338
30
-27.7502
11
-1.47934
21
12.056
31
-29.7239
12
-1.86168
22
3.87913
32
-30.7108
13
-1.86168
23
3.87913
33
-30.7108
0
3DFACE
8
m_rifle
10
-1.26863
20
1.33528
30
-13.692
11
-1.26863
21
2.39568
31
-3.95619
12
-1.26863
22
1.51932
32
-31.7281
13
-1.26863
23
1.51932
33
-31.7281
0
3DFACE
8
m_rifle
10
-1.26863
20
-4.37883
30
-3.95615
11
-1.26863
21
1.33528
31
-13.692
12
-1.26863
22
-0.50513
32
-10.9314
13
-1.26863
23
-0.50513
33
-10.9314
0
3DFACE
8
m_rifle
10
-1.26863
20
2.39568
30
-3.95619
11
-1.26863
21
1.33528
31
-13.692
12
-1.26863
22
-4.37883
32
-3.95615
13
-1.26863
23
-4.37883
33
-3.95615
0
3DFACE
8
m_rifle
10
-1.26863
20
2.99165
30
22.012
11
-1.26861
21
-2.35447
31
6.33694
12
-1.79104
22
-0.432972
32
22.012
13
-1.79104
23
-0.432972
33
22.012
0
3DFACE
8
m_rifle
10
-1.26863
20
5.20015
30
21.0918
11
-1.26861
21
-2.35447
31
6.33694
12
-1.26863
22
2.99165
32
22.012
13
-1.26863
23
2.99165
33
22.012
0
3DFACE
8
m_rifle
10
-1.26863
20
2.39566
30
6.33693
11
-1.26861
21
-2.35447
31
6.33694
12
-1.26863
22
5.20015
32
21.0918
13
-1.26863
23
5.20015
33
21.0918
0
3DFACE
8
m_rifle
10
-1.26863
20
-6.76253
30
17.779
11
-1.26863
21
-6.76253
31
23.6733
12
-1.79104
22
-0.432972
32
22.012
13
-1.79104
23
-0.432972
33
22.012
0
3DFACE
8
m_rifle
10
-1.79104
20
-6.05518
30
23.6733
11
-1.79104
21
-0.432972
31
22.012
12
-1.26863
22
-6.76253
32
23.6733
13
-1.26863
23
-6.76253
33
23.6733
0
3DFACE
8
m_rifle
10
-1.79104
20
-0.432972
30
22.012
11
-1.79104
21
-6.05518
31
23.6733
12
-2.27162
22
-0.432971
32
46.6735
13
-2.27162
23
-0.432971
33
46.6735
0
3DFACE
8
m_rifle
10
-1.79104
20
-6.05517
30
46.6735
11
-2.27162
21
-0.432971
31
46.6735
12
-1.79104
22
-6.05518
32
23.6733
13
-1.79104
23
-6.05518
33
23.6733
0
3DFACE
8
m_rifle
10
-0.866355
20
-2.4213
30
4.93099
11
-0.866355
21
-3.84984
31
3.16548
12
-0.866355
22
-4.73806
32
6.33693
13
-0.866355
23
-4.73806
33
6.33693
0
3DFACE
8
m_rifle
10
-0.866355
20
-3.94847
30
-0.586525
11
-0.866355
21
-3.01246
31
-2.40928
12
-0.866355
22
-4.37915
32
-3.947
13
-0.866355
23
-4.37915
33
-3.947
0
3DFACE
8
m_rifle
10
-0.866355
20
-3.01246
30
-2.40928
11
-0.866355
21
-1.63308
31
-3.1975
12
-0.866355
22
-4.37915
32
-3.947
13
-0.866355
23
-4.37915
33
-3.947
0
3DFACE
8
m_rifle
10
-0.866355
20
-0.155174
30
-3.0497
11
-0.866355
21
-4.37915
31
-3.947
12
-0.866355
22
-1.63308
32
-3.1975
13
-0.866355
23
-1.63308
33
-3.1975
0
3DFACE
8
m_rifle
10
-0.866355
20
2.39564
30
-3.95615
11
-0.866355
21
-4.37915
31
-3.947
12
-0.866355
22
-0.155174
32
-3.0497
13
-0.866355
23
-0.155174
33
-3.0497
0
3DFACE
8
m_rifle
10
-0.866355
20
-0.155174
30
-3.0497
11
-0.866355
21
0.58378
31
-2.06443
12
-0.866355
22
2.39564
32
-3.95615
13
-0.866355
23
2.39564
33
-3.95615
0
3DFACE
8
m_rifle
10
-0.866355
20
2.39564
30
-3.95615
11
-0.866355
21
0.58378
31
-2.06443
12
-0.866355
22
2.39564
32
6.33695
13
-0.866355
23
2.39564
33
6.33695
0
3DFACE
8
m_rifle
10
-0.866355
20
0.633044
30
5.66995
11
-0.866355
21
2.39564
31
6.33695
12
-0.866355
22
0.58378
32
-2.06443
13
-0.866355
23
0.58378
33
-2.06443
0
3DFACE
8
m_rifle
10
-0.866355
20
-3.94847
30
-0.586525
11
-0.866355
21
-4.37915
31
-3.947
12
-0.866355
22
-3.84984
32
3.16548
13
-0.866355
23
-3.84984
33
3.16548
0
3DFACE
8
m_rifle
10
-0.866355
20
-4.73806
30
6.33693
11
-0.866355
21
-3.84984
31
3.16548
12
-0.866355
22
-4.37915
32
-3.947
13
-0.866355
23
-4.37915
33
-3.947
0
3DFACE
8
m_rifle
10
-0.866355
20
-0.992653
30
5.66995
11
-0.866355
21
-2.4213
31
4.93099
12
-0.866355
22
-4.73806
32
6.33693
13
-0.866355
23
-4.73806
33
6.33693
0
3DFACE
8
m_rifle
10
-0.866355
20
0.633044
30
5.66995
11
-0.866355
21
-0.992653
31
5.66995
12
-0.866355
22
2.39564
32
6.33695
13
-0.866355
23
2.39564
33
6.33695
0
3DFACE
8
m_rifle
10
-0.866355
20
-4.73806
30
6.33693
11
-0.866355
21
2.39564
31
6.33695
12
-0.866355
22
-0.992653
32
5.66995
13
-0.866355
23
-0.992653
33
5.66995
0
3DFACE
8
m_rifle
10
-1.79104
20
-0.432972
30
22.012
11
-1.26861
21
-2.35447
31
6.33694
12
-1.26863
22
-4.73808
32
13.178
13
-1.26863
23
-4.73808
33
13.178
0
3DFACE
8
m_rifle
10
-1.26863
20
-4.73808
30
6.33695
11
-1.26863
21
-4.73808
31
13.178
12
-1.26861
22
-2.35447
32
6.33694
13
-1.26861
23
-2.35447
33
6.33694
0
3DFACE
8
m_rifle
10
-1.26863
20
4.0959
30
-33.9366
11
-1.26863
21
1.51932
31
-31.7281
12
-1.26863
22
5.20015
32
21.0918
13
-1.26863
23
5.20015
33
21.0918
0
3DFACE
8
m_rifle
10
-1.26863
20
2.39568
30
-3.95619
11
-1.26863
21
5.20015
31
21.0918
12
-1.26863
22
1.51932
32
-31.7281
13
-1.26863
23
1.51932
33
-31.7281
0
3DFACE
8
m_rifle
10
-1.26863
20
-4.37
30
-12.7718
11
-1.26863
21
-4.37883
31
-3.95615
12
-1.26863
22
-0.50513
32
-10.9314
13
-1.26863
23
-0.50513
33
-10.9314
0
3DFACE
8
m_rifle
10
-1.26863
20
-7.68274
30
-7.25059
11
-1.26863
21
-4.37883
31
-3.95615
12
-1.26863
22
-4.37
32
-12.7718
13
-1.26863
23
-4.37
33
-12.7718
0
3DFACE
8
m_rifle
10
-1.26863
20
-12.0997
30
17.779
11
-1.26863
21
-6.76253
31
17.779
12
-1.26863
22
-12.0997
32
13.178
13
-1.26863
23
-12.0997
33
13.178
0
3DFACE
8
m_rifle
10
-1.26863
20
-4.73808
30
13.178
11
-1.26863
21
-12.0997
31
13.178
12
-1.26863
22
-6.76253
32
17.779
13
-1.26863
23
-6.76253
33
17.779
0
3DFACE
8
m_rifle
10
-1.26863
20
2.39566
30
6.33693
11
-1.26863
21
5.20015
31
21.0918
12
-1.26863
22
2.39568
32
-3.95619
13
-1.26863
23
2.39568
33
-3.95619
0
3DFACE
8
m_rifle
10
-1.26863
20
-6.76253
30
17.779
11
-1.79104
21
-0.432972
31
22.012
12
-1.26863
22
-4.73808
32
13.178
13
-1.26863
23
-4.73808
33
13.178
0
3DFACE
8
m_rifle
10
-1.26863
20
-11.5476
30
-15.7165
11
-1.26863
21
-13.204
31
-8.35483
12
-1.26863
22
-7.68274
32
-7.25059
13
-1.26863
23
-7.68274
33
-7.25059
0
3DFACE
8
m_rifle
10
-1.26863
20
-8.23486
30
-16.0846
11
-1.26863
21
-11.5476
31
-15.7165
12
-1.26863
22
-7.68274
32
-7.25059
13
-1.26863
23
-7.68274
33
-7.25059
0
3DFACE
8
m_rifle
10
-1.26863
20
-4.37
30
-12.7718
11
-1.26863
21
-8.23486
31
-16.0846
12
-1.26863
22
-7.68274
32
-7.25059
13
-1.26863
23
-7.68274
33
-7.25059
0
3DFACE
8
m_rifle
10
-1.26863
20
-15.2284
30
-10.7474
11
-1.26863
21
-13.204
31
-8.35483
12
-1.26863
22
-11.5476
32
-15.7165
13
-1.26863
23
-11.5476
33
-15.7165
0
3DFACE
8
m_rifle
10
1.26867
20
1.33528
30
-13.692
11
1.26867
21
-4.37883
31
-3.95615
12
1.26867
22
-0.50513
32
-10.9314
13
1.26867
23
-0.50513
33
-10.9314
0
3DFACE
8
m_rifle
10
1.26867
20
1.33528
30
-13.692
11
1.26867
21
2.39568
31
-3.95617
12
1.26867
22
-4.37883
32
-3.95615
13
1.26867
23
-4.37883
33
-3.95615
0
3DFACE
8
m_rifle
10
1.26866
20
-2.35447
30
6.33694
11
1.26866
21
2.99165
31
22.012
12
1.79105
22
-0.432972
32
22.012
13
1.79105
23
-0.432972
33
22.012
0
3DFACE
8
m_rifle
10
1.26866
20
-2.35447
30
6.33694
11
1.26866
21
5.20015
31
21.0918
12
1.26866
22
2.99165
32
22.012
13
1.26866
23
2.99165
33
22.012
0
3DFACE
8
m_rifle
10
1.26866
20
-2.35447
30
6.33694
11
1.26866
21
2.39568
31
6.33691
12
1.26866
22
5.20015
32
21.0918
13
1.26866
23
5.20015
33
21.0918
0
3DFACE
8
m_rifle
10
1.26866
20
-6.76253
30
23.6733
11
1.26866
21
-6.76253
31
17.779
12
1.79105
22
-0.432972
32
22.012
13
1.79105
23
-0.432972
33
22.012
0
3DFACE
8
m_rifle
10
1.79105
20
-0.432972
30
22.012
11
1.79105
21
-6.05522
31
23.6733
12
1.26866
22
-6.76253
32
23.6733
13
1.26866
23
-6.76253
33
23.6733
0
3DFACE
8
m_rifle
10
1.79105
20
-6.05522
30
23.6733
11
1.79105
21
-0.432972
31
22.012
12
2.27165
22
-0.432971
32
46.6735
13
2.27165
23
-0.432971
33
46.6735
0
3DFACE
8
m_rifle
10
2.27165
20
-0.432971
30
46.6735
11
1.79105
21
-6.05521
31
46.6735
12
1.79105
22
-6.05522
32
23.6733
13
1.79105
23
-6.05522
33
23.6733
0
3DFACE
8
m_rifle
10
0.866362
20
-3.84994
30
3.1575
11
0.866362
21
-2.4213
31
4.93099
12
0.866362
22
-4.73801
32
6.33691
13
0.866362
23
-4.73801
33
6.33691
0
3DFACE
8
m_rifle
10
0.866362
20
-3.01246
30
-2.40928
11
0.866362
21
-3.94847
31
-0.586525
12
0.866362
22
-4.37915
32
-3.947
13
0.866362
23
-4.37915
33
-3.947
0
3DFACE
8
m_rifle
10
0.866362
20
-1.63308
30
-3.19749
11
0.866362
21
-3.01246
31
-2.40928
12
0.866362
22
-4.37915
32
-3.947
13
0.866362
23
-4.37915
33
-3.947
0
3DFACE
8
m_rifle
10
0.866362
20
-4.37915
30
-3.947
11
0.866362
21
-0.155174
31
-3.0497
12
0.866362
22
-1.63308
32
-3.19749
13
0.866362
23
-1.63308
33
-3.19749
0
3DFACE
8
m_rifle
10
0.866362
20
-4.37915
30
-3.947
11
0.866362
21
2.39564
31
-3.95615
12
0.866362
22
-0.155174
32
-3.0497
13
0.866362
23
-0.155174
33
-3.0497
0
3DFACE
8
m_rifle
10
0.866362
20
0.58378
30
-2.06443
11
0.866362
21
-0.155174
31
-3.0497
12
0.866362
22
2.39564
32
-3.95615
13
0.866362
23
2.39564
33
-3.95615
0
3DFACE
8
m_rifle
10
0.866362
20
0.58378
30
-2.06443
11
0.866362
21
2.39564
31
-3.95615
12
0.866362
22
2.39564
32
6.33695
13
0.866362
23
2.39564
33
6.33695
0
3DFACE
8
m_rifle
10
0.866362
20
2.39564
30
6.33695
11
0.866362
21
0.633045
31
5.66995
12
0.866362
22
0.58378
32
-2.06443
13
0.866362
23
0.58378
33
-2.06443
0
3DFACE
8
m_rifle
10
0.866362
20
-4.37915
30
-3.947
11
0.866362
21
-3.94847
31
-0.586525
12
0.866362
22
-3.84994
32
3.1575
13
0.866362
23
-3.84994
33
3.1575
0
3DFACE
8
m_rifle
10
0.866362
20
-3.84994
30
3.1575
11
0.866362
21
-4.73801
31
6.33691
12
0.866362
22
-4.37915
32
-3.947
13
0.866362
23
-4.37915
33
-3.947
0
3DFACE
8
m_rifle
10
0.866362
20
-2.4213
30
4.93099
11
0.866362
21
-0.992653
31
5.66995
12
0.866362
22
-4.73801
32
6.33691
13
0.866362
23
-4.73801
33
6.33691
0
3DFACE
8
m_rifle
10
0.866362
20
-0.992653
30
5.66995
11
0.866362
21
0.633045
31
5.66995
12
0.866362
22
2.39564
32
6.33695
13
0.866362
23
2.39564
33
6.33695
0
3DFACE
8
m_rifle
10
0.866362
20
2.39564
30
6.33695
11
0.866362
21
-4.73801
31
6.33691
12
0.866362
22
-0.992653
32
5.66995
13
0.866362
23
-0.992653
33
5.66995
0
3DFACE
8
m_rifle
10
1.26866
20
-2.35447
30
6.33694
11
1.79105
21
-0.432972
31
22.012
12
1.26866
22
-4.73808
32
13.178
13
1.26866
23
-4.73808
33
13.178
0
3DFACE
8
m_rifle
10
1.26866
20
-4.73808
30
13.178
11
1.26866
21
-4.73808
31
6.33695
12
1.26866
22
-2.35447
32
6.33694
13
1.26866
23
-2.35447
33
6.33694
0
3DFACE
8
m_rifle
10
1.26867
20
1.51932
30
-31.7281
11
1.26867
21
4.0959
31
-33.9366
12
1.26866
22
5.20015
32
21.0918
13
1.26866
23
5.20015
33
21.0918
0
3DFACE
8
m_rifle
10
1.26866
20
5.20015
30
21.0918
11
1.26867
21
1.33528
31
-13.692
12
1.26867
22
1.51932
32
-31.7281
13
1.26867
23
1.51932
33
-31.7281
0
3DFACE
8
m_rifle
10
1.26867
20
-4.37883
30
-3.95615
11
1.26867
21
-4.37
31
-12.7718
12
1.26867
22
-0.50513
32
-10.9314
13
1.26867
23
-0.50513
33
-10.9314
0
3DFACE
8
m_rifle
10
1.26867
20
-4.37883
30
-3.95615
11
1.26867
21
-7.68274
31
-7.25059
12
1.26867
22
-4.37
32
-12.7718
13
1.26867
23
-4.37
33
-12.7718
0
3DFACE
8
m_rifle
10
1.26866
20
-6.76253
30
17.779
11
1.26866
21
-12.0997
31
17.779
12
1.26866
22
-12.0997
32
13.178
13
1.26866
23
-12.0997
33
13.178
0
3DFACE
8
m_rifle
10
1.26866
20
-12.0997
30
13.178
11
1.26866
21
-4.73808
31
13.178
12
1.26866
22
-6.76253
32
17.779
13
1.26866
23
-6.76253
33
17.779
0
3DFACE
8
m_rifle
10
1.26866
20
5.20015
30
21.0918
11
1.26866
21
2.39568
31
6.33691
12
1.26867
22
2.39568
32
-3.95617
13
1.26867
23
2.39568
33
-3.95617
0
3DFACE
8
m_rifle
10
1.79105
20
-0.432972
30
22.012
11
1.26866
21
-6.76253
31
17.779
12
1.26866
22
-4.73808
32
13.178
13
1.26866
23
-4.73808
33
13.178
0
3DFACE
8
m_rifle
10
1.26867
20
-13.204
30
-8.35483
11
1.26867
21
-11.5476
31
-15.7165
12
1.26867
22
-7.68274
32
-7.25059
13
1.26867
23
-7.68274
33
-7.25059
0
3DFACE
8
m_rifle
10
1.26867
20
-11.5476
30
-15.7165
11
1.26867
21
-8.23486
31
-16.0846
12
1.26867
22
-7.68274
32
-7.25059
13
1.26867
23
-7.68274
33
-7.25059
0
3DFACE
8
m_rifle
10
1.26867
20
-8.23486
30
-16.0846
11
1.26867
21
-4.37
31
-12.7718
12
1.26867
22
-7.68274
32
-7.25059
13
1.26867
23
-7.68274
33
-7.25059
0
3DFACE
8
m_rifle
10
1.26867
20
-13.204
30
-8.35483
11
1.26867
21
-15.2284
31
-10.7474
12
1.26867
22
-11.5476
32
-15.7165
13
1.26867
23
-11.5476
33
-15.7165
0
3DFACE
8
m_rifle
10
0.561346
20
-6.76253
30
46.6735
11
1.79105
21
-6.05522
31
23.6733
12
1.79105
22
-6.05521
32
46.6735
13
1.79105
23
-6.05521
33
46.6735
0
3DFACE
8
m_rifle
10
0.561346
20
-6.76253
30
46.6735
11
0.561349
21
-6.76253
31
23.6733
12
1.79105
22
-6.05522
32
23.6733
13
1.79105
23
-6.05522
33
23.6733
0
3DFACE
8
m_rifle
10
1.26866
20
-6.76253
30
23.6733
11
1.79105
21
-6.05522
31
23.6733
12
0.561349
22
-6.76253
32
23.6733
13
0.561349
23
-6.76253
33
23.6733
0
3DFACE
8
m_rifle
10
-0.561256
20
-6.76253
30
23.6733
11
-1.79104
21
-6.05518
31
23.6733
12
-1.26863
22
-6.76253
32
23.6733
13
-1.26863
23
-6.76253
33
23.6733
0
3DFACE
8
m_rifle
10
-0.561252
20
-6.76253
30
46.6735
11
-1.79104
21
-6.05518
31
23.6733
12
-0.561256
22
-6.76253
32
23.6733
13
-0.561256
23
-6.76253
33
23.6733
0
3DFACE
8
m_rifle
10
-0.561252
20
-6.76253
30
46.6735
11
-1.79104
21
-6.05517
31
46.6735
12
-1.79104
22
-6.05518
32
23.6733
13
-1.79104
23
-6.05518
33
23.6733
0
3DFACE
8
m_rifle
10
-0.561256
20
-6.76253
30
23.6733
11
0.561346
21
-6.76253
31
46.6735
12
-0.561252
22
-6.76253
32
46.6735
13
-0.561252
23
-6.76253
33
46.6735
0
3DFACE
8
m_rifle
10
-0.561256
20
-6.76253
30
23.6733
11
0.561349
21
-6.76253
31
23.6733
12
0.561346
22
-6.76253
32
46.6735
13
0.561346
23
-6.76253
33
46.6735
0
3DFACE
8
m_rifle
10
-0.561256
20
-6.76253
30
23.6733
11
-1.26863
21
-6.76253
31
17.779
12
0.561349
22
-6.76253
32
23.6733
13
0.561349
23
-6.76253
33
23.6733
0
3DFACE
8
m_rifle
10
-0.561256
20
-6.76253
30
23.6733
11
-1.26863
21
-6.76253
31
23.6733
12
-1.26863
22
-6.76253
32
17.779
13
-1.26863
23
-6.76253
33
17.779
0
3DFACE
8
m_rifle
10
1.26866
20
-4.73808
30
13.178
11
-0.866355
21
-4.73806
31
6.33693
12
0.866362
22
-4.73801
32
6.33691
13
0.866362
23
-4.73801
33
6.33691
0
3DFACE
8
m_rifle
10
0.866362
20
-4.73801
30
6.33691
11
1.26866
21
-4.73808
31
6.33695
12
1.26866
22
-4.73808
32
13.178
13
1.26866
23
-4.73808
33
13.178
0
3DFACE
8
m_rifle
10
1.26867
20
2.39568
30
-3.95617
11
1.26867
21
1.33528
31
-13.692
12
1.26866
22
5.20015
32
21.0918
13
1.26866
23
5.20015
33
21.0918
0
3DFACE
8
m_rifle
10
1.26866
20
-2.35447
30
6.33694
11
0.866362
21
2.39564
31
6.33695
12
1.26866
22
2.39568
32
6.33691
13
1.26866
23
2.39568
33
6.33691
0
3DFACE
8
m_rifle
10
1.26866
20
-2.35447
30
6.33694
11
0.866362
21
-4.73801
31
6.33691
12
0.866362
22
2.39564
32
6.33695
13
0.866362
23
2.39564
33
6.33695
0
3DFACE
8
m_rifle
10
1.26866
20
-2.35447
30
6.33694
11
1.26866
21
-4.73808
31
6.33695
12
0.866362
22
-4.73801
32
6.33691
13
0.866362
23
-4.73801
33
6.33691
0
3DFACE
8
m_rifle
10
1.26866
20
2.39568
30
6.33691
11
0.866362
21
2.39564
31
-3.95615
12
1.26867
22
2.39568
32
-3.95617
13
1.26867
23
2.39568
33
-3.95617
0
3DFACE
8
m_rifle
10
1.26866
20
2.39568
30
6.33691
11
0.866362
21
2.39564
31
6.33695
12
0.866362
22
2.39564
32
-3.95615
13
0.866362
23
2.39564
33
-3.95615
0
3DFACE
8
m_rifle
10
0.866362
20
-4.37915
30
-3.947
11
1.26867
21
2.39568
31
-3.95617
12
0.866362
22
2.39564
32
-3.95615
13
0.866362
23
2.39564
33
-3.95615
0
3DFACE
8
m_rifle
10
0.866362
20
-4.37915
30
-3.947
11
1.26867
21
-4.37883
31
-3.95615
12
1.26867
22
2.39568
32
-3.95617
13
1.26867
23
2.39568
33
-3.95617
0
3DFACE
8
m_rifle
10
0.866362
20
-3.94847
30
-0.586525
11
0.866362
21
-3.01246
31
-2.40928
12
-0.866355
22
-3.01246
32
-2.40928
13
-0.866355
23
-3.01246
33
-2.40928
0
3DFACE
8
m_rifle
10
-0.866355
20
-3.01246
30
-2.40928
11
-0.866355
21
-3.94847
31
-0.586525
12
0.866362
22
-3.94847
32
-0.586525
13
0.866362
23
-3.94847
33
-0.586525
0
3DFACE
8
m_rifle
10
0.866362
20
-1.63308
30
-3.19749
11
0.866362
21
-0.155174
31
-3.0497
12
-0.866355
22
-0.155174
32
-3.0497
13
-0.866355
23
-0.155174
33
-3.0497
0
3DFACE
8
m_rifle
10
-0.866355
20
-0.155174
30
-3.0497
11
-0.866355
21
-1.63308
31
-3.1975
12
0.866362
22
-1.63308
32
-3.19749
13
0.866362
23
-1.63308
33
-3.19749
0
3DFACE
8
m_rifle
10
0.866362
20
0.58378
30
-2.06443
11
0.866362
21
0.633045
31
5.66995
12
-0.866355
22
0.633044
32
5.66995
13
-0.866355
23
0.633044
33
5.66995
0
3DFACE
8
m_rifle
10
-0.866355
20
0.633044
30
5.66995
11
-0.866355
21
0.58378
31
-2.06443
12
0.866362
22
0.58378
32
-2.06443
13
0.866362
23
0.58378
33
-2.06443
0
3DFACE
8
m_rifle
10
0.866362
20
-0.992653
30
5.66995
11
0.866362
21
-2.4213
31
4.93099
12
-0.866355
22
-2.4213
32
4.93099
13
-0.866355
23
-2.4213
33
4.93099
0
3DFACE
8
m_rifle
10
-0.866355
20
-2.4213
30
4.93099
11
-0.866355
21
-0.992653
31
5.66995
12
0.866362
22
-0.992653
32
5.66995
13
0.866362
23
-0.992653
33
5.66995
0
3DFACE
8
m_rifle
10
1.26867
20
-7.68274
30
-7.25059
11
1.26867
21
-4.37883
31
-3.95615
12
0.866362
22
-4.37915
32
-3.947
13
0.866362
23
-4.37915
33
-3.947
0
3DFACE
8
m_rifle
10
0.866362
20
-4.37915
30
-3.947
11
-0.866355
21
-4.37915
31
-3.947
12
1.26867
22
-7.68274
32
-7.25059
13
1.26867
23
-7.68274
33
-7.25059
0
3DFACE
8
m_rifle
10
-0.866355
20
-4.37915
30
-3.947
11
-1.26863
21
-4.37883
31
-3.95615
12
-1.26863
22
-7.68274
32
-7.25059
13
-1.26863
23
-7.68274
33
-7.25059
0
3DFACE
8
m_rifle
10
-1.26863
20
-7.68274
30
-7.25059
11
1.26867
21
-7.68274
31
-7.25059
12
-0.866355
22
-4.37915
32
-3.947
13
-0.866355
23
-4.37915
33
-3.947
0
3DFACE
8
m_rifle
10
-0.866355
20
2.39564
30
6.33695
11
-1.26863
21
2.39566
31
6.33693
12
-1.26863
22
2.39568
32
-3.95619
13
-1.26863
23
2.39568
33
-3.95619
0
3DFACE
8
m_rifle
10
-1.26863
20
2.39568
30
-3.95619
11
-0.866355
21
2.39564
31
-3.95615
12
-0.866355
22
2.39564
32
6.33695
13
-0.866355
23
2.39564
33
6.33695
0
3DFACE
8
m_rifle
10
-0.866355
20
2.39564
30
-3.95615
11
-1.26863
21
-4.37883
31
-3.95615
12
-0.866355
22
-4.37915
32
-3.947
13
-0.866355
23
-4.37915
33
-3.947
0
3DFACE
8
m_rifle
10
-0.866355
20
2.39564
30
-3.95615
11
-1.26865
21
-1.52243
31
-3.95615
12
-1.26863
22
-4.37883
32
-3.95615
13
-1.26863
23
-4.37883
33
-3.95615
0
3DFACE
8
m_rifle
10
-0.866355
20
2.39564
30
-3.95615
11
-1.26865
21
-0.0282252
31
-3.95615
12
-1.26865
22
-1.52243
32
-3.95615
13
-1.26865
23
-1.52243
33
-3.95615
0
3DFACE
8
m_rifle
10
-0.866355
20
2.39564
30
-3.95615
11
-1.26863
21
2.39568
31
-3.95619
12
-1.26865
22
-0.0282252
32
-3.95615
13
-1.26865
23
-0.0282252
33
-3.95615
0
3DFACE
8
m_rifle
10
-0.866355
20
-4.73806
30
6.33693
11
-1.26863
21
2.39566
31
6.33693
12
-0.866355
22
2.39564
32
6.33695
13
-0.866355
23
2.39564
33
6.33695
0
3DFACE
8
m_rifle
10
-0.866355
20
-4.73806
30
6.33693
11
-1.26865
21
0.830573
31
6.33695
12
-1.26863
22
2.39566
32
6.33693
13
-1.26863
23
2.39566
33
6.33693
0
3DFACE
8
m_rifle
10
-0.866355
20
-4.73806
30
6.33693
11
-1.26865
21
-0.724812
31
6.33694
12
-1.26865
22
0.830573
32
6.33695
13
-1.26865
23
0.830573
33
6.33695
0
3DFACE
8
m_rifle
10
-0.866355
20
-4.73806
30
6.33693
11
-1.26865
21
-1.75825
31
6.33694
12
-1.26865
22
-0.724812
32
6.33694
13
-1.26865
23
-0.724812
33
6.33694
0
3DFACE
8
m_rifle
10
-0.866355
20
-4.73806
30
6.33693
11
-1.26863
21
-4.73808
31
6.33695
12
-1.26865
22
-1.75825
32
6.33694
13
-1.26865
23
-1.75825
33
6.33694
0
3DFACE
8
m_rifle
10
-0.866355
20
-3.94847
30
-0.586525
11
-0.866355
21
-3.84984
31
3.16548
12
0.866362
22
-3.84994
32
3.1575
13
0.866362
23
-3.84994
33
3.1575
0
3DFACE
8
m_rifle
10
0.866362
20
-3.84994
30
3.1575
11
0.866362
21
-3.94847
31
-0.586525
12
-0.866355
22
-3.94847
32
-0.586525
13
-0.866355
23
-3.94847
33
-0.586525
0
3DFACE
8
m_rifle
10
-0.866355
20
-4.73806
30
6.33693
11
1.26866
21
-4.73808
31
13.178
12
-1.26863
22
-4.73808
32
13.178
13
-1.26863
23
-4.73808
33
13.178
0
3DFACE
8
m_rifle
10
-1.26863
20
-4.73808
30
13.178
11
-1.26863
21
-4.73808
31
6.33695
12
-0.866355
22
-4.73806
32
6.33693
13
-0.866355
23
-4.73806
33
6.33693
0
3DFACE
8
m_rifle
10
0.866362
20
-4.37915
30
-3.947
11
0.866362
21
-4.73801
31
6.33691
12
-0.866355
22
-4.73806
32
6.33693
13
-0.866355
23
-4.73806
33
6.33693
0
3DFACE
8
m_rifle
10
-0.866355
20
-4.73806
30
6.33693
11
-0.866355
21
-4.37915
31
-3.947
12
0.866362
22
-4.37915
32
-3.947
13
0.866362
23
-4.37915
33
-3.947
0
3DFACE
8
m_rifle
10
0.866362
20
-1.63308
30
-3.19749
11
-0.866355
21
-1.63308
31
-3.1975
12
-0.866355
22
-3.01246
32
-2.40928
13
-0.866355
23
-3.01246
33
-2.40928
0
3DFACE
8
m_rifle
10
-0.866355
20
-3.01246
30
-2.40928
11
0.866362
21
-3.01246
31
-2.40928
12
0.866362
22
-1.63308
32
-3.19749
13
0.866362
23
-1.63308
33
-3.19749
0
3DFACE
8
m_rifle
10
0.866362
20
0.58378
30
-2.06443
11
-0.866355
21
0.58378
31
-2.06443
12
-0.866355
22
-0.155174
32
-3.0497
13
-0.866355
23
-0.155174
33
-3.0497
0
3DFACE
8
m_rifle
10
-0.866355
20
-0.155174
30
-3.0497
11
0.866362
21
-0.155174
31
-3.0497
12
0.866362
22
0.58378
32
-2.06443
13
0.866362
23
0.58378
33
-2.06443
0
3DFACE
8
m_rifle
10
0.866362
20
-0.992653
30
5.66995
11
-0.866355
21
-0.992653
31
5.66995
12
-0.866355
22
0.633044
32
5.66995
13
-0.866355
23
0.633044
33
5.66995
0
3DFACE
8
m_rifle
10
-0.866355
20
0.633044
30
5.66995
11
0.866362
21
0.633045
31
5.66995
12
0.866362
22
-0.992653
32
5.66995
13
0.866362
23
-0.992653
33
5.66995
0
3DFACE
8
m_rifle
10
0.866362
20
-3.84994
30
3.1575
11
-0.866355
21
-3.84984
31
3.16548
12
-0.866355
22
-2.4213
32
4.93099
13
-0.866355
23
-2.4213
33
4.93099
0
3DFACE
8
m_rifle
10
-0.866355
20
-2.4213
30
4.93099
11
0.866362
21
-2.4213
31
4.93099
12
0.866362
22
-3.84994
32
3.1575
13
0.866362
23
-3.84994
33
3.1575
0
3DFACE
8
m_rifle
10
1.26866
20
2.99165
30
22.012
11
1.26866
21
5.20015
31
21.0918
12
-1.26863
22
5.20015
32
21.0918
13
-1.26863
23
5.20015
33
21.0918
0
3DFACE
8
m_rifle
10
-1.26863
20
5.20015
30
21.0918
11
-1.26863
21
2.99165
31
22.012
12
1.26866
22
2.99165
32
22.012
13
1.26866
23
2.99165
33
22.012
0
3DFACE
8
m_rifle
10
0.561349
20
-6.76253
30
23.6733
11
-1.26863
21
-6.76253
31
17.779
12
1.26866
22
-6.76253
32
17.779
13
1.26866
23
-6.76253
33
17.779
0
3DFACE
8
m_rifle
10
1.26866
20
-6.76253
30
17.779
11
1.26866
21
-6.76253
31
23.6733
12
0.561349
22
-6.76253
32
23.6733
13
0.561349
23
-6.76253
33
23.6733
0
3DFACE
8
m_rifle
10
1.26866
20
-12.0997
30
17.779
11
1.26866
21
-6.76253
31
17.779
12
-1.26863
22
-6.76253
32
17.779
13
-1.26863
23
-6.76253
33
17.779
0
3DFACE
8
m_rifle
10
-1.26863
20
-6.76253
30
17.779
11
-1.26863
21
-12.0997
31
17.779
12
1.26866
22
-12.0997
32
17.779
13
1.26866
23
-12.0997
33
17.779
0
3DFACE
8
m_rifle
10
1.26866
20
-4.73808
30
13.178
11
1.26866
21
-12.0997
31
13.178
12
-1.26863
22
-12.0997
32
13.178
13
-1.26863
23
-12.0997
33
13.178
0
3DFACE
8
m_rifle
10
-1.26863
20
-12.0997
30
13.178
11
-1.26863
21
-4.73808
31
13.178
12
1.26866
22
-4.73808
32
13.178
13
1.26866
23
-4.73808
33
13.178
0
3DFACE
8
m_rifle
10
1.26867
20
-13.204
30
-8.35483
11
1.26867
21
-7.68274
31
-7.25059
12
-1.26863
22
-7.68274
32
-7.25059
13
-1.26863
23
-7.68274
33
-7.25059
0
3DFACE
8
m_rifle
10
-1.26863
20
-7.68274
30
-7.25059
11
-1.26863
21
-13.204
31
-8.35483
12
1.26867
22
-13.204
32
-8.35483
13
1.26867
23
-13.204
33
-8.35483
0
3DFACE
8
m_rifle
10
1.26867
20
-15.2284
30
-10.7474
11
1.26867
21
-13.204
31
-8.35483
12
-1.26863
22
-13.204
32
-8.35483
13
-1.26863
23
-13.204
33
-8.35483
0
3DFACE
8
m_rifle
10
-1.26863
20
-13.204
30
-8.35483
11
-1.26863
21
-15.2284
31
-10.7474
12
1.26867
22
-15.2284
32
-10.7474
13
1.26867
23
-15.2284
33
-10.7474
0
3DFACE
8
m_rifle
10
1.26867
20
-11.5476
30
-15.7165
11
1.26867
21
-15.2284
31
-10.7474
12
-1.26863
22
-15.2284
32
-10.7474
13
-1.26863
23
-15.2284
33
-10.7474
0
3DFACE
8
m_rifle
10
-1.26863
20
-15.2284
30
-10.7474
11
-1.26863
21
-11.5476
31
-15.7165
12
1.26867
22
-11.5476
32
-15.7165
13
1.26867
23
-11.5476
33
-15.7165
0
3DFACE
8
m_rifle
10
1.26867
20
-8.23486
30
-16.0846
11
1.26867
21
-11.5476
31
-15.7165
12
-1.26863
22
-11.5476
32
-15.7165
13
-1.26863
23
-11.5476
33
-15.7165
0
3DFACE
8
m_rifle
10
-1.26863
20
-11.5476
30
-15.7165
11
-1.26863
21
-8.23486
31
-16.0846
12
1.26867
22
-8.23486
32
-16.0846
13
1.26867
23
-8.23486
33
-16.0846
0
3DFACE
8
m_rifle
10
1.26867
20
-4.37
30
-12.7718
11
1.26867
21
-8.23486
31
-16.0846
12
-1.26863
22
-8.23486
32
-16.0846
13
-1.26863
23
-8.23486
33
-16.0846
0
3DFACE
8
m_rifle
10
-1.26863
20
-8.23486
30
-16.0846
11
-1.26863
21
-4.37
31
-12.7718
12
1.26867
22
-4.37
32
-12.7718
13
1.26867
23
-4.37
33
-12.7718
0
3DFACE
8
m_rifle
10
1.26867
20
-0.50513
30
-10.9314
11
1.26867
21
-4.37
31
-12.7718
12
-1.26863
22
-4.37
32
-12.7718
13
-1.26863
23
-4.37
33
-12.7718
0
3DFACE
8
m_rifle
10
-1.26863
20
-4.37
30
-12.7718
11
-1.26863
21
-0.50513
31
-10.9314
12
1.26867
22
-0.50513
32
-10.9314
13
1.26867
23
-0.50513
33
-10.9314
0
3DFACE
8
m_rifle
10
1.26867
20
1.33528
30
-13.692
11
1.26867
21
-0.50513
31
-10.9314
12
-1.26863
22
-0.50513
32
-10.9314
13
-1.26863
23
-0.50513
33
-10.9314
0
3DFACE
8
m_rifle
10
-1.26863
20
-0.50513
30
-10.9314
11
-1.26863
21
1.33528
31
-13.692
12
1.26867
22
1.33528
32
-13.692
13
1.26867
23
1.33528
33
-13.692
0
3DFACE
8
m_rifle
10
1.26867
20
1.51932
30
-31.7281
11
1.26867
21
1.33528
31
-13.692
12
-1.26863
22
1.33528
32
-13.692
13
-1.26863
23
1.33528
33
-13.692
0
3DFACE
8
m_rifle
10
-1.26863
20
1.33528
30
-13.692
11
-1.26863
21
1.51932
31
-31.7281
12
1.26867
22
1.51932
32
-31.7281
13
1.26867
23
1.51932
33
-31.7281
0
3DFACE
8
m_rifle
10
1.26867
20
4.0959
30
-33.9366
11
1.26867
21
1.51932
31
-31.7281
12
-1.26863
22
1.51932
32
-31.7281
13
-1.26863
23
1.51932
33
-31.7281
0
3DFACE
8
m_rifle
10
-1.26863
20
1.51932
30
-31.7281
11
-1.26863
21
4.0959
31
-33.9366
12
1.26867
22
4.0959
32
-33.9366
13
1.26867
23
4.0959
33
-33.9366
0
3DFACE
8
m_rifle
10
8.23903e-006
20
9.22681
30
70.4874
11
0.918522
21
8.69651
31
70.4874
12
1.06062
22
9.22681
32
70.4874
13
1.06062
23
9.22681
33
70.4874
0
3DFACE
8
m_rifle
10
8.23903e-006
20
9.22681
30
70.4874
11
0.530312
21
8.3083
31
70.4874
12
0.918522
22
8.69651
32
70.4874
13
0.918522
23
8.69651
33
70.4874
0
3DFACE
8
m_rifle
10
8.23903e-006
20
9.22681
30
70.4874
11
8.37811e-006
21
8.16621
31
70.4874
12
0.530312
22
8.3083
32
70.4874
13
0.530312
23
8.3083
33
70.4874
0
3DFACE
8
m_rifle
10
8.23903e-006
20
9.22681
30
70.4874
11
-0.530296
21
8.3083
31
70.4874
12
8.37811e-006
22
8.16621
32
70.4874
13
8.37811e-006
23
8.16621
33
70.4874
0
3DFACE
8
m_rifle
10
8.23903e-006
20
9.22681
30
70.4874
11
-0.918505
21
8.69651
31
70.4874
12
-0.530296
22
8.3083
32
70.4874
13
-0.530296
23
8.3083
33
70.4874
0
3DFACE
8
m_rifle
10
8.23903e-006
20
9.22681
30
70.4874
11
-1.0606
21
9.22681
31
70.4874
12
-0.918505
22
8.69651
32
70.4874
13
-0.918505
23
8.69651
33
70.4874
0
3DFACE
8
m_rifle
10
8.23903e-006
20
9.22681
30
70.4874
11
-0.918505
21
9.75712
31
70.4874
12
-1.0606
22
9.22681
32
70.4874
13
-1.0606
23
9.22681
33
70.4874
0
3DFACE
8
m_rifle
10
8.23903e-006
20
9.22681
30
70.4874
11
-0.530296
21
10.1453
31
70.4874
12
-0.918505
22
9.75712
32
70.4874
13
-0.918505
23
9.75712
33
70.4874
0
3DFACE
8
m_rifle
10
8.23903e-006
20
9.22681
30
70.4874
11
8.19267e-006
21
10.2874
31
70.4874
12
-0.530296
22
10.1453
32
70.4874
13
-0.530296
23
10.1453
33
70.4874
0
3DFACE
8
m_rifle
10
8.23903e-006
20
9.22681
30
70.4874
11
0.530312
21
10.1453
31
70.4874
12
8.19267e-006
22
10.2874
32
70.4874
13
8.19267e-006
23
10.2874
33
70.4874
0
3DFACE
8
m_rifle
10
8.23903e-006
20
9.22681
30
70.4874
11
0.918522
21
9.75712
31
70.4874
12
0.530312
22
10.1453
32
70.4874
13
0.530312
23
10.1453
33
70.4874
0
3DFACE
8
m_rifle
10
8.23903e-006
20
9.22681
30
70.4874
11
1.06062
21
9.22681
31
70.4874
12
0.918522
22
9.75712
32
70.4874
13
0.918522
23
9.75712
33
70.4874
0
3DFACE
8
m_rifle
10
0.91852
20
8.6965
30
68.3925
11
1.06061
21
9.22681
31
68.3925
12
1.06062
22
9.22681
32
70.4874
13
1.06062
23
9.22681
33
70.4874
0
3DFACE
8
m_rifle
10
0.91852
20
8.6965
30
68.3925
11
1.06062
21
9.22681
31
70.4874
12
0.918522
22
8.69651
32
70.4874
13
0.918522
23
8.69651
33
70.4874
0
3DFACE
8
m_rifle
10
0.530311
20
8.3083
30
68.3925
11
0.91852
21
8.6965
31
68.3925
12
0.918522
22
8.69651
32
70.4874
13
0.918522
23
8.69651
33
70.4874
0
3DFACE
8
m_rifle
10
0.530311
20
8.3083
30
68.3925
11
0.918522
21
8.69651
31
70.4874
12
0.530312
22
8.3083
32
70.4874
13
0.530312
23
8.3083
33
70.4874
0
3DFACE
8
m_rifle
10
6.81821e-006
20
8.1662
30
68.3925
11
0.530311
21
8.3083
31
68.3925
12
0.530312
22
8.3083
32
70.4874
13
0.530312
23
8.3083
33
70.4874
0
3DFACE
8
m_rifle
10
6.81821e-006
20
8.1662
30
68.3925
11
0.530312
21
8.3083
31
70.4874
12
8.37811e-006
22
8.16621
32
70.4874
13
8.37811e-006
23
8.16621
33
70.4874
0
3DFACE
8
m_rifle
10
-0.530297
20
8.3083
30
68.3925
11
6.81821e-006
21
8.1662
31
68.3925
12
8.37811e-006
22
8.16621
32
70.4874
13
8.37811e-006
23
8.16621
33
70.4874
0
3DFACE
8
m_rifle
10
-0.530297
20
8.3083
30
68.3925
11
8.37811e-006
21
8.16621
31
70.4874
12
-0.530296
22
8.3083
32
70.4874
13
-0.530296
23
8.3083
33
70.4874
0
3DFACE
8
m_rifle
10
-0.918507
20
8.6965
30
68.3925
11
-0.530297
21
8.3083
31
68.3925
12
-0.530296
22
8.3083
32
70.4874
13
-0.530296
23
8.3083
33
70.4874
0
3DFACE
8
m_rifle
10
-0.918507
20
8.6965
30
68.3925
11
-0.530296
21
8.3083
31
70.4874
12
-0.918505
22
8.69651
32
70.4874
13
-0.918505
23
8.69651
33
70.4874
0
3DFACE
8
m_rifle
10
-1.0606
20
9.22681
30
68.3925
11
-0.918507
21
8.6965
31
68.3925
12
-0.918505
22
8.69651
32
70.4874
13
-0.918505
23
8.69651
33
70.4874
0
3DFACE
8
m_rifle
10
-1.0606
20
9.22681
30
68.3925
11
-0.918505
21
8.69651
31
70.4874
12
-1.0606
22
9.22681
32
70.4874
13
-1.0606
23
9.22681
33
70.4874
0
3DFACE
8
m_rifle
10
-0.918507
20
9.75711
30
68.3925
11
-1.0606
21
9.22681
31
68.3925
12
-1.0606
22
9.22681
32
70.4874
13
-1.0606
23
9.22681
33
70.4874
0
3DFACE
8
m_rifle
10
-0.918507
20
9.75711
30
68.3925
11
-1.0606
21
9.22681
31
70.4874
12
-0.918505
22
9.75712
32
70.4874
13
-0.918505
23
9.75712
33
70.4874
0
3DFACE
8
m_rifle
10
-0.530297
20
10.1453
30
68.3925
11
-0.918507
21
9.75711
31
68.3925
12
-0.918505
22
9.75712
32
70.4874
13
-0.918505
23
9.75712
33
70.4874
0
3DFACE
8
m_rifle
10
-0.530297
20
10.1453
30
68.3925
11
-0.918505
21
9.75712
31
70.4874
12
-0.530296
22
10.1453
32
70.4874
13
-0.530296
23
10.1453
33
70.4874
0
3DFACE
8
m_rifle
10
6.63276e-006
20
10.2874
30
68.3925
11
-0.530297
21
10.1453
31
68.3925
12
-0.530296
22
10.1453
32
70.4874
13
-0.530296
23
10.1453
33
70.4874
0
3DFACE
8
m_rifle
10
6.63276e-006
20
10.2874
30
68.3925
11
-0.530296
21
10.1453
31
70.4874
12
8.19267e-006
22
10.2874
32
70.4874
13
8.19267e-006
23
10.2874
33
70.4874
0
3DFACE
8
m_rifle
10
0.530311
20
10.1453
30
68.3925
11
6.63276e-006
21
10.2874
31
68.3925
12
8.19267e-006
22
10.2874
32
70.4874
13
8.19267e-006
23
10.2874
33
70.4874
0
3DFACE
8
m_rifle
10
0.530311
20
10.1453
30
68.3925
11
8.19267e-006
21
10.2874
31
70.4874
12
0.530312
22
10.1453
32
70.4874
13
0.530312
23
10.1453
33
70.4874
0
3DFACE
8
m_rifle
10
0.91852
20
9.75711
30
68.3925
11
0.530311
21
10.1453
31
68.3925
12
0.530312
22
10.1453
32
70.4874
13
0.530312
23
10.1453
33
70.4874
0
3DFACE
8
m_rifle
10
0.91852
20
9.75711
30
68.3925
11
0.530312
21
10.1453
31
70.4874
12
0.918522
22
9.75712
32
70.4874
13
0.918522
23
9.75712
33
70.4874
0
3DFACE
8
m_rifle
10
1.06061
20
9.22681
30
68.3925
11
0.91852
21
9.75711
31
68.3925
12
0.918522
22
9.75712
32
70.4874
13
0.918522
23
9.75712
33
70.4874
0
3DFACE
8
m_rifle
10
1.06061
20
9.22681
30
68.3925
11
0.918522
21
9.75712
31
70.4874
12
1.06062
22
9.22681
32
70.4874
13
1.06062
23
9.22681
33
70.4874
0
3DFACE
8
m_rifle
10
-0.917963
20
6.86522
30
68.292
11
-1.42225
21
4.82977
31
47.7805
12
-1.74656
22
2.8348
32
70.5252
13
-1.74656
23
2.8348
33
70.5252
0
3DFACE
8
m_rifle
10
-0.917963
20
6.86522
30
68.292
11
-1.42225
21
4.82977
31
44.6132
12
-1.42225
22
4.82977
32
47.7805
13
-1.42225
23
4.82977
33
47.7805
0
3DFACE
8
m_rifle
10
-0.917963
20
6.86522
30
68.292
11
-0.917963
21
6.86522
31
43.3133
12
-1.42225
22
4.82977
32
44.6132
13
-1.42225
23
4.82977
33
44.6132
0
3DFACE
8
m_rifle
10
-1.42225
20
4.82977
30
47.7805
11
-1.74656
21
2.83479
31
50.7398
12
-1.74656
22
2.8348
32
70.5252
13
-1.74656
23
2.8348
33
70.5252
0
3DFACE
8
m_rifle
10
0.917979
20
6.86522
30
68.292
11
1.74657
21
2.8348
31
70.5252
12
1.42226
22
4.82977
32
47.7805
13
1.42226
23
4.82977
33
47.7805
0
3DFACE
8
m_rifle
10
0.917979
20
6.86522
30
68.292
11
1.42226
21
4.82977
31
47.7805
12
1.42226
22
4.82977
32
44.6132
13
1.42226
23
4.82977
33
44.6132
0
3DFACE
8
m_rifle
10
0.917979
20
6.86522
30
68.292
11
1.42226
21
4.82977
31
44.6132
12
0.91798
22
6.86522
32
43.3133
13
0.91798
23
6.86522
33
43.3133
0
3DFACE
8
m_rifle
10
1.42226
20
4.82977
30
47.7805
11
1.74657
21
2.8348
31
70.5252
12
1.74657
22
2.83479
32
50.7398
13
1.74657
23
2.83479
33
50.7398
0
3DFACE
8
m_rifle
10
1.74657
20
2.8348
30
70.5252
11
-0.917963
21
6.86522
31
68.292
12
-1.74656
22
2.8348
32
70.5252
13
-1.74656
23
2.8348
33
70.5252
0
3DFACE
8
m_rifle
10
1.74657
20
2.8348
30
70.5252
11
0.917979
21
6.86522
31
68.292
12
-0.917963
22
6.86522
32
68.292
13
-0.917963
23
6.86522
33
68.292
0
3DFACE
8
m_rifle
10
1.42226
20
4.82977
30
47.7805
11
-1.74656
21
2.83479
31
50.7398
12
-1.42225
22
4.82977
32
47.7805
13
-1.42225
23
4.82977
33
47.7805
0
3DFACE
8
m_rifle
10
1.42226
20
4.82977
30
47.7805
11
1.74657
21
2.83479
31
50.7398
12
-1.74656
22
2.83479
32
50.7398
13
-1.74656
23
2.83479
33
50.7398
0
3DFACE
8
m_rifle
10
1.42226
20
4.82977
30
44.6132
11
-1.42225
21
4.82977
31
47.7805
12
-1.42225
22
4.82977
32
44.6132
13
-1.42225
23
4.82977
33
44.6132
0
3DFACE
8
m_rifle
10
1.42226
20
4.82977
30
44.6132
11
1.42226
21
4.82977
31
47.7805
12
-1.42225
22
4.82977
32
47.7805
13
-1.42225
23
4.82977
33
47.7805
0
3DFACE
8
m_rifle
10
-1.38024
20
1.7077
30
38.2301
11
-2.51205
21
5.04374
31
36.5061
12
2.51207
22
5.04374
32
36.5061
13
2.51207
23
5.04374
33
36.5061
0
3DFACE
8
m_rifle
10
2.51207
20
5.04374
30
36.5061
11
1.38026
21
1.7077
31
38.2301
12
-1.38024
22
1.7077
32
38.2301
13
-1.38024
23
1.7077
33
38.2301
0
3DFACE
8
m_rifle
10
-2.51205
20
5.04374
30
44.1594
11
-1.38024
21
1.7077
31
42.4353
12
1.38026
22
1.7077
32
42.4353
13
1.38026
23
1.7077
33
42.4353
0
3DFACE
8
m_rifle
10
1.38026
20
1.7077
30
42.4353
11
2.51207
21
5.04374
31
44.1594
12
-2.51205
22
5.04374
32
44.1594
13
-2.51205
23
5.04374
33
44.1594
0
3DFACE
8
m_rifle
10
-2.51205
20
5.04374
30
44.1594
11
-2.51205
21
5.04374
31
36.5061
12
-1.38024
22
1.7077
32
38.2301
13
-1.38024
23
1.7077
33
38.2301
0
3DFACE
8
m_rifle
10
-1.38024
20
1.7077
30
38.2301
11
-1.38024
21
1.7077
31
42.4353
12
-2.51205
22
5.04374
32
44.1594
13
-2.51205
23
5.04374
33
44.1594
0
3DFACE
8
m_rifle
10
2.51207
20
5.04374
30
44.1594
11
1.38026
21
1.7077
31
42.4353
12
1.38026
22
1.7077
32
38.2301
13
1.38026
23
1.7077
33
38.2301
0
3DFACE
8
m_rifle
10
1.38026
20
1.7077
30
38.2301
11
2.51207
21
5.04374
31
36.5061
12
2.51207
22
5.04374
32
44.1594
13
2.51207
23
5.04374
33
44.1594
0
3DFACE
8
m_rifle
10
0.298516
20
10.8934
30
-44.9717
11
0.298515
21
10.8934
31
-33.9555
12
0.298515
22
11.2735
32
-33.9365
13
0.298515
23
11.2735
33
-33.9365
0
3DFACE
8
m_rifle
10
0.298515
20
11.2735
30
-33.9365
11
0.298516
21
11.2735
31
-44.979
12
0.298516
22
10.8934
32
-44.9717
13
0.298516
23
10.8934
33
-44.9717
0
3DFACE
8
m_rifle
10
-0.298499
20
11.2735
30
-44.979
11
-0.2985
21
11.2735
31
-33.9365
12
-0.2985
22
10.8934
32
-33.9555
13
-0.2985
23
10.8934
33
-33.9555
0
3DFACE
8
m_rifle
10
-0.2985
20
10.8934
30
-33.9555
11
-0.298499
21
10.8934
31
-44.9717
12
-0.298499
22
11.2735
32
-44.979
13
-0.298499
23
11.2735
33
-44.979
0
3DFACE
8
m_rifle
10
-0.298499
20
10.8934
30
-44.9717
11
-0.2985
21
10.8934
31
-33.9555
12
0.298515
22
10.8934
32
-33.9555
13
0.298515
23
10.8934
33
-33.9555
0
3DFACE
8
m_rifle
10
0.298515
20
10.8934
30
-33.9555
11
0.298516
21
10.8934
31
-44.9717
12
-0.298499
22
10.8934
32
-44.9717
13
-0.298499
23
10.8934
33
-44.9717
0
3DFACE
8
m_rifle
10
-0.298499
20
11.2735
30
-44.979
11
-1.26865
21
11.2735
31
-44.4429
12
-0.2985
22
11.2735
32
-33.9365
13
-0.2985
23
11.2735
33
-33.9365
0
3DFACE
8
m_rifle
10
-1.26865
20
11.2735
30
-44.4429
11
-1.26865
21
11.2735
31
-33.9365
12
-0.2985
22
11.2735
32
-33.9365
13
-0.2985
23
11.2735
33
-33.9365
0
3DFACE
8
m_rifle
10
-0.298499
20
11.2735
30
-44.979
11
-0.732529
21
11.2735
31
-44.979
12
-1.26865
22
11.2735
32
-44.4429
13
-1.26865
23
11.2735
33
-44.4429
0
3DFACE
8
m_rifle
10
-0.298499
20
10.8934
30
-44.9717
11
-0.732529
21
11.2735
31
-44.979
12
-0.298499
22
11.2735
32
-44.979
13
-0.298499
23
11.2735
33
-44.979
0
3DFACE
8
m_rifle
10
-0.298499
20
10.8934
30
-44.9717
11
-1.10061
21
-7.86677
31
-44.6109
12
-0.732529
22
11.2735
32
-44.979
13
-0.732529
23
11.2735
33
-44.979
0
3DFACE
8
m_rifle
10
-0.298499
20
10.8934
30
-44.9717
11
1.10056
21
-7.86677
31
-44.6109
12
-1.10061
22
-7.86677
32
-44.6109
13
-1.10061
23
-7.86677
33
-44.6109
0
3DFACE
8
m_rifle
10
-0.298499
20
10.8934
30
-44.9717
11
0.298516
21
10.8934
31
-44.9717
12
1.10056
22
-7.86677
32
-44.6109
13
1.10056
23
-7.86677
33
-44.6109
0
3DFACE
8
m_rifle
10
0.298516
20
10.8934
30
-44.9717
11
0.732482
21
11.2735
31
-44.979
12
1.10056
22
-7.86677
32
-44.6109
13
1.10056
23
-7.86677
33
-44.6109
0
3DFACE
8
m_rifle
10
0.298516
20
10.8934
30
-44.9717
11
0.298516
21
11.2735
31
-44.979
12
0.732482
22
11.2735
32
-44.979
13
0.732482
23
11.2735
33
-44.979
0
3DFACE
8
m_rifle
10
1.10056
20
-7.86677
30
-44.6109
11
1.26866
21
5.75083
31
-44.4428
12
1.26867
22
-7.84575
32
-44.4428
13
1.26867
23
-7.84575
33
-44.4428
0
3DFACE
8
m_rifle
10
1.10056
20
-7.86677
30
-44.6109
11
1.26866
21
10.4692
31
-44.4428
12
1.26866
22
5.75083
32
-44.4428
13
1.26866
23
5.75083
33
-44.4428
0
3DFACE
8
m_rifle
10
1.10056
20
-7.86677
30
-44.6109
11
1.26866
21
11.0298
31
-44.4428
12
1.26866
22
10.4692
32
-44.4428
13
1.26866
23
10.4692
33
-44.4428
0
3DFACE
8
m_rifle
10
1.10056
20
-7.86677
30
-44.6109
11
1.26866
21
11.2735
31
-44.4428
12
1.26866
22
11.0298
32
-44.4428
13
1.26866
23
11.0298
33
-44.4428
0
3DFACE
8
m_rifle
10
1.10056
20
-7.86677
30
-44.6109
11
0.732482
21
11.2735
31
-44.979
12
1.26866
22
11.2735
32
-44.4428
13
1.26866
23
11.2735
33
-44.4428
0
3DFACE
8
m_rifle
10
1.26866
20
5.75083
30
-44.4428
11
1.26867
21
-7.68272
31
-43.1386
12
1.26867
22
-7.84575
32
-44.4428
13
1.26867
23
-7.84575
33
-44.4428
0
3DFACE
8
m_rifle
10
-0.732529
20
11.2735
30
-44.979
11
-1.26865
21
11.0298
31
-44.4429
12
-1.26865
22
11.2735
32
-44.4429
13
-1.26865
23
11.2735
33
-44.4429
0
3DFACE
8
m_rifle
10
-0.732529
20
11.2735
30
-44.979
11
-1.26865
21
10.4693
31
-44.4429
12
-1.26865
22
11.0298
32
-44.4429
13
-1.26865
23
11.0298
33
-44.4429
0
3DFACE
8
m_rifle
10
-0.732529
20
11.2735
30
-44.979
11
-1.26865
21
5.75148
31
-44.4429
12
-1.26865
22
10.4693
32
-44.4429
13
-1.26865
23
10.4693
33
-44.4429
0
3DFACE
8
m_rifle
10
-0.732529
20
11.2735
30
-44.979
11
-1.26865
21
-7.84576
31
-44.4429
12
-1.26865
22
5.75148
32
-44.4429
13
-1.26865
23
5.75148
33
-44.4429
0
3DFACE
8
m_rifle
10
-0.732529
20
11.2735
30
-44.979
11
-1.10061
21
-7.86677
31
-44.6109
12
-1.26865
22
-7.84576
32
-44.4429
13
-1.26865
23
-7.84576
33
-44.4429
0
3DFACE
8
m_rifle
10
-1.26865
20
-7.84576
30
-44.4429
11
-1.26865
21
-7.68272
31
-43.1386
12
-1.26865
22
5.75148
32
-44.4429
13
-1.26865
23
5.75148
33
-44.4429
0
3DFACE
8
m_rifle
10
-1.26865
20
7.5927
30
-36.8812
11
-1.26865
21
11.2735
31
-44.4429
12
-1.26865
22
11.0298
32
-44.4429
13
-1.26865
23
11.0298
33
-44.4429
0
3DFACE
8
m_rifle
10
-1.26865
20
7.5927
30
-36.8812
11
-1.26865
21
11.2735
31
-33.9365
12
-1.26865
22
11.2735
32
-44.4429
13
-1.26865
23
11.2735
33
-44.4429
0
3DFACE
8
m_rifle
10
-1.26865
20
7.5927
30
-36.8812
11
-1.26865
21
7.5927
31
-34.1206
12
-1.26865
22
11.2735
32
-33.9365
13
-1.26865
23
11.2735
33
-33.9365
0
3DFACE
8
m_rifle
10
-1.26865
20
7.5927
30
-36.8812
11
-1.26865
21
4.64804
31
-40.562
12
-1.26865
22
4.83208
32
-37.2493
13
-1.26865
23
4.83208
33
-37.2493
0
3DFACE
8
m_rifle
10
-1.26865
20
7.5927
30
-36.8812
11
-1.26865
21
10.4693
31
-44.4429
12
-1.26865
22
4.64804
32
-40.562
13
-1.26865
23
4.64804
33
-40.562
0
3DFACE
8
m_rifle
10
-1.26865
20
7.5927
30
-36.8812
11
-1.26865
21
11.0298
31
-44.4429
12
-1.26865
22
10.4693
32
-44.4429
13
-1.26865
23
10.4693
33
-44.4429
0
3DFACE
8
m_rifle
10
-1.26865
20
5.75148
30
-44.4429
11
-1.26865
21
4.64804
31
-40.562
12
-1.26865
22
10.4693
32
-44.4429
13
-1.26865
23
10.4693
33
-44.4429
0
3DFACE
8
m_rifle
10
-1.26865
20
5.75148
30
-44.4429
11
-1.26865
21
-7.49868
31
-40.562
12
-1.26865
22
4.64804
32
-40.562
13
-1.26865
23
4.64804
33
-40.562
0
3DFACE
8
m_rifle
10
-1.26865
20
5.75148
30
-44.4429
11
-1.26865
21
-7.68272
31
-43.1386
12
-1.26865
22
-7.49868
32
-40.562
13
-1.26865
23
-7.49868
33
-40.562
0
3DFACE
8
m_rifle
10
1.26866
20
4.64804
30
-40.562
11
1.26867
21
-7.68272
31
-43.1386
12
1.26866
22
10.4692
32
-44.4428
13
1.26866
23
10.4692
33
-44.4428
0
3DFACE
8
m_rifle
10
1.26867
20
-7.68272
30
-43.1386
11
1.26866
21
5.75083
31
-44.4428
12
1.26866
22
10.4692
32
-44.4428
13
1.26866
23
10.4692
33
-44.4428
0
3DFACE
8
m_rifle
10
1.26866
20
4.64804
30
-40.562
11
1.26867
21
-7.49868
31
-40.562
12
1.26867
22
-7.68272
32
-43.1386
13
1.26867
23
-7.68272
33
-43.1386
0
3DFACE
8
m_rifle
10
1.26866
20
4.64804
30
-40.562
11
1.26866
21
7.5927
31
-36.8812
12
1.26866
22
4.83208
32
-37.2493
13
1.26866
23
4.83208
33
-37.2493
0
3DFACE
8
m_rifle
10
1.26866
20
4.64804
30
-40.562
11
1.26866
21
11.0298
31
-44.4428
12
1.26866
22
7.5927
32
-36.8812
13
1.26866
23
7.5927
33
-36.8812
0
3DFACE
8
m_rifle
10
1.26866
20
4.64804
30
-40.562
11
1.26866
21
10.4692
31
-44.4428
12
1.26866
22
11.0298
32
-44.4428
13
1.26866
23
11.0298
33
-44.4428
0
3DFACE
8
m_rifle
10
1.26866
20
7.5927
30
-36.8812
11
1.26866
21
11.2735
31
-33.9365
12
1.26866
22
7.5927
32
-34.1206
13
1.26866
23
7.5927
33
-34.1206
0
3DFACE
8
m_rifle
10
1.26866
20
7.5927
30
-36.8812
11
1.26866
21
11.2735
31
-44.4428
12
1.26866
22
11.2735
32
-33.9365
13
1.26866
23
11.2735
33
-33.9365
0
3DFACE
8
m_rifle
10
1.26866
20
7.5927
30
-36.8812
11
1.26866
21
11.0298
31
-44.4428
12
1.26866
22
11.2735
32
-44.4428
13
1.26866
23
11.2735
33
-44.4428
0
3DFACE
8
m_rifle
10
0.298515
20
11.2735
30
-33.9365
11
1.26866
21
11.2735
31
-33.9365
12
0.298516
22
11.2735
32
-44.979
13
0.298516
23
11.2735
33
-44.979
0
3DFACE
8
m_rifle
10
1.26866
20
11.2735
30
-33.9365
11
1.26866
21
11.2735
31
-44.4428
12
0.298516
22
11.2735
32
-44.979
13
0.298516
23
11.2735
33
-44.979
0
3DFACE
8
m_rifle
10
1.26866
20
11.2735
30
-44.4428
11
0.732482
21
11.2735
31
-44.979
12
0.298516
22
11.2735
32
-44.979
13
0.298516
23
11.2735
33
-44.979
0
3DFACE
8
m_rifle
10
1.26866
20
7.5927
30
-36.8812
11
1.26866
21
7.5927
31
-34.1206
12
-1.26865
22
7.5927
32
-34.1206
13
-1.26865
23
7.5927
33
-34.1206
0
3DFACE
8
m_rifle
10
-1.26865
20
7.5927
30
-34.1206
11
-1.26865
21
7.5927
31
-36.8812
12
1.26866
22
7.5927
32
-36.8812
13
1.26866
23
7.5927
33
-36.8812
0
3DFACE
8
m_rifle
10
1.26866
20
4.83208
30
-37.2493
11
1.26866
21
7.5927
31
-36.8812
12
-1.26865
22
7.5927
32
-36.8812
13
-1.26865
23
7.5927
33
-36.8812
0
3DFACE
8
m_rifle
10
-1.26865
20
7.5927
30
-36.8812
11
-1.26865
21
4.83208
31
-37.2493
12
1.26866
22
4.83208
32
-37.2493
13
1.26866
23
4.83208
33
-37.2493
0
3DFACE
8
m_rifle
10
1.26866
20
4.64804
30
-40.562
11
1.26866
21
4.83208
31
-37.2493
12
-1.26865
22
4.83208
32
-37.2493
13
-1.26865
23
4.83208
33
-37.2493
0
3DFACE
8
m_rifle
10
-1.26865
20
4.83208
30
-37.2493
11
-1.26865
21
4.64804
31
-40.562
12
1.26866
22
4.64804
32
-40.562
13
1.26866
23
4.64804
33
-40.562
0
3DFACE
8
m_rifle
10
1.26867
20
-7.49868
30
-40.562
11
1.26866
21
4.64804
31
-40.562
12
-1.26865
22
4.64804
32
-40.562
13
-1.26865
23
4.64804
33
-40.562
0
3DFACE
8
m_rifle
10
-1.26865
20
4.64804
30
-40.562
11
-1.26865
21
-7.49868
31
-40.562
12
1.26867
22
-7.49868
32
-40.562
13
1.26867
23
-7.49868
33
-40.562
0
3DFACE
8
m_rifle
10
1.26867
20
-7.68272
30
-43.1386
11
1.26867
21
-7.49868
31
-40.562
12
-1.26865
22
-7.49868
32
-40.562
13
-1.26865
23
-7.49868
33
-40.562
0
3DFACE
8
m_rifle
10
-1.26865
20
-7.49868
30
-40.562
11
-1.26865
21
-7.68272
31
-43.1386
12
1.26867
22
-7.68272
32
-43.1386
13
1.26867
23
-7.68272
33
-43.1386
0
3DFACE
8
m_rifle
10
1.10056
20
-7.86677
30
-44.6109
11
-1.26865
21
-7.84576
31
-44.4429
12
-1.10061
22
-7.86677
32
-44.6109
13
-1.10061
23
-7.86677
33
-44.6109
0
3DFACE
8
m_rifle
10
1.10056
20
-7.86677
30
-44.6109
11
1.26867
21
-7.68272
31
-43.1386
12
-1.26865
22
-7.84576
32
-44.4429
13
-1.26865
23
-7.84576
33
-44.4429
0
3DFACE
8
m_rifle
10
1.26867
20
-7.68272
30
-43.1386
11
-1.26865
21
-7.68272
31
-43.1386
12
-1.26865
22
-7.84576
32
-44.4429
13
-1.26865
23
-7.84576
33
-44.4429
0
3DFACE
8
m_rifle
10
1.10056
20
-7.86677
30
-44.6109
11
1.26867
21
-7.84575
31
-44.4428
12
1.26867
22
-7.68272
32
-43.1386
13
1.26867
23
-7.68272
33
-43.1386
0
3DFACE
8
m_rifle
10
5.66656e-006
20
0.931545
30
21.3038
11
-2.50242
21
-0.513231
31
21.3038
12
-2.88955
22
0.931545
32
21.3038
13
-2.88955
23
0.931545
33
21.3038
0
3DFACE
8
m_rifle
10
5.66656e-006
20
0.931545
30
21.3038
11
-1.44477
21
-1.57088
31
21.3038
12
-2.50242
22
-0.513231
32
21.3038
13
-2.50242
23
-0.513231
33
21.3038
0
3DFACE
8
m_rifle
10
5.66656e-006
20
0.931545
30
21.3038
11
5.28765e-006
21
-1.95801
31
21.3039
12
-1.44477
22
-1.57088
32
21.3038
13
-1.44477
23
-1.57088
33
21.3038
0
3DFACE
8
m_rifle
10
5.66656e-006
20
0.931545
30
21.3038
11
1.44478
21
-1.57088
31
21.3039
12
5.28765e-006
22
-1.95801
32
21.3039
13
5.28765e-006
23
-1.95801
33
21.3039
0
3DFACE
8
m_rifle
10
5.66656e-006
20
0.931545
30
21.3038
11
2.50243
21
-0.513232
31
21.3038
12
1.44478
22
-1.57088
32
21.3039
13
1.44478
23
-1.57088
33
21.3039
0
3DFACE
8
m_rifle
10
5.66656e-006
20
0.931545
30
21.3038
11
2.88956
21
0.931544
31
21.3038
12
2.50243
22
-0.513232
32
21.3038
13
2.50243
23
-0.513232
33
21.3038
0
3DFACE
8
m_rifle
10
5.66656e-006
20
0.931545
30
21.3038
11
2.50243
21
2.37632
31
21.3038
12
2.88956
22
0.931544
32
21.3038
13
2.88956
23
0.931544
33
21.3038
0
3DFACE
8
m_rifle
10
5.66656e-006
20
0.931545
30
21.3038
11
1.44478
21
3.43397
31
21.3038
12
2.50243
22
2.37632
32
21.3038
13
2.50243
23
2.37632
33
21.3038
0
3DFACE
8
m_rifle
10
5.66656e-006
20
0.931545
30
21.3038
11
5.79287e-006
21
3.8211
31
21.3038
12
1.44478
22
3.43397
32
21.3038
13
1.44478
23
3.43397
33
21.3038
0
3DFACE
8
m_rifle
10
5.66656e-006
20
0.931545
30
21.3038
11
-1.44477
21
3.43397
31
21.3038
12
5.79287e-006
22
3.8211
32
21.3038
13
5.79287e-006
23
3.8211
33
21.3038
0
3DFACE
8
m_rifle
10
5.66656e-006
20
0.931545
30
21.3038
11
-2.50242
21
2.37632
31
21.3038
12
-1.44477
22
3.43397
32
21.3038
13
-1.44477
23
3.43397
33
21.3038
0
3DFACE
8
m_rifle
10
5.66656e-006
20
0.931545
30
21.3038
11
-2.88955
21
0.931545
31
21.3038
12
-2.50242
22
2.37632
32
21.3038
13
-2.50242
23
2.37632
33
21.3038
0
3DFACE
8
m_rifle
10
-2.50241
20
-0.51324
30
46.3113
11
-2.88954
21
0.931535
31
46.3113
12
-2.88955
22
0.931545
32
21.3038
13
-2.88955
23
0.931545
33
21.3038
0
3DFACE
8
m_rifle
10
-2.50241
20
-0.51324
30
46.3113
11
-2.88955
21
0.931545
31
21.3038
12
-2.50242
22
-0.513231
32
21.3038
13
-2.50242
23
-0.513231
33
21.3038
0
3DFACE
8
m_rifle
10
-1.44476
20
-1.57089
30
46.3113
11
-2.50241
21
-0.51324
31
46.3113
12
-2.50242
22
-0.513231
32
21.3038
13
-2.50242
23
-0.513231
33
21.3038
0
3DFACE
8
m_rifle
10
-1.44476
20
-1.57089
30
46.3113
11
-2.50242
21
-0.513231
31
21.3038
12
-1.44477
22
-1.57088
32
21.3038
13
-1.44477
23
-1.57088
33
21.3038
0
3DFACE
8
m_rifle
10
1.24699e-005
20
-1.95802
30
46.3113
11
-1.44476
21
-1.57089
31
46.3113
12
-1.44477
22
-1.57088
32
21.3038
13
-1.44477
23
-1.57088
33
21.3038
0
3DFACE
8
m_rifle
10
1.24699e-005
20
-1.95802
30
46.3113
11
-1.44477
21
-1.57088
31
21.3038
12
5.28765e-006
22
-1.95801
32
21.3039
13
5.28765e-006
23
-1.95801
33
21.3039
0
3DFACE
8
m_rifle
10
1.44479
20
-1.57089
30
46.3113
11
1.24699e-005
21
-1.95802
31
46.3113
12
5.28765e-006
22
-1.95801
32
21.3039
13
5.28765e-006
23
-1.95801
33
21.3039
0
3DFACE
8
m_rifle
10
1.44479
20
-1.57089
30
46.3113
11
5.28765e-006
21
-1.95801
31
21.3039
12
1.44478
22
-1.57088
32
21.3039
13
1.44478
23
-1.57088
33
21.3039
0
3DFACE
8
m_rifle
10
2.50244
20
-0.513241
30
46.3113
11
1.44479
21
-1.57089
31
46.3113
12
1.44478
22
-1.57088
32
21.3039
13
1.44478
23
-1.57088
33
21.3039
0
3DFACE
8
m_rifle
10
2.50244
20
-0.513241
30
46.3113
11
1.44478
21
-1.57088
31
21.3039
12
2.50243
22
-0.513232
32
21.3038
13
2.50243
23
-0.513232
33
21.3038
0
3DFACE
8
m_rifle
10
2.88956
20
0.931535
30
46.3113
11
2.50244
21
-0.513241
31
46.3113
12
2.50243
22
-0.513232
32
21.3038
13
2.50243
23
-0.513232
33
21.3038
0
3DFACE
8
m_rifle
10
2.88956
20
0.931535
30
46.3113
11
2.50243
21
-0.513232
31
21.3038
12
2.88956
22
0.931544
32
21.3038
13
2.88956
23
0.931544
33
21.3038
0
3DFACE
8
m_rifle
10
2.50244
20
2.37631
30
46.3113
11
2.88956
21
0.931535
31
46.3113
12
2.88956
22
0.931544
32
21.3038
13
2.88956
23
0.931544
33
21.3038
0
3DFACE
8
m_rifle
10
2.50244
20
2.37631
30
46.3113
11
2.88956
21
0.931544
31
21.3038
12
2.50243
22
2.37632
32
21.3038
13
2.50243
23
2.37632
33
21.3038
0
3DFACE
8
m_rifle
10
1.44479
20
3.43396
30
46.3113
11
2.50244
21
2.37631
31
46.3113
12
2.50243
22
2.37632
32
21.3038
13
2.50243
23
2.37632
33
21.3038
0
3DFACE
8
m_rifle
10
1.44479
20
3.43396
30
46.3113
11
2.50243
21
2.37632
31
21.3038
12
1.44478
22
3.43397
32
21.3038
13
1.44478
23
3.43397
33
21.3038
0
3DFACE
8
m_rifle
10
1.29751e-005
20
3.82109
30
46.3113
11
1.44479
21
3.43396
31
46.3113
12
1.44478
22
3.43397
32
21.3038
13
1.44478
23
3.43397
33
21.3038
0
3DFACE
8
m_rifle
10
1.29751e-005
20
3.82109
30
46.3113
11
1.44478
21
3.43397
31
21.3038
12
5.79287e-006
22
3.8211
32
21.3038
13
5.79287e-006
23
3.8211
33
21.3038
0
3DFACE
8
m_rifle
10
-1.44476
20
3.43396
30
46.3113
11
1.29751e-005
21
3.82109
31
46.3113
12
5.79287e-006
22
3.8211
32
21.3038
13
5.79287e-006
23
3.8211
33
21.3038
0
3DFACE
8
m_rifle
10
-1.44476
20
3.43396
30
46.3113
11
5.79287e-006
21
3.8211
31
21.3038
12
-1.44477
22
3.43397
32
21.3038
13
-1.44477
23
3.43397
33
21.3038
0
3DFACE
8
m_rifle
10
-2.50241
20
2.37631
30
46.3113
11
-1.44476
21
3.43396
31
46.3113
12
-1.44477
22
3.43397
32
21.3038
13
-1.44477
23
3.43397
33
21.3038
0
3DFACE
8
m_rifle
10
-2.50241
20
2.37631
30
46.3113
11
-1.44477
21
3.43397
31
21.3038
12
-2.50242
22
2.37632
32
21.3038
13
-2.50242
23
2.37632
33
21.3038
0
3DFACE
8
m_rifle
10
-2.88954
20
0.931535
30
46.3113
11
-2.50241
21
2.37631
31
46.3113
12
-2.50242
22
2.37632
32
21.3038
13
-2.50242
23
2.37632
33
21.3038
0
3DFACE
8
m_rifle
10
-2.88954
20
0.931535
30
46.3113
11
-2.50242
21
2.37632
31
21.3038
12
-2.88955
22
0.931545
32
21.3038
13
-2.88955
23
0.931545
33
21.3038
0
3DFACE
8
m_rifle
10
9.37788e-006
20
8.08618
30
68.5954
11
2.06813
21
6.84204
31
68.5954
12
2.38807
22
8.08618
32
68.5954
13
2.38807
23
8.08618
33
68.5954
0
3DFACE
8
m_rifle
10
9.37788e-006
20
8.08618
30
68.5954
11
1.19404
21
5.68821
31
68.5954
12
2.06813
22
6.84204
32
68.5954
13
2.06813
23
6.84204
33
68.5954
0
3DFACE
8
m_rifle
10
9.37788e-006
20
8.08618
30
68.5954
11
9.69103e-006
21
5.35646
31
68.5954
12
1.19404
22
5.68821
32
68.5954
13
1.19404
23
5.68821
33
68.5954
0
3DFACE
8
m_rifle
10
9.37788e-006
20
8.08618
30
68.5954
11
-1.19402
21
5.68821
31
68.5954
12
9.69103e-006
22
5.35646
32
68.5954
13
9.69103e-006
23
5.35646
33
68.5954
0
3DFACE
8
m_rifle
10
9.37788e-006
20
8.08618
30
68.5954
11
-2.06811
21
6.84204
31
68.5954
12
-1.19402
22
5.68821
32
68.5954
13
-1.19402
23
5.68821
33
68.5954
0
3DFACE
8
m_rifle
10
9.37788e-006
20
8.08618
30
68.5954
11
-2.38805
21
8.08618
31
68.5954
12
-2.06811
22
6.84204
32
68.5954
13
-2.06811
23
6.84204
33
68.5954
0
3DFACE
8
m_rifle
10
9.37788e-006
20
8.08618
30
68.5954
11
-2.06811
21
9.4956
31
68.5954
12
-2.38805
22
8.08618
32
68.5954
13
-2.38805
23
8.08618
33
68.5954
0
3DFACE
8
m_rifle
10
9.37788e-006
20
8.08618
30
68.5954
11
-1.19402
21
10.5497
31
68.5954
12
-2.06811
22
9.4956
32
68.5954
13
-2.06811
23
9.4956
33
68.5954
0
3DFACE
8
m_rifle
10
9.37788e-006
20
8.08618
30
68.5954
11
9.27349e-006
21
10.8697
31
68.5954
12
-1.19402
22
10.5497
32
68.5954
13
-1.19402
23
10.5497
33
68.5954
0
3DFACE
8
m_rifle
10
9.37788e-006
20
8.08618
30
68.5954
11
1.19404
21
10.5497
31
68.5954
12
9.27349e-006
22
10.8697
32
68.5954
13
9.27349e-006
23
10.8697
33
68.5954
0
3DFACE
8
m_rifle
10
9.37788e-006
20
8.08618
30
68.5954
11
2.06813
21
9.4956
31
68.5954
12
1.19404
22
10.5497
32
68.5954
13
1.19404
23
10.5497
33
68.5954
0
3DFACE
8
m_rifle
10
9.37788e-006
20
8.08618
30
68.5954
11
2.38807
21
8.08618
31
68.5954
12
2.06813
22
9.4956
32
68.5954
13
2.06813
23
9.4956
33
68.5954
0
3DFACE
8
m_rifle
10
2.06813
20
6.84203
30
-17.1514
11
2.38807
21
8.08617
31
-17.1514
12
2.38807
22
8.08618
32
68.5954
13
2.38807
23
8.08618
33
68.5954
0
3DFACE
8
m_rifle
10
2.06813
20
6.84203
30
-17.1514
11
2.38807
21
8.08618
31
68.5954
12
2.06813
22
6.84204
32
68.5954
13
2.06813
23
6.84204
33
68.5954
0
3DFACE
8
m_rifle
10
1.19404
20
5.6882
30
-17.1514
11
2.06813
21
6.84203
31
-17.1514
12
2.06813
22
6.84204
32
68.5954
13
2.06813
23
6.84204
33
68.5954
0
3DFACE
8
m_rifle
10
1.19404
20
5.6882
30
-17.1514
11
2.06813
21
6.84204
31
68.5954
12
1.19404
22
5.68821
32
68.5954
13
1.19404
23
5.68821
33
68.5954
0
3DFACE
8
m_rifle
10
9.7207e-006
20
5.35645
30
-17.1514
11
1.19404
21
5.6882
31
-17.1514
12
1.19404
22
5.68821
32
68.5954
13
1.19404
23
5.68821
33
68.5954
0
3DFACE
8
m_rifle
10
9.7207e-006
20
5.35645
30
-17.1514
11
1.19404
21
5.68821
31
68.5954
12
9.69103e-006
22
5.35646
32
68.5954
13
9.69103e-006
23
5.35646
33
68.5954
0
3DFACE
8
m_rifle
10
-1.19402
20
5.6882
30
-17.1514
11
9.7207e-006
21
5.35645
31
-17.1514
12
9.69103e-006
22
5.35646
32
68.5954
13
9.69103e-006
23
5.35646
33
68.5954
0
3DFACE
8
m_rifle
10
-1.19402
20
5.6882
30
-17.1514
11
9.69103e-006
21
5.35646
31
68.5954
12
-1.19402
22
5.68821
32
68.5954
13
-1.19402
23
5.68821
33
68.5954
0
3DFACE
8
m_rifle
10
-2.06811
20
6.84203
30
-17.1514
11
-1.19402
21
5.6882
31
-17.1514
12
-1.19402
22
5.68821
32
68.5954
13
-1.19402
23
5.68821
33
68.5954
0
3DFACE
8
m_rifle
10
-2.06811
20
6.84203
30
-17.1514
11
-1.19402
21
5.68821
31
68.5954
12
-2.06811
22
6.84204
32
68.5954
13
-2.06811
23
6.84204
33
68.5954
0
3DFACE
8
m_rifle
10
-2.38805
20
8.08617
30
-17.1514
11
-2.06811
21
6.84203
31
-17.1514
12
-2.06811
22
6.84204
32
68.5954
13
-2.06811
23
6.84204
33
68.5954
0
3DFACE
8
m_rifle
10
-2.38805
20
8.08617
30
-17.1514
11
-2.06811
21
6.84204
31
68.5954
12
-2.38805
22
8.08618
32
68.5954
13
-2.38805
23
8.08618
33
68.5954
0
3DFACE
8
m_rifle
10
-2.06811
20
9.49559
30
-17.1514
11
-2.38805
21
8.08617
31
-17.1514
12
-2.38805
22
8.08618
32
68.5954
13
-2.38805
23
8.08618
33
68.5954
0
3DFACE
8
m_rifle
10
-2.06811
20
9.49559
30
-17.1514
11
-2.38805
21
8.08618
31
68.5954
12
-2.06811
22
9.4956
32
68.5954
13
-2.06811
23
9.4956
33
68.5954
0
3DFACE
8
m_rifle
10
-1.19402
20
10.5497
30
-17.1514
11
-2.06811
21
9.49559
31
-17.1514
12
-2.06811
22
9.4956
32
68.5954
13
-2.06811
23
9.4956
33
68.5954
0
3DFACE
8
m_rifle
10
-1.19402
20
10.5497
30
-17.1514
11
-2.06811
21
9.4956
31
68.5954
12
-1.19402
22
10.5497
32
68.5954
13
-1.19402
23
10.5497
33
68.5954
0
3DFACE
8
m_rifle
10
9.30316e-006
20
10.8697
30
-17.1514
11
-1.19402
21
10.5497
31
-17.1514
12
-1.19402
22
10.5497
32
68.5954
13
-1.19402
23
10.5497
33
68.5954
0
3DFACE
8
m_rifle
10
9.30316e-006
20
10.8697
30
-17.1514
11
-1.19402
21
10.5497
31
68.5954
12
9.27349e-006
22
10.8697
32
68.5954
13
9.27349e-006
23
10.8697
33
68.5954
0
3DFACE
8
m_rifle
10
1.19404
20
10.5497
30
-17.1514
11
9.30316e-006
21
10.8697
31
-17.1514
12
9.27349e-006
22
10.8697
32
68.5954
13
9.27349e-006
23
10.8697
33
68.5954
0
3DFACE
8
m_rifle
10
1.19404
20
10.5497
30
-17.1514
11
9.27349e-006
21
10.8697
31
68.5954
12
1.19404
22
10.5497
32
68.5954
13
1.19404
23
10.5497
33
68.5954
0
3DFACE
8
m_rifle
10
2.06813
20
9.49559
30
-17.1514
11
1.19404
21
10.5497
31
-17.1514
12
1.19404
22
10.5497
32
68.5954
13
1.19404
23
10.5497
33
68.5954
0
3DFACE
8
m_rifle
10
2.06813
20
9.49559
30
-17.1514
11
1.19404
21
10.5497
31
68.5954
12
2.06813
22
9.4956
32
68.5954
13
2.06813
23
9.4956
33
68.5954
0
3DFACE
8
m_rifle
10
2.38807
20
8.08617
30
-17.1514
11
2.06813
21
9.49559
31
-17.1514
12
2.06813
22
9.4956
32
68.5954
13
2.06813
23
9.4956
33
68.5954
0
3DFACE
8
m_rifle
10
2.38807
20
8.08617
30
-17.1514
11
2.06813
21
9.4956
31
68.5954
12
2.38807
22
8.08618
32
68.5954
13
2.38807
23
8.08618
33
68.5954
0
3DFACE
8
m_rifle
10
-0.298499
20
-1.33594
30
-0.446208
11
-0.298499
21
0.612251
31
-1.58516
12
-0.298499
22
-1.45583
32
-1.1056
13
-0.298499
23
-1.45583
33
-1.1056
0
3DFACE
8
m_rifle
10
-0.298499
20
-1.33594
30
-0.446208
11
-0.298499
21
0.732141
31
-0.146484
12
-0.298499
22
0.612251
32
-1.58516
13
-0.298499
23
0.612251
33
-1.58516
0
3DFACE
8
m_rifle
10
-0.298499
20
-1.45583
30
-1.1056
11
-0.298499
21
-3.16424
31
-0.266377
12
-0.298499
22
-1.33594
32
-0.446208
13
-0.298499
23
-1.33594
33
-0.446208
0
3DFACE
8
m_rifle
10
0.298516
20
-1.33594
30
-0.446208
11
0.298516
21
-1.45583
31
-1.1056
12
0.298516
22
0.612251
32
-1.58516
13
0.298516
23
0.612251
33
-1.58516
0
3DFACE
8
m_rifle
10
0.298516
20
-1.33594
30
-0.446208
11
0.298516
21
0.612251
31
-1.58516
12
0.298516
22
0.732141
32
-0.146484
13
0.298516
23
0.732141
33
-0.146484
0
3DFACE
8
m_rifle
10
0.298516
20
-1.45583
30
-1.1056
11
0.298516
21
-1.33594
31
-0.446208
12
0.298516
22
-3.16424
32
-0.266377
13
0.298516
23
-3.16424
33
-0.266377
0
3DFACE
8
m_rifle
10
0.298516
20
-1.33594
30
-0.446208
11
-0.298499
21
0.732141
31
-0.146484
12
-0.298499
22
-1.33594
32
-0.446208
13
-0.298499
23
-1.33594
33
-0.446208
0
3DFACE
8
m_rifle
10
0.298516
20
-1.33594
30
-0.446208
11
0.298516
21
0.732141
31
-0.146484
12
-0.298499
22
0.732141
32
-0.146484
13
-0.298499
23
0.732141
33
-0.146484
0
3DFACE
8
m_rifle
10
0.298516
20
-3.16424
30
-0.266377
11
-0.298499
21
-1.33594
31
-0.446208
12
-0.298499
22
-3.16424
32
-0.266377
13
-0.298499
23
-3.16424
33
-0.266377
0
3DFACE
8
m_rifle
10
0.298516
20
-3.16424
30
-0.266377
11
0.298516
21
-1.33594
31
-0.446208
12
-0.298499
22
-1.33594
32
-0.446208
13
-0.298499
23
-1.33594
33
-0.446208
0
3DFACE
8
m_rifle
10
0.298516
20
-1.45583
30
-1.1056
11
-0.298499
21
-3.16424
31
-0.266377
12
-0.298499
22
-1.45583
32
-1.1056
13
-0.298499
23
-1.45583
33
-1.1056
0
3DFACE
8
m_rifle
10
0.298516
20
-1.45583
30
-1.1056
11
0.298516
21
-3.16424
31
-0.266377
12
-0.298499
22
-3.16424
32
-0.266377
13
-0.298499
23
-3.16424
33
-0.266377
0
3DFACE
8
m_rifle
10
0.298516
20
0.612251
30
-1.58516
11
-0.298499
21
-1.45583
31
-1.1056
12
-0.298499
22
0.612251
32
-1.58516
13
-0.298499
23
0.612251
33
-1.58516
0
3DFACE
8
m_rifle
10
0.298516
20
0.612251
30
-1.58516
11
0.298516
21
-1.45583
31
-1.1056
12
-0.298499
22
-1.45583
32
-1.1056
13
-0.298499
23
-1.45583
33
-1.1056
0
3DFACE
8
m_rifle
10
-1.79104
20
-3.09075
30
5.50784
11
-1.79104
21
-7.23018
31
13.4521
12
-1.79104
22
-1.65989
32
6.25887
13
-1.79104
23
-1.65989
33
6.25887
0
3DFACE
8
m_rifle
10
-1.79104
20
-7.23018
30
13.4521
11
-1.79104
21
-6.00069
31
14.6816
12
-1.79104
22
-1.65989
32
6.25887
13
-1.79104
23
-1.65989
33
6.25887
0
3DFACE
8
m_rifle
10
-1.79104
20
-6.00069
30
14.6816
11
-1.79104
21
-1.19452
31
14.6816
12
-1.79104
22
-1.65989
32
6.25887
13
-1.79104
23
-1.65989
33
6.25887
0
3DFACE
8
m_rifle
10
-1.79104
20
-3.09075
30
5.50784
11
-1.79104
21
-4.50547
31
3.7566
12
-1.79104
22
-7.23018
32
13.4521
13
-1.79104
23
-7.23018
33
13.4521
0
3DFACE
8
m_rifle
10
-1.79104
20
-4.50547
30
3.7566
11
-1.79104
21
-10.9186
31
13.4521
12
-1.79104
22
-7.23018
32
13.4521
13
-1.79104
23
-7.23018
33
13.4521
0
3DFACE
8
m_rifle
10
-1.79104
20
-4.50547
30
3.7566
11
-1.79104
21
-21.5369
31
3.50445
12
-1.79104
22
-10.9186
32
13.4521
13
-1.79104
23
-10.9186
33
13.4521
0
3DFACE
8
m_rifle
10
-1.79104
20
-21.5369
30
3.50445
11
-1.79104
21
-21.5369
31
14.1227
12
-1.79104
22
-10.9186
32
13.4521
13
-1.79104
23
-10.9186
33
13.4521
0
3DFACE
8
m_rifle
10
-1.79104
20
-21.5369
30
14.1227
11
-1.79104
21
-10.9186
31
17.4759
12
-1.79104
22
-10.9186
32
13.4521
13
-1.79104
23
-10.9186
33
13.4521
0
3DFACE
8
m_rifle
10
-1.79104
20
-21.5369
30
14.1227
11
-1.79104
21
-6.44777
31
21.6115
12
-1.79104
22
-10.9186
32
17.4759
13
-1.79104
23
-10.9186
33
17.4759
0
3DFACE
8
m_rifle
10
-1.79104
20
-21.5369
30
14.1227
11
-1.79104
21
-6.55955
31
23.6234
12
-1.79104
22
-6.44777
32
21.6115
13
-1.79104
23
-6.44777
33
21.6115
0
3DFACE
8
m_rifle
10
1.79105
20
-3.09075
30
5.50784
11
1.79105
21
-1.65989
31
6.25887
12
1.79105
22
-7.23018
32
13.4521
13
1.79105
23
-7.23018
33
13.4521
0
3DFACE
8
m_rifle
10
1.79105
20
-7.23018
30
13.4521
11
1.79105
21
-1.65989
31
6.25887
12
1.79105
22
-6.00069
32
14.6816
13
1.79105
23
-6.00069
33
14.6816
0
3DFACE
8
m_rifle
10
1.79105
20
-6.00069
30
14.6816
11
1.79105
21
-1.65989
31
6.25887
12
1.79105
22
-1.19452
32
14.6816
13
1.79105
23
-1.19452
33
14.6816
0
3DFACE
8
m_rifle
10
1.79105
20
-3.09075
30
5.50784
11
1.79105
21
-7.23018
31
13.4521
12
1.79105
22
-4.50547
32
3.7566
13
1.79105
23
-4.50547
33
3.7566
0
3DFACE
8
m_rifle
10
1.79105
20
-4.50547
30
3.7566
11
1.79105
21
-7.23018
31
13.4521
12
1.79105
22
-10.9186
32
13.4521
13
1.79105
23
-10.9186
33
13.4521
0
3DFACE
8
m_rifle
10
1.79105
20
-4.50547
30
3.7566
11
1.79105
21
-10.9186
31
13.4521
12
1.79105
22
-21.5369
32
3.50445
13
1.79105
23
-21.5369
33
3.50445
0
3DFACE
8
m_rifle
10
1.79105
20
-21.5369
30
3.50445
11
1.79105
21
-10.9186
31
13.4521
12
1.79105
22
-21.5369
32
14.1227
13
1.79105
23
-21.5369
33
14.1227
0
3DFACE
8
m_rifle
10
1.79105
20
-21.5369
30
14.1227
11
1.79105
21
-10.9186
31
13.4521
12
1.79105
22
-10.9186
32
17.4759
13
1.79105
23
-10.9186
33
17.4759
0
3DFACE
8
m_rifle
10
1.79105
20
-21.5369
30
14.1227
11
1.79105
21
-10.9186
31
17.4759
12
1.79105
22
-6.44777
32
21.6115
13
1.79105
23
-6.44777
33
21.6115
0
3DFACE
8
m_rifle
10
1.79105
20
-21.5369
30
14.1227
11
1.79105
21
-6.44777
31
21.6115
12
1.79105
22
-6.55955
32
23.6234
13
1.79105
23
-6.55955
33
23.6234
0
3DFACE
8
m_rifle
10
1.79105
20
-4.50547
30
3.7566
11
-1.79104
21
-21.5369
31
3.50445
12
-1.79104
22
-4.50547
32
3.7566
13
-1.79104
23
-4.50547
33
3.7566
0
3DFACE
8
m_rifle
10
1.79105
20
-4.50547
30
3.7566
11
1.79105
21
-21.5369
31
3.50445
12
-1.79104
22
-21.5369
32
3.50445
13
-1.79104
23
-21.5369
33
3.50445
0
3DFACE
8
m_rifle
10
1.79105
20
-3.09075
30
5.50784
11
-1.79104
21
-4.50547
31
3.7566
12
-1.79104
22
-3.09075
32
5.50784
13
-1.79104
23
-3.09075
33
5.50784
0
3DFACE
8
m_rifle
10
1.79105
20
-3.09075
30
5.50784
11
1.79105
21
-4.50547
31
3.7566
12
-1.79104
22
-4.50547
32
3.7566
13
-1.79104
23
-4.50547
33
3.7566
0
3DFACE
8
m_rifle
10
1.79105
20
-1.65989
30
6.25887
11
-1.79104
21
-3.09075
31
5.50784
12
-1.79104
22
-1.65989
32
6.25887
13
-1.79104
23
-1.65989
33
6.25887
0
3DFACE
8
m_rifle
10
1.79105
20
-1.65989
30
6.25887
11
1.79105
21
-3.09075
31
5.50784
12
-1.79104
22
-3.09075
32
5.50784
13
-1.79104
23
-3.09075
33
5.50784
0
3DFACE
8
m_rifle
10
1.79105
20
-1.19452
30
14.6816
11
-1.79104
21
-1.65989
31
6.25887
12
-1.79104
22
-1.19452
32
14.6816
13
-1.79104
23
-1.19452
33
14.6816
0
3DFACE
8
m_rifle
10
1.79105
20
-1.19452
30
14.6816
11
1.79105
21
-1.65989
31
6.25887
12
-1.79104
22
-1.65989
32
6.25887
13
-1.79104
23
-1.65989
33
6.25887
0
3DFACE
8
m_rifle
10
1.79105
20
-6.00069
30
14.6816
11
-1.79104
21
-1.19452
31
14.6816
12
-1.79104
22
-6.00069
32
14.6816
13
-1.79104
23
-6.00069
33
14.6816
0
3DFACE
8
m_rifle
10
1.79105
20
-6.00069
30
14.6816
11
1.79105
21
-1.19452
31
14.6816
12
-1.79104
22
-1.19452
32
14.6816
13
-1.79104
23
-1.19452
33
14.6816
0
3DFACE
8
m_rifle
10
1.79105
20
-7.23018
30
13.4521
11
-1.79104
21
-6.00069
31
14.6816
12
-1.79104
22
-7.23018
32
13.4521
13
-1.79104
23
-7.23018
33
13.4521
0
3DFACE
8
m_rifle
10
1.79105
20
-7.23018
30
13.4521
11
1.79105
21
-6.00069
31
14.6816
12
-1.79104
22
-6.00069
32
14.6816
13
-1.79104
23
-6.00069
33
14.6816
0
3DFACE
8
m_rifle
10
1.79105
20
-10.9186
30
13.4521
11
-1.79104
21
-7.23018
31
13.4521
12
-1.79104
22
-10.9186
32
13.4521
13
-1.79104
23
-10.9186
33
13.4521
0
3DFACE
8
m_rifle
10
1.79105
20
-10.9186
30
13.4521
11
1.79105
21
-7.23018
31
13.4521
12
-1.79104
22
-7.23018
32
13.4521
13
-1.79104
23
-7.23018
33
13.4521
0
3DFACE
8
m_rifle
10
1.79105
20
-10.9186
30
17.4759
11
-1.79104
21
-10.9186
31
13.4521
12
-1.79104
22
-10.9186
32
17.4759
13
-1.79104
23
-10.9186
33
17.4759
0
3DFACE
8
m_rifle
10
1.79105
20
-10.9186
30
17.4759
11
1.79105
21
-10.9186
31
13.4521
12
-1.79104
22
-10.9186
32
13.4521
13
-1.79104
23
-10.9186
33
13.4521
0
3DFACE
8
m_rifle
10
1.79105
20
-6.44777
30
21.6115
11
-1.79104
21
-10.9186
31
17.4759
12
-1.79104
22
-6.44777
32
21.6115
13
-1.79104
23
-6.44777
33
21.6115
0
3DFACE
8
m_rifle
10
1.79105
20
-6.44777
30
21.6115
11
1.79105
21
-10.9186
31
17.4759
12
-1.79104
22
-10.9186
32
17.4759
13
-1.79104
23
-10.9186
33
17.4759
0
3DFACE
8
m_rifle
10
1.79105
20
-6.55955
30
23.6234
11
-1.79104
21
-6.44777
31
21.6115
12
-1.79104
22
-6.55955
32
23.6234
13
-1.79104
23
-6.55955
33
23.6234
0
3DFACE
8
m_rifle
10
1.79105
20
-6.55955
30
23.6234
11
1.79105
21
-6.44777
31
21.6115
12
-1.79104
22
-6.44777
32
21.6115
13
-1.79104
23
-6.44777
33
21.6115
0
3DFACE
8
m_rifle
10
1.79105
20
-21.5369
30
14.1227
11
-1.79104
21
-6.55955
31
23.6234
12
-1.79104
22
-21.5369
32
14.1227
13
-1.79104
23
-21.5369
33
14.1227
0
3DFACE
8
m_rifle
10
1.79105
20
-21.5369
30
14.1227
11
1.79105
21
-6.55955
31
23.6234
12
-1.79104
22
-6.55955
32
23.6234
13
-1.79104
23
-6.55955
33
23.6234
0
3DFACE
8
m_rifle
10
1.79105
20
-21.5369
30
3.50445
11
-1.79104
21
-21.5369
31
14.1227
12
-1.79104
22
-21.5369
32
3.50445
13
-1.79104
23
-21.5369
33
3.50445
0
3DFACE
8
m_rifle
10
1.79105
20
-21.5369
30
3.50445
11
1.79105
21
-21.5369
31
14.1227
12
-1.79104
22
-21.5369
32
14.1227
13
-1.79104
23
-21.5369
33
14.1227
0
3DFACE
8
m_rifle
10
6.41692e-006
20
-7.04182
30
46.0875
11
2.47254
21
-3.44558
31
46.0875
12
2.38806
22
-6.5821
32
46.0875
13
2.38806
23
-6.5821
33
46.0875
0
3DFACE
8
m_rifle
10
6.41692e-006
20
-7.04182
30
46.0875
11
2.85851
21
-1.57443
31
46.0875
12
2.47254
22
-3.44558
32
46.0875
13
2.47254
23
-3.44558
33
46.0875
0
3DFACE
8
m_rifle
10
6.41692e-006
20
-7.04182
30
46.0875
11
3.41433
21
0.842753
31
46.0874
12
2.85851
22
-1.57443
32
46.0875
13
2.85851
23
-1.57443
33
46.0875
0
3DFACE
8
m_rifle
10
6.41692e-006
20
-7.04182
30
46.0875
11
2.64228
21
3.09977
31
46.0875
12
3.41433
22
0.842753
32
46.0874
13
3.41433
23
0.842753
33
46.0874
0
3DFACE
8
m_rifle
10
6.41692e-006
20
-7.04182
30
46.0875
11
5.49294e-006
21
4.0837
31
46.0875
12
2.64228
22
3.09977
32
46.0875
13
2.64228
23
3.09977
33
46.0875
0
3DFACE
8
m_rifle
10
6.41692e-006
20
-7.04182
30
46.0875
11
-2.64227
21
3.09977
31
46.0875
12
5.49294e-006
22
4.0837
32
46.0875
13
5.49294e-006
23
4.0837
33
46.0875
0
3DFACE
8
m_rifle
10
6.41692e-006
20
-7.04182
30
46.0875
11
-3.41432
21
0.842753
31
46.0875
12
-2.64227
22
3.09977
32
46.0875
13
-2.64227
23
3.09977
33
46.0875
0
3DFACE
8
m_rifle
10
6.41692e-006
20
-7.04182
30
46.0875
11
-2.8585
21
-1.57443
31
46.0875
12
-3.41432
22
0.842753
32
46.0875
13
-3.41432
23
0.842753
33
46.0875
0
3DFACE
8
m_rifle
10
6.41692e-006
20
-7.04182
30
46.0875
11
-2.47253
21
-3.44559
31
46.0875
12
-2.8585
22
-1.57443
32
46.0875
13
-2.8585
23
-1.57443
33
46.0875
0
3DFACE
8
m_rifle
10
6.41692e-006
20
-7.04182
30
46.0875
11
-2.38806
21
-6.5821
31
46.0875
12
-2.47253
22
-3.44559
32
46.0875
13
-2.47253
23
-3.44559
33
46.0875
0
3DFACE
8
m_rifle
10
1.28503e-005
20
-1.20082
30
71.3027
11
2.47255
21
-3.44556
31
71.3026
12
2.85852
22
-1.57441
32
71.3026
13
2.85852
23
-1.57441
33
71.3026
0
3DFACE
8
m_rifle
10
1.28503e-005
20
-1.20082
30
71.3027
11
2.38807
21
-6.58208
31
71.3027
12
2.47255
22
-3.44556
32
71.3026
13
2.47255
23
-3.44556
33
71.3026
0
3DFACE
8
m_rifle
10
1.28503e-005
20
-1.20082
30
71.3027
11
1.35433e-005
21
-7.0418
31
71.3026
12
2.38807
22
-6.58208
32
71.3027
13
2.38807
23
-6.58208
33
71.3027
0
3DFACE
8
m_rifle
10
1.28503e-005
20
-1.20082
30
71.3027
11
-2.38805
21
-6.58208
31
71.3026
12
1.35433e-005
22
-7.0418
32
71.3026
13
1.35433e-005
23
-7.0418
33
71.3026
0
3DFACE
8
m_rifle
10
1.28503e-005
20
-1.20082
30
71.3027
11
-2.47253
21
-3.44557
31
71.3026
12
-2.38805
22
-6.58208
32
71.3026
13
-2.38805
23
-6.58208
33
71.3026
0
3DFACE
8
m_rifle
10
1.28503e-005
20
-1.20082
30
71.3027
11
-2.8585
21
-1.57441
31
71.3026
12
-2.47253
22
-3.44557
32
71.3026
13
-2.47253
23
-3.44557
33
71.3026
0
3DFACE
8
m_rifle
10
1.28503e-005
20
-1.20082
30
71.3027
11
-3.41432
21
0.842771
31
71.3027
12
-2.8585
22
-1.57441
32
71.3026
13
-2.8585
23
-1.57441
33
71.3026
0
3DFACE
8
m_rifle
10
1.28503e-005
20
-1.20082
30
71.3027
11
-2.64226
21
3.09979
31
71.3027
12
-3.41432
22
0.842771
32
71.3027
13
-3.41432
23
0.842771
33
71.3027
0
3DFACE
8
m_rifle
10
1.28503e-005
20
-1.20082
30
71.3027
11
1.26193e-005
21
4.08372
31
71.3027
12
-2.64226
22
3.09979
32
71.3027
13
-2.64226
23
3.09979
33
71.3027
0
3DFACE
8
m_rifle
10
1.28503e-005
20
-1.20082
30
71.3027
11
2.64229
21
3.09979
31
71.3027
12
1.26193e-005
22
4.08372
32
71.3027
13
1.26193e-005
23
4.08372
33
71.3027
0
3DFACE
8
m_rifle
10
1.28503e-005
20
-1.20082
30
71.3027
11
3.41434
21
0.842771
31
71.3026
12
2.64229
22
3.09979
32
71.3027
13
2.64229
23
3.09979
33
71.3027
0
3DFACE
8
m_rifle
10
1.28503e-005
20
-1.20082
30
71.3027
11
2.85852
21
-1.57441
31
71.3026
12
3.41434
22
0.842771
32
71.3026
13
3.41434
23
0.842771
33
71.3026
0
3DFACE
8
m_rifle
10
2.47254
20
-3.44558
30
46.0875
11
2.85851
21
-1.57443
31
46.0875
12
2.85852
22
-1.57441
32
71.3026
13
2.85852
23
-1.57441
33
71.3026
0
3DFACE
8
m_rifle
10
2.47254
20
-3.44558
30
46.0875
11
2.85852
21
-1.57441
31
71.3026
12
2.47255
22
-3.44556
32
71.3026
13
2.47255
23
-3.44556
33
71.3026
0
3DFACE
8
m_rifle
10
2.38806
20
-6.5821
30
46.0875
11
2.47254
21
-3.44558
31
46.0875
12
2.47255
22
-3.44556
32
71.3026
13
2.47255
23
-3.44556
33
71.3026
0
3DFACE
8
m_rifle
10
2.38806
20
-6.5821
30
46.0875
11
2.47255
21
-3.44556
31
71.3026
12
2.38807
22
-6.58208
32
71.3027
13
2.38807
23
-6.58208
33
71.3027
0
3DFACE
8
m_rifle
10
6.41692e-006
20
-7.04182
30
46.0875
11
2.38806
21
-6.5821
31
46.0875
12
2.38807
22
-6.58208
32
71.3027
13
2.38807
23
-6.58208
33
71.3027
0
3DFACE
8
m_rifle
10
6.41692e-006
20
-7.04182
30
46.0875
11
2.38807
21
-6.58208
31
71.3027
12
1.35433e-005
22
-7.0418
32
71.3026
13
1.35433e-005
23
-7.0418
33
71.3026
0
3DFACE
8
m_rifle
10
-2.38806
20
-6.5821
30
46.0875
11
6.41692e-006
21
-7.04182
31
46.0875
12
1.35433e-005
22
-7.0418
32
71.3026
13
1.35433e-005
23
-7.0418
33
71.3026
0
3DFACE
8
m_rifle
10
-2.38806
20
-6.5821
30
46.0875
11
1.35433e-005
21
-7.0418
31
71.3026
12
-2.38805
22
-6.58208
32
71.3026
13
-2.38805
23
-6.58208
33
71.3026
0
3DFACE
8
m_rifle
10
-2.47253
20
-3.44559
30
46.0875
11
-2.38806
21
-6.5821
31
46.0875
12
-2.38805
22
-6.58208
32
71.3026
13
-2.38805
23
-6.58208
33
71.3026
0
3DFACE
8
m_rifle
10
-2.47253
20
-3.44559
30
46.0875
11
-2.38805
21
-6.58208
31
71.3026
12
-2.47253
22
-3.44557
32
71.3026
13
-2.47253
23
-3.44557
33
71.3026
0
3DFACE
8
m_rifle
10
-2.8585
20
-1.57443
30
46.0875
11
-2.47253
21
-3.44559
31
46.0875
12
-2.47253
22
-3.44557
32
71.3026
13
-2.47253
23
-3.44557
33
71.3026
0
3DFACE
8
m_rifle
10
-2.8585
20
-1.57443
30
46.0875
11
-2.47253
21
-3.44557
31
71.3026
12
-2.8585
22
-1.57441
32
71.3026
13
-2.8585
23
-1.57441
33
71.3026
0
3DFACE
8
m_rifle
10
-3.41432
20
0.842753
30
46.0875
11
-2.8585
21
-1.57443
31
46.0875
12
-2.8585
22
-1.57441
32
71.3026
13
-2.8585
23
-1.57441
33
71.3026
0
3DFACE
8
m_rifle
10
-3.41432
20
0.842753
30
46.0875
11
-2.8585
21
-1.57441
31
71.3026
12
-3.41432
22
0.842771
32
71.3027
13
-3.41432
23
0.842771
33
71.3027
0
3DFACE
8
m_rifle
10
-2.64227
20
3.09977
30
46.0875
11
-3.41432
21
0.842753
31
46.0875
12
-3.41432
22
0.842771
32
71.3027
13
-3.41432
23
0.842771
33
71.3027
0
3DFACE
8
m_rifle
10
-2.64227
20
3.09977
30
46.0875
11
-3.41432
21
0.842771
31
71.3027
12
-2.64226
22
3.09979
32
71.3027
13
-2.64226
23
3.09979
33
71.3027
0
3DFACE
8
m_rifle
10
5.49294e-006
20
4.0837
30
46.0875
11
-2.64227
21
3.09977
31
46.0875
12
-2.64226
22
3.09979
32
71.3027
13
-2.64226
23
3.09979
33
71.3027
0
3DFACE
8
m_rifle
10
5.49294e-006
20
4.0837
30
46.0875
11
-2.64226
21
3.09979
31
71.3027
12
1.26193e-005
22
4.08372
32
71.3027
13
1.26193e-005
23
4.08372
33
71.3027
0
3DFACE
8
m_rifle
10
2.64228
20
3.09977
30
46.0875
11
5.49294e-006
21
4.0837
31
46.0875
12
1.26193e-005
22
4.08372
32
71.3027
13
1.26193e-005
23
4.08372
33
71.3027
0
3DFACE
8
m_rifle
10
2.64228
20
3.09977
30
46.0875
11
1.26193e-005
21
4.08372
31
71.3027
12
2.64229
22
3.09979
32
71.3027
13
2.64229
23
3.09979
33
71.3027
0
3DFACE
8
m_rifle
10
3.41433
20
0.842753
30
46.0874
11
2.64228
21
3.09977
31
46.0875
12
2.64229
22
3.09979
32
71.3027
13
2.64229
23
3.09979
33
71.3027
0
3DFACE
8
m_rifle
10
3.41433
20
0.842753
30
46.0874
11
2.64229
21
3.09979
31
71.3027
12
3.41434
22
0.842771
32
71.3026
13
3.41434
23
0.842771
33
71.3026
0
3DFACE
8
m_rifle
10
2.85851
20
-1.57443
30
46.0875
11
3.41433
21
0.842753
31
46.0874
12
3.41434
22
0.842771
32
71.3026
13
3.41434
23
0.842771
33
71.3026
0
3DFACE
8
m_rifle
10
2.85851
20
-1.57443
30
46.0875
11
3.41434
21
0.842771
31
71.3026
12
2.85852
22
-1.57441
32
71.3026
13
2.85852
23
-1.57441
33
71.3026
0
ENDSEC
0
EOF
