0
SECTION
2
HEADER
999
DXF File Generated by LightWave 3D(TM)
0
ENDSEC
0
SECTION
2
TABLES
0
ENDSEC
0
SECTION
2
BLOCKS
0
ENDSEC
0
SECTION
2
ENTITIES
0
3DFACE
8
0
70
0
13
0.000000
23
-2.100000
33
0.050000
12
0.556461
22
-2.028444
32
0.050000
11
0.537500
21
-2.028444
31
-0.120818
10
0.537500
20
-2.028444
30
-0.120818
0
3DFACE
8
0
70
0
13
0.000000
23
-2.100000
33
0.050000
12
0.537500
22
-2.028444
32
-0.120818
11
0.481909
21
-2.028444
31
-0.279994
10
0.481909
20
-2.028444
30
-0.279994
0
3DFACE
8
0
70
0
13
0.000000
23
-2.100000
33
0.050000
12
0.481909
22
-2.028444
32
-0.279994
11
0.393477
21
-2.028444
31
-0.416682
10
0.393477
20
-2.028444
30
-0.416682
0
3DFACE
8
0
70
0
13
0.000000
23
-2.100000
33
0.050000
12
0.393477
22
-2.028444
32
-0.416682
11
0.278230
21
-2.028444
31
-0.521567
10
0.278230
20
-2.028444
30
-0.521567
0
3DFACE
8
0
70
0
13
0.000000
23
-2.100000
33
0.050000
12
0.278230
22
-2.028444
32
-0.521567
11
0.144023
21
-2.028444
31
-0.587500
10
0.144023
20
-2.028444
30
-0.587500
0
3DFACE
8
0
70
0
13
0.000000
23
-2.100000
33
0.050000
12
0.144023
22
-2.028444
32
-0.587500
11
0.000000
21
-2.028444
31
-0.609989
10
0.000000
20
-2.028444
30
-0.609989
0
3DFACE
8
0
70
0
13
0.000000
23
-2.100000
33
0.050000
12
0.000000
22
-2.028444
32
-0.609989
11
-0.144023
21
-2.028444
31
-0.587500
10
-0.144023
20
-2.028444
30
-0.587500
0
3DFACE
8
0
70
0
13
0.000000
23
-2.100000
33
0.050000
12
-0.144023
22
-2.028444
32
-0.587500
11
-0.278230
21
-2.028444
31
-0.521567
10
-0.278230
20
-2.028444
30
-0.521567
0
3DFACE
8
0
70
0
13
0.000000
23
-2.100000
33
0.050000
12
-0.278230
22
-2.028444
32
-0.521567
11
-0.393477
21
-2.028444
31
-0.416682
10
-0.393477
20
-2.028444
30
-0.416682
0
3DFACE
8
0
70
0
13
0.000000
23
-2.100000
33
0.050000
12
-0.393477
22
-2.028444
32
-0.416682
11
-0.481909
21
-2.028444
31
-0.279994
10
-0.481909
20
-2.028444
30
-0.279994
0
3DFACE
8
0
70
0
13
0.000000
23
-2.100000
33
0.050000
12
-0.481909
22
-2.028444
32
-0.279994
11
-0.537500
21
-2.028444
31
-0.120818
10
-0.537500
20
-2.028444
30
-0.120818
0
3DFACE
8
0
70
0
13
0.000000
23
-2.100000
33
0.050000
12
-0.537500
22
-2.028444
32
-0.120818
11
-0.556461
21
-2.028444
31
0.050000
10
-0.556461
20
-2.028444
30
0.050000
0
3DFACE
8
0
70
0
13
0.000000
23
-2.100000
33
0.050000
12
-0.556461
22
-2.028444
32
0.050000
11
-0.537500
21
-2.028444
31
0.220818
10
-0.537500
20
-2.028444
30
0.220818
0
3DFACE
8
0
70
0
13
0.000000
23
-2.100000
33
0.050000
12
-0.537500
22
-2.028444
32
0.220818
11
-0.481909
21
-2.028444
31
0.379994
10
-0.481909
20
-2.028444
30
0.379994
0
3DFACE
8
0
70
0
13
0.000000
23
-2.100000
33
0.050000
12
-0.481909
22
-2.028444
32
0.379994
11
-0.393477
21
-2.028444
31
0.516682
10
-0.393477
20
-2.028444
30
0.516682
0
3DFACE
8
0
70
0
13
0.000000
23
-2.100000
33
0.050000
12
-0.393477
22
-2.028444
32
0.516682
11
-0.278230
21
-2.028444
31
0.621567
10
-0.278230
20
-2.028444
30
0.621567
0
3DFACE
8
0
70
0
13
0.000000
23
-2.100000
33
0.050000
12
-0.278230
22
-2.028444
32
0.621567
11
-0.144023
21
-2.028444
31
0.687500
10
-0.144023
20
-2.028444
30
0.687500
0
3DFACE
8
0
70
0
13
0.000000
23
-2.100000
33
0.050000
12
-0.144023
22
-2.028444
32
0.687500
11
0.000000
21
-2.028444
31
0.709989
10
0.000000
20
-2.028444
30
0.709989
0
3DFACE
8
0
70
0
13
0.000000
23
-2.100000
33
0.050000
12
0.000000
22
-2.028444
32
0.709989
11
0.144023
21
-2.028444
31
0.687500
10
0.144023
20
-2.028444
30
0.687500
0
3DFACE
8
0
70
0
13
0.000000
23
-2.100000
33
0.050000
12
0.144023
22
-2.028444
32
0.687500
11
0.278230
21
-2.028444
31
0.621567
10
0.278230
20
-2.028444
30
0.621567
0
3DFACE
8
0
70
0
13
0.000000
23
-2.100000
33
0.050000
12
0.278230
22
-2.028444
32
0.621567
11
0.393477
21
-2.028444
31
0.516682
10
0.393477
20
-2.028444
30
0.516682
0
3DFACE
8
0
70
0
13
0.000000
23
-2.100000
33
0.050000
12
0.393477
22
-2.028444
32
0.516682
11
0.481909
21
-2.028444
31
0.379994
10
0.481909
20
-2.028444
30
0.379994
0
3DFACE
8
0
70
0
13
0.000000
23
-2.100000
33
0.050000
12
0.481909
22
-2.028444
32
0.379994
11
0.537500
21
-2.028444
31
0.220818
10
0.537500
20
-2.028444
30
0.220818
0
3DFACE
8
0
70
0
13
0.000000
23
-2.100000
33
0.050000
12
0.537500
22
-2.028444
32
0.220818
11
0.556461
21
-2.028444
31
0.050000
10
0.556461
20
-2.028444
30
0.050000
0
3DFACE
8
0
70
0
13
0.556461
23
-2.028444
33
0.050000
12
1.075000
22
-1.818653
32
0.050000
11
1.038370
21
-1.818653
31
-0.279994
10
0.537500
20
-2.028444
30
-0.120818
0
3DFACE
8
0
70
0
13
0.537500
23
-2.028444
33
-0.120818
12
1.038370
22
-1.818653
32
-0.279994
11
0.930977
21
-1.818653
31
-0.587500
10
0.481909
20
-2.028444
30
-0.279994
0
3DFACE
8
0
70
0
13
0.481909
23
-2.028444
33
-0.279994
12
0.930977
22
-1.818653
32
-0.587500
11
0.760140
21
-1.818653
31
-0.851561
10
0.393477
20
-2.028444
30
-0.416682
0
3DFACE
8
0
70
0
13
0.393477
23
-2.028444
33
-0.416682
12
0.760140
22
-1.818653
32
-0.851561
11
0.537500
21
-1.818653
31
-1.054182
10
0.278230
20
-2.028444
30
-0.521567
0
3DFACE
8
0
70
0
13
0.278230
23
-2.028444
33
-0.521567
12
0.537500
22
-1.818653
32
-1.054182
11
0.278230
21
-1.818653
31
-1.181556
10
0.144023
20
-2.028444
30
-0.587500
0
3DFACE
8
0
70
0
13
0.144023
23
-2.028444
33
-0.587500
12
0.278230
22
-1.818653
32
-1.181556
11
0.000000
21
-1.818653
31
-1.225000
10
0.000000
20
-2.028444
30
-0.609989
0
3DFACE
8
0
70
0
13
-0.144023
23
-2.028444
33
-0.587500
12
0.000000
22
-2.028444
32
-0.609989
11
0.000000
21
-1.818653
31
-1.225000
10
-0.278230
20
-1.818653
30
-1.181556
0
3DFACE
8
0
70
0
13
-0.278230
23
-2.028444
33
-0.521567
12
-0.144023
22
-2.028444
32
-0.587500
11
-0.278230
21
-1.818653
31
-1.181556
10
-0.537500
20
-1.818653
30
-1.054182
0
3DFACE
8
0
70
0
13
-0.393477
23
-2.028444
33
-0.416682
12
-0.278230
22
-2.028444
32
-0.521567
11
-0.537500
21
-1.818653
31
-1.054182
10
-0.760140
20
-1.818653
30
-0.851561
0
3DFACE
8
0
70
0
13
-0.481909
23
-2.028444
33
-0.279994
12
-0.393477
22
-2.028444
32
-0.416682
11
-0.760140
21
-1.818653
31
-0.851561
10
-0.930977
20
-1.818653
30
-0.587500
0
3DFACE
8
0
70
0
13
-0.537500
23
-2.028444
33
-0.120818
12
-0.481909
22
-2.028444
32
-0.279994
11
-0.930977
21
-1.818653
31
-0.587500
10
-1.038370
20
-1.818653
30
-0.279994
0
3DFACE
8
0
70
0
13
-0.556461
23
-2.028444
33
0.050000
12
-0.537500
22
-2.028444
32
-0.120818
11
-1.038370
21
-1.818653
31
-0.279994
10
-1.075000
20
-1.818653
30
0.050000
0
3DFACE
8
0
70
0
13
-0.537500
23
-2.028444
33
0.220818
12
-0.556461
22
-2.028444
32
0.050000
11
-1.075000
21
-1.818653
31
0.050000
10
-1.038370
20
-1.818653
30
0.379994
0
3DFACE
8
0
70
0
13
-0.481909
23
-2.028444
33
0.379994
12
-0.537500
22
-2.028444
32
0.220818
11
-1.038370
21
-1.818653
31
0.379994
10
-0.930977
20
-1.818653
30
0.687500
0
3DFACE
8
0
70
0
13
-0.393477
23
-2.028444
33
0.516682
12
-0.481909
22
-2.028444
32
0.379994
11
-0.930977
21
-1.818653
31
0.687500
10
-0.760140
20
-1.818653
30
0.951561
0
3DFACE
8
0
70
0
13
-0.278230
23
-2.028444
33
0.621567
12
-0.393477
22
-2.028444
32
0.516682
11
-0.760140
21
-1.818653
31
0.951561
10
-0.537500
20
-1.818653
30
1.154182
0
3DFACE
8
0
70
0
13
-0.144023
23
-2.028444
33
0.687500
12
-0.278230
22
-2.028444
32
0.621567
11
-0.537500
21
-1.818653
31
1.154182
10
-0.278230
20
-1.818653
30
1.281556
0
3DFACE
8
0
70
0
13
0.000000
23
-2.028444
33
0.709989
12
-0.144023
22
-2.028444
32
0.687500
11
-0.278230
21
-1.818653
31
1.281556
10
0.000000
20
-1.818653
30
1.325000
0
3DFACE
8
0
70
0
13
0.000000
23
-2.028444
33
0.709989
12
0.000000
22
-1.818653
32
1.325000
11
0.278230
21
-1.818653
31
1.281556
10
0.144023
20
-2.028444
30
0.687500
0
3DFACE
8
0
70
0
13
0.144023
23
-2.028444
33
0.687500
12
0.278230
22
-1.818653
32
1.281556
11
0.537500
21
-1.818653
31
1.154182
10
0.278230
20
-2.028444
30
0.621567
0
3DFACE
8
0
70
0
13
0.278230
23
-2.028444
33
0.621567
12
0.537500
22
-1.818653
32
1.154182
11
0.760140
21
-1.818653
31
0.951561
10
0.393477
20
-2.028444
30
0.516682
0
3DFACE
8
0
70
0
13
0.393477
23
-2.028444
33
0.516682
12
0.760140
22
-1.818653
32
0.951561
11
0.930977
21
-1.818653
31
0.687500
10
0.481909
20
-2.028444
30
0.379994
0
3DFACE
8
0
70
0
13
0.481909
23
-2.028444
33
0.379994
12
0.930977
22
-1.818653
32
0.687500
11
1.038370
21
-1.818653
31
0.379994
10
0.537500
20
-2.028444
30
0.220818
0
3DFACE
8
0
70
0
13
0.537500
23
-2.028444
33
0.220818
12
1.038370
22
-1.818653
32
0.379994
11
1.075000
21
-1.818653
31
0.050000
10
0.556461
20
-2.028444
30
0.050000
0
3DFACE
8
0
70
0
13
1.075000
23
-1.818653
33
0.050000
12
1.520280
22
-1.484924
32
0.050000
11
1.468477
21
-1.484924
31
-0.416682
10
1.038370
20
-1.818653
30
-0.279994
0
3DFACE
8
0
70
0
13
1.038370
23
-1.818653
33
-0.279994
12
1.468477
22
-1.484924
32
-0.416682
11
1.316601
21
-1.484924
31
-0.851561
10
0.930977
20
-1.818653
30
-0.587500
0
3DFACE
8
0
70
0
13
0.930977
23
-1.818653
33
-0.587500
12
1.316601
22
-1.484924
32
-0.851561
11
1.075000
21
-1.484924
31
-1.225000
10
0.760140
20
-1.818653
30
-0.851561
0
3DFACE
8
0
70
0
13
0.760140
23
-1.818653
33
-0.851561
12
1.075000
22
-1.484924
32
-1.225000
11
0.760140
21
-1.484924
31
-1.511550
10
0.537500
20
-1.818653
30
-1.054182
0
3DFACE
8
0
70
0
13
0.537500
23
-1.818653
33
-1.054182
12
0.760140
22
-1.484924
32
-1.511550
11
0.393477
21
-1.484924
31
-1.691682
10
0.278230
20
-1.818653
30
-1.181556
0
3DFACE
8
0
70
0
13
0.278230
23
-1.818653
33
-1.181556
12
0.393477
22
-1.484924
32
-1.691682
11
0.000000
21
-1.484924
31
-1.753122
10
0.000000
20
-1.818653
30
-1.225000
0
3DFACE
8
0
70
0
13
-0.278230
23
-1.818653
33
-1.181556
12
0.000000
22
-1.818653
32
-1.225000
11
0.000000
21
-1.484924
31
-1.753122
10
-0.393477
20
-1.484924
30
-1.691682
0
3DFACE
8
0
70
0
13
-0.537500
23
-1.818653
33
-1.054182
12
-0.278230
22
-1.818653
32
-1.181556
11
-0.393477
21
-1.484924
31
-1.691682
10
-0.760140
20
-1.484924
30
-1.511550
0
3DFACE
8
0
70
0
13
-0.760140
23
-1.818653
33
-0.851561
12
-0.537500
22
-1.818653
32
-1.054182
11
-0.760140
21
-1.484924
31
-1.511550
10
-1.075000
20
-1.484924
30
-1.225000
0
3DFACE
8
0
70
0
13
-0.930977
23
-1.818653
33
-0.587500
12
-0.760140
22
-1.818653
32
-0.851561
11
-1.075000
21
-1.484924
31
-1.225000
10
-1.316601
20
-1.484924
30
-0.851561
0
3DFACE
8
0
70
0
13
-1.038370
23
-1.818653
33
-0.279994
12
-0.930977
22
-1.818653
32
-0.587500
11
-1.316601
21
-1.484924
31
-0.851561
10
-1.468477
20
-1.484924
30
-0.416682
0
3DFACE
8
0
70
0
13
-1.075000
23
-1.818653
33
0.050000
12
-1.038370
22
-1.818653
32
-0.279994
11
-1.468477
21
-1.484924
31
-0.416682
10
-1.520280
20
-1.484924
30
0.050000
0
3DFACE
8
0
70
0
13
-1.038370
23
-1.818653
33
0.379994
12
-1.075000
22
-1.818653
32
0.050000
11
-1.520280
21
-1.484924
31
0.050000
10
-1.468477
20
-1.484924
30
0.516682
0
3DFACE
8
0
70
0
13
-0.930977
23
-1.818653
33
0.687500
12
-1.038370
22
-1.818653
32
0.379994
11
-1.468477
21
-1.484924
31
0.516682
10
-1.316601
20
-1.484924
30
0.951561
0
3DFACE
8
0
70
0
13
-0.760140
23
-1.818653
33
0.951561
12
-0.930977
22
-1.818653
32
0.687500
11
-1.316601
21
-1.484924
31
0.951561
10
-1.075000
20
-1.484924
30
1.325000
0
3DFACE
8
0
70
0
13
-0.537500
23
-1.818653
33
1.154182
12
-0.760140
22
-1.818653
32
0.951561
11
-1.075000
21
-1.484924
31
1.325000
10
-0.760140
20
-1.484924
30
1.611550
0
3DFACE
8
0
70
0
13
-0.278230
23
-1.818653
33
1.281556
12
-0.537500
22
-1.818653
32
1.154182
11
-0.760140
21
-1.484924
31
1.611550
10
-0.393477
20
-1.484924
30
1.791682
0
3DFACE
8
0
70
0
13
0.000000
23
-1.818653
33
1.325000
12
-0.278230
22
-1.818653
32
1.281556
11
-0.393477
21
-1.484924
31
1.791682
10
0.000000
20
-1.484924
30
1.853122
0
3DFACE
8
0
70
0
13
0.000000
23
-1.818653
33
1.325000
12
0.000000
22
-1.484924
32
1.853122
11
0.393477
21
-1.484924
31
1.791682
10
0.278230
20
-1.818653
30
1.281556
0
3DFACE
8
0
70
0
13
0.278230
23
-1.818653
33
1.281556
12
0.393477
22
-1.484924
32
1.791682
11
0.760140
21
-1.484924
31
1.611550
10
0.537500
20
-1.818653
30
1.154182
0
3DFACE
8
0
70
0
13
0.537500
23
-1.818653
33
1.154182
12
0.760140
22
-1.484924
32
1.611550
11
1.075000
21
-1.484924
31
1.325000
10
0.760140
20
-1.818653
30
0.951561
0
3DFACE
8
0
70
0
13
0.760140
23
-1.818653
33
0.951561
12
1.075000
22
-1.484924
32
1.325000
11
1.316601
21
-1.484924
31
0.951561
10
0.930977
20
-1.818653
30
0.687500
0
3DFACE
8
0
70
0
13
0.930977
23
-1.818653
33
0.687500
12
1.316601
22
-1.484924
32
0.951561
11
1.468477
21
-1.484924
31
0.516682
10
1.038370
20
-1.818653
30
0.379994
0
3DFACE
8
0
70
0
13
1.038370
23
-1.818653
33
0.379994
12
1.468477
22
-1.484924
32
0.516682
11
1.520280
21
-1.484924
31
0.050000
10
1.075000
20
-1.818653
30
0.050000
0
3DFACE
8
0
70
0
13
1.520280
23
-1.484924
33
0.050000
12
1.861955
22
-1.050000
32
0.050000
11
1.798510
21
-1.050000
31
-0.521567
10
1.468477
20
-1.484924
30
-0.416682
0
3DFACE
8
0
70
0
13
1.468477
23
-1.484924
33
-0.416682
12
1.798510
22
-1.050000
32
-0.521567
11
1.612500
21
-1.050000
31
-1.054182
10
1.316601
20
-1.484924
30
-0.851561
0
3DFACE
8
0
70
0
13
1.316601
23
-1.484924
33
-0.851561
12
1.612500
22
-1.050000
32
-1.054182
11
1.316601
21
-1.050000
31
-1.511550
10
1.075000
20
-1.484924
30
-1.225000
0
3DFACE
8
0
70
0
13
1.075000
23
-1.484924
33
-1.225000
12
1.316601
22
-1.050000
32
-1.511550
11
0.930977
21
-1.050000
31
-1.862500
10
0.760140
20
-1.484924
30
-1.511550
0
3DFACE
8
0
70
0
13
0.760140
23
-1.484924
33
-1.511550
12
0.930977
22
-1.050000
32
-1.862500
11
0.481909
21
-1.050000
31
-2.083117
10
0.393477
20
-1.484924
30
-1.691682
0
3DFACE
8
0
70
0
13
0.393477
23
-1.484924
33
-1.691682
12
0.481909
22
-1.050000
32
-2.083117
11
0.000000
21
-1.050000
31
-2.158365
10
0.000000
20
-1.484924
30
-1.753122
0
3DFACE
8
0
70
0
13
-0.393477
23
-1.484924
33
-1.691682
12
0.000000
22
-1.484924
32
-1.753122
11
0.000000
21
-1.050000
31
-2.158365
10
-0.481909
20
-1.050000
30
-2.083117
0
3DFACE
8
0
70
0
13
-0.760140
23
-1.484924
33
-1.511550
12
-0.393477
22
-1.484924
32
-1.691682
11
-0.481909
21
-1.050000
31
-2.083117
10
-0.930977
20
-1.050000
30
-1.862500
0
3DFACE
8
0
70
0
13
-1.075000
23
-1.484924
33
-1.225000
12
-0.760140
22
-1.484924
32
-1.511550
11
-0.930977
21
-1.050000
31
-1.862500
10
-1.316601
20
-1.050000
30
-1.511550
0
3DFACE
8
0
70
0
13
-1.316601
23
-1.484924
33
-0.851561
12
-1.075000
22
-1.484924
32
-1.225000
11
-1.316601
21
-1.050000
31
-1.511550
10
-1.612500
20
-1.050000
30
-1.054182
0
3DFACE
8
0
70
0
13
-1.468477
23
-1.484924
33
-0.416682
12
-1.316601
22
-1.484924
32
-0.851561
11
-1.612500
21
-1.050000
31
-1.054182
10
-1.798510
20
-1.050000
30
-0.521567
0
3DFACE
8
0
70
0
13
-1.520280
23
-1.484924
33
0.050000
12
-1.468477
22
-1.484924
32
-0.416682
11
-1.798510
21
-1.050000
31
-0.521567
10
-1.861955
20
-1.050000
30
0.050000
0
3DFACE
8
0
70
0
13
-1.468477
23
-1.484924
33
0.516682
12
-1.520280
22
-1.484924
32
0.050000
11
-1.861955
21
-1.050000
31
0.050000
10
-1.798510
20
-1.050000
30
0.621567
0
3DFACE
8
0
70
0
13
-1.316601
23
-1.484924
33
0.951561
12
-1.468477
22
-1.484924
32
0.516682
11
-1.798510
21
-1.050000
31
0.621567
10
-1.612500
20
-1.050000
30
1.154182
0
3DFACE
8
0
70
0
13
-1.075000
23
-1.484924
33
1.325000
12
-1.316601
22
-1.484924
32
0.951561
11
-1.612500
21
-1.050000
31
1.154182
10
-1.316601
20
-1.050000
30
1.611550
0
3DFACE
8
0
70
0
13
-0.760140
23
-1.484924
33
1.611550
12
-1.075000
22
-1.484924
32
1.325000
11
-1.316601
21
-1.050000
31
1.611550
10
-0.930977
20
-1.050000
30
1.962500
0
3DFACE
8
0
70
0
13
-0.393477
23
-1.484924
33
1.791682
12
-0.760140
22
-1.484924
32
1.611550
11
-0.930977
21
-1.050000
31
1.962500
10
-0.481909
20
-1.050000
30
2.183117
0
3DFACE
8
0
70
0
13
0.000000
23
-1.484924
33
1.853122
12
-0.393477
22
-1.484924
32
1.791682
11
-0.481909
21
-1.050000
31
2.183117
10
0.000000
20
-1.050000
30
2.258365
0
3DFACE
8
0
70
0
13
0.000000
23
-1.484924
33
1.853122
12
0.000000
22
-1.050000
32
2.258365
11
0.481909
21
-1.050000
31
2.183117
10
0.393477
20
-1.484924
30
1.791682
0
3DFACE
8
0
70
0
13
0.393477
23
-1.484924
33
1.791682
12
0.481909
22
-1.050000
32
2.183117
11
0.930977
21
-1.050000
31
1.962500
10
0.760140
20
-1.484924
30
1.611550
0
3DFACE
8
0
70
0
13
0.760140
23
-1.484924
33
1.611550
12
0.930977
22
-1.050000
32
1.962500
11
1.316601
21
-1.050000
31
1.611550
10
1.075000
20
-1.484924
30
1.325000
0
3DFACE
8
0
70
0
13
1.075000
23
-1.484924
33
1.325000
12
1.316601
22
-1.050000
32
1.611550
11
1.612500
21
-1.050000
31
1.154182
10
1.316601
20
-1.484924
30
0.951561
0
3DFACE
8
0
70
0
13
1.316601
23
-1.484924
33
0.951561
12
1.612500
22
-1.050000
32
1.154182
11
1.798510
21
-1.050000
31
0.621567
10
1.468477
20
-1.484924
30
0.516682
0
3DFACE
8
0
70
0
13
1.468477
23
-1.484924
33
0.516682
12
1.798510
22
-1.050000
32
0.621567
11
1.861955
21
-1.050000
31
0.050000
10
1.520280
20
-1.484924
30
0.050000
0
3DFACE
8
0
70
0
13
1.861955
23
-1.050000
33
0.050000
12
2.076741
22
-0.543520
32
0.050000
11
2.005977
21
-0.543520
31
-0.587500
10
1.798510
20
-1.050000
30
-0.521567
0
3DFACE
8
0
70
0
13
1.798510
23
-1.050000
33
-0.521567
12
2.005977
22
-0.543520
32
-0.587500
11
1.798510
21
-0.543520
31
-1.181555
10
1.612500
20
-1.050000
30
-1.054182
0
3DFACE
8
0
70
0
13
1.612500
23
-1.050000
33
-1.054182
12
1.798510
22
-0.543520
32
-1.181555
11
1.468477
21
-0.543520
31
-1.691682
10
1.316601
20
-1.050000
30
-1.511550
0
3DFACE
8
0
70
0
13
1.316601
23
-1.050000
33
-1.511550
12
1.468477
22
-0.543520
32
-1.691682
11
1.038370
21
-0.543520
31
-2.083117
10
0.930977
20
-1.050000
30
-1.862500
0
3DFACE
8
0
70
0
13
0.930977
23
-1.050000
33
-1.862500
12
1.038370
22
-0.543520
32
-2.083117
11
0.537500
21
-0.543520
31
-2.329182
10
0.481909
20
-1.050000
30
-2.083117
0
3DFACE
8
0
70
0
13
0.481909
23
-1.050000
33
-2.083117
12
0.537500
22
-0.543520
32
-2.329182
11
0.000000
21
-0.543520
31
-2.413111
10
0.000000
20
-1.050000
30
-2.158365
0
3DFACE
8
0
70
0
13
-0.481909
23
-1.050000
33
-2.083117
12
0.000000
22
-1.050000
32
-2.158365
11
0.000000
21
-0.543520
31
-2.413111
10
-0.537500
20
-0.543520
30
-2.329182
0
3DFACE
8
0
70
0
13
-0.930977
23
-1.050000
33
-1.862500
12
-0.481909
22
-1.050000
32
-2.083117
11
-0.537500
21
-0.543520
31
-2.329182
10
-1.038370
20
-0.543520
30
-2.083117
0
3DFACE
8
0
70
0
13
-1.316601
23
-1.050000
33
-1.511550
12
-0.930977
22
-1.050000
32
-1.862500
11
-1.038370
21
-0.543520
31
-2.083117
10
-1.468477
20
-0.543520
30
-1.691682
0
3DFACE
8
0
70
0
13
-1.612500
23
-1.050000
33
-1.054182
12
-1.316601
22
-1.050000
32
-1.511550
11
-1.468477
21
-0.543520
31
-1.691682
10
-1.798510
20
-0.543520
30
-1.181555
0
3DFACE
8
0
70
0
13
-1.798510
23
-1.050000
33
-0.521567
12
-1.612500
22
-1.050000
32
-1.054182
11
-1.798510
21
-0.543520
31
-1.181555
10
-2.005977
20
-0.543520
30
-0.587500
0
3DFACE
8
0
70
0
13
-1.861955
23
-1.050000
33
0.050000
12
-1.798510
22
-1.050000
32
-0.521567
11
-2.005977
21
-0.543520
31
-0.587500
10
-2.076741
20
-0.543520
30
0.050000
0
3DFACE
8
0
70
0
13
-1.798510
23
-1.050000
33
0.621567
12
-1.861955
22
-1.050000
32
0.050000
11
-2.076741
21
-0.543520
31
0.050000
10
-2.005977
20
-0.543520
30
0.687500
0
3DFACE
8
0
70
0
13
-1.612500
23
-1.050000
33
1.154182
12
-1.798510
22
-1.050000
32
0.621567
11
-2.005977
21
-0.543520
31
0.687500
10
-1.798510
20
-0.543520
30
1.281555
0
3DFACE
8
0
70
0
13
-1.316601
23
-1.050000
33
1.611550
12
-1.612500
22
-1.050000
32
1.154182
11
-1.798510
21
-0.543520
31
1.281555
10
-1.468477
20
-0.543520
30
1.791682
0
3DFACE
8
0
70
0
13
-0.930977
23
-1.050000
33
1.962500
12
-1.316601
22
-1.050000
32
1.611550
11
-1.468477
21
-0.543520
31
1.791682
10
-1.038370
20
-0.543520
30
2.183117
0
3DFACE
8
0
70
0
13
-0.481909
23
-1.050000
33
2.183117
12
-0.930977
22
-1.050000
32
1.962500
11
-1.038370
21
-0.543520
31
2.183117
10
-0.537500
20
-0.543520
30
2.429182
0
3DFACE
8
0
70
0
13
0.000000
23
-1.050000
33
2.258365
12
-0.481909
22
-1.050000
32
2.183117
11
-0.537500
21
-0.543520
31
2.429182
10
0.000000
20
-0.543520
30
2.513111
0
3DFACE
8
0
70
0
13
0.000000
23
-1.050000
33
2.258365
12
0.000000
22
-0.543520
32
2.513111
11
0.537500
21
-0.543520
31
2.429182
10
0.481909
20
-1.050000
30
2.183117
0
3DFACE
8
0
70
0
13
0.481909
23
-1.050000
33
2.183117
12
0.537500
22
-0.543520
32
2.429182
11
1.038370
21
-0.543520
31
2.183117
10
0.930977
20
-1.050000
30
1.962500
0
3DFACE
8
0
70
0
13
0.930977
23
-1.050000
33
1.962500
12
1.038370
22
-0.543520
32
2.183117
11
1.468477
21
-0.543520
31
1.791682
10
1.316601
20
-1.050000
30
1.611550
0
3DFACE
8
0
70
0
13
1.316601
23
-1.050000
33
1.611550
12
1.468477
22
-0.543520
32
1.791682
11
1.798510
21
-0.543520
31
1.281555
10
1.612500
20
-1.050000
30
1.154182
0
3DFACE
8
0
70
0
13
1.612500
23
-1.050000
33
1.154182
12
1.798510
22
-0.543520
32
1.281555
11
2.005977
21
-0.543520
31
0.687500
10
1.798510
20
-1.050000
30
0.621567
0
3DFACE
8
0
70
0
13
1.798510
23
-1.050000
33
0.621567
12
2.005977
22
-0.543520
32
0.687500
11
2.076741
21
-0.543520
31
0.050000
10
1.861955
20
-1.050000
30
0.050000
0
3DFACE
8
0
70
0
13
2.076741
23
-0.543520
33
0.050000
12
2.150000
22
0.000000
32
0.050000
11
2.076741
21
0.000000
31
-0.609989
10
2.005977
20
-0.543520
30
-0.587500
0
3DFACE
8
0
70
0
13
2.005977
23
-0.543520
33
-0.587500
12
2.076741
22
0.000000
32
-0.609989
11
1.861955
21
0.000000
31
-1.225000
10
1.798510
20
-0.543520
30
-1.181555
0
3DFACE
8
0
70
0
13
1.798510
23
-0.543520
33
-1.181555
12
1.861955
22
0.000000
32
-1.225000
11
1.520280
21
0.000000
31
-1.753122
10
1.468477
20
-0.543520
30
-1.691682
0
3DFACE
8
0
70
0
13
1.468477
23
-0.543520
33
-1.691682
12
1.520280
22
0.000000
32
-1.753122
11
1.075000
21
0.000000
31
-2.158365
10
1.038370
20
-0.543520
30
-2.083117
0
3DFACE
8
0
70
0
13
1.038370
23
-0.543520
33
-2.083117
12
1.075000
22
0.000000
32
-2.158365
11
0.556461
21
0.000000
31
-2.413111
10
0.537500
20
-0.543520
30
-2.329182
0
3DFACE
8
0
70
0
13
0.537500
23
-0.543520
33
-2.329182
12
0.556461
22
0.000000
32
-2.413111
11
0.000000
21
0.000000
31
-2.500000
10
0.000000
20
-0.543520
30
-2.413111
0
3DFACE
8
0
70
0
13
-0.537500
23
-0.543520
33
-2.329182
12
0.000000
22
-0.543520
32
-2.413111
11
0.000000
21
0.000000
31
-2.500000
10
-0.556461
20
0.000000
30
-2.413111
0
3DFACE
8
0
70
0
13
-1.038370
23
-0.543520
33
-2.083117
12
-0.537500
22
-0.543520
32
-2.329182
11
-0.556461
21
0.000000
31
-2.413111
10
-1.075000
20
0.000000
30
-2.158365
0
3DFACE
8
0
70
0
13
-1.468477
23
-0.543520
33
-1.691682
12
-1.038370
22
-0.543520
32
-2.083117
11
-1.075000
21
0.000000
31
-2.158365
10
-1.520280
20
0.000000
30
-1.753122
0
3DFACE
8
0
70
0
13
-1.798510
23
-0.543520
33
-1.181555
12
-1.468477
22
-0.543520
32
-1.691682
11
-1.520280
21
0.000000
31
-1.753122
10
-1.861955
20
0.000000
30
-1.225000
0
3DFACE
8
0
70
0
13
-2.005977
23
-0.543520
33
-0.587500
12
-1.798510
22
-0.543520
32
-1.181555
11
-1.861955
21
0.000000
31
-1.225000
10
-2.076741
20
0.000000
30
-0.609989
0
3DFACE
8
0
70
0
13
-2.076741
23
-0.543520
33
0.050000
12
-2.005977
22
-0.543520
32
-0.587500
11
-2.076741
21
0.000000
31
-0.609989
10
-2.150000
20
0.000000
30
0.050000
0
3DFACE
8
0
70
0
13
-2.005977
23
-0.543520
33
0.687500
12
-2.076741
22
-0.543520
32
0.050000
11
-2.150000
21
0.000000
31
0.050000
10
-2.076741
20
0.000000
30
0.709989
0
3DFACE
8
0
70
0
13
-1.798510
23
-0.543520
33
1.281555
12
-2.005977
22
-0.543520
32
0.687500
11
-2.076741
21
0.000000
31
0.709989
10
-1.861955
20
0.000000
30
1.325000
0
3DFACE
8
0
70
0
13
-1.468477
23
-0.543520
33
1.791682
12
-1.798510
22
-0.543520
32
1.281555
11
-1.861955
21
0.000000
31
1.325000
10
-1.520280
20
0.000000
30
1.853122
0
3DFACE
8
0
70
0
13
-1.038370
23
-0.543520
33
2.183117
12
-1.468477
22
-0.543520
32
1.791682
11
-1.520280
21
0.000000
31
1.853122
10
-1.075000
20
0.000000
30
2.258365
0
3DFACE
8
0
70
0
13
-0.537500
23
-0.543520
33
2.429182
12
-1.038370
22
-0.543520
32
2.183117
11
-1.075000
21
0.000000
31
2.258365
10
-0.556461
20
0.000000
30
2.513111
0
3DFACE
8
0
70
0
13
0.000000
23
-0.543520
33
2.513111
12
-0.537500
22
-0.543520
32
2.429182
11
-0.556461
21
0.000000
31
2.513111
10
0.000000
20
0.000000
30
2.600000
0
3DFACE
8
0
70
0
13
0.000000
23
-0.543520
33
2.513111
12
0.000000
22
0.000000
32
2.600000
11
0.556461
21
0.000000
31
2.513111
10
0.537500
20
-0.543520
30
2.429182
0
3DFACE
8
0
70
0
13
0.537500
23
-0.543520
33
2.429182
12
0.556461
22
0.000000
32
2.513111
11
1.075000
21
0.000000
31
2.258365
10
1.038370
20
-0.543520
30
2.183117
0
3DFACE
8
0
70
0
13
1.038370
23
-0.543520
33
2.183117
12
1.075000
22
0.000000
32
2.258365
11
1.520280
21
0.000000
31
1.853122
10
1.468477
20
-0.543520
30
1.791682
0
3DFACE
8
0
70
0
13
1.468477
23
-0.543520
33
1.791682
12
1.520280
22
0.000000
32
1.853122
11
1.861955
21
0.000000
31
1.325000
10
1.798510
20
-0.543520
30
1.281555
0
3DFACE
8
0
70
0
13
1.798510
23
-0.543520
33
1.281555
12
1.861955
22
0.000000
32
1.325000
11
2.076741
21
0.000000
31
0.709989
10
2.005977
20
-0.543520
30
0.687500
0
3DFACE
8
0
70
0
13
2.005977
23
-0.543520
33
0.687500
12
2.076741
22
0.000000
32
0.709989
11
2.150000
21
0.000000
31
0.050000
10
2.076741
20
-0.543520
30
0.050000
0
3DFACE
8
0
70
0
13
2.150000
23
0.000000
33
0.050000
12
2.076741
22
0.543520
32
0.050000
11
2.005977
21
0.543520
31
-0.587500
10
2.076741
20
0.000000
30
-0.609989
0
3DFACE
8
0
70
0
13
2.076741
23
0.000000
33
-0.609989
12
2.005977
22
0.543520
32
-0.587500
11
1.798510
21
0.543520
31
-1.181555
10
1.861955
20
0.000000
30
-1.225000
0
3DFACE
8
0
70
0
13
1.861955
23
0.000000
33
-1.225000
12
1.798510
22
0.543520
32
-1.181555
11
1.468477
21
0.543520
31
-1.691682
10
1.520280
20
0.000000
30
-1.753122
0
3DFACE
8
0
70
0
13
1.520280
23
0.000000
33
-1.753122
12
1.468477
22
0.543520
32
-1.691682
11
1.038370
21
0.543520
31
-2.083117
10
1.075000
20
0.000000
30
-2.158365
0
3DFACE
8
0
70
0
13
1.075000
23
0.000000
33
-2.158365
12
1.038370
22
0.543520
32
-2.083117
11
0.537500
21
0.543520
31
-2.329182
10
0.556461
20
0.000000
30
-2.413111
0
3DFACE
8
0
70
0
13
0.556461
23
0.000000
33
-2.413111
12
0.537500
22
0.543520
32
-2.329182
11
0.000000
21
0.543520
31
-2.413111
10
0.000000
20
0.000000
30
-2.500000
0
3DFACE
8
0
70
0
13
-0.556461
23
0.000000
33
-2.413111
12
0.000000
22
0.000000
32
-2.500000
11
0.000000
21
0.543520
31
-2.413111
10
-0.537500
20
0.543520
30
-2.329182
0
3DFACE
8
0
70
0
13
-1.075000
23
0.000000
33
-2.158365
12
-0.556461
22
0.000000
32
-2.413111
11
-0.537500
21
0.543520
31
-2.329182
10
-1.038370
20
0.543520
30
-2.083117
0
3DFACE
8
0
70
0
13
-1.520280
23
0.000000
33
-1.753122
12
-1.075000
22
0.000000
32
-2.158365
11
-1.038370
21
0.543520
31
-2.083117
10
-1.468477
20
0.543520
30
-1.691682
0
3DFACE
8
0
70
0
13
-1.861955
23
0.000000
33
-1.225000
12
-1.520280
22
0.000000
32
-1.753122
11
-1.468477
21
0.543520
31
-1.691682
10
-1.798510
20
0.543520
30
-1.181555
0
3DFACE
8
0
70
0
13
-2.076741
23
0.000000
33
-0.609989
12
-1.861955
22
0.000000
32
-1.225000
11
-1.798510
21
0.543520
31
-1.181555
10
-2.005977
20
0.543520
30
-0.587500
0
3DFACE
8
0
70
0
13
-2.150000
23
0.000000
33
0.050000
12
-2.076741
22
0.000000
32
-0.609989
11
-2.005977
21
0.543520
31
-0.587500
10
-2.076741
20
0.543520
30
0.050000
0
3DFACE
8
0
70
0
13
-2.076741
23
0.000000
33
0.709989
12
-2.150000
22
0.000000
32
0.050000
11
-2.076741
21
0.543520
31
0.050000
10
-2.005977
20
0.543520
30
0.687500
0
3DFACE
8
0
70
0
13
-1.861955
23
0.000000
33
1.325000
12
-2.076741
22
0.000000
32
0.709989
11
-2.005977
21
0.543520
31
0.687500
10
-1.798510
20
0.543520
30
1.281555
0
3DFACE
8
0
70
0
13
-1.520280
23
0.000000
33
1.853122
12
-1.861955
22
0.000000
32
1.325000
11
-1.798510
21
0.543520
31
1.281555
10
-1.468477
20
0.543520
30
1.791682
0
3DFACE
8
0
70
0
13
-1.075000
23
0.000000
33
2.258365
12
-1.520280
22
0.000000
32
1.853122
11
-1.468477
21
0.543520
31
1.791682
10
-1.038370
20
0.543520
30
2.183117
0
3DFACE
8
0
70
0
13
-0.556461
23
0.000000
33
2.513111
12
-1.075000
22
0.000000
32
2.258365
11
-1.038370
21
0.543520
31
2.183117
10
-0.537500
20
0.543520
30
2.429183
0
3DFACE
8
0
70
0
13
0.000000
23
0.000000
33
2.600000
12
-0.556461
22
0.000000
32
2.513111
11
-0.537500
21
0.543520
31
2.429183
10
0.000000
20
0.543520
30
2.513111
0
3DFACE
8
0
70
0
13
0.000000
23
0.000000
33
2.600000
12
0.000000
22
0.543520
32
2.513111
11
0.537500
21
0.543520
31
2.429183
10
0.556461
20
0.000000
30
2.513111
0
3DFACE
8
0
70
0
13
0.556461
23
0.000000
33
2.513111
12
0.537500
22
0.543520
32
2.429183
11
1.038370
21
0.543520
31
2.183117
10
1.075000
20
0.000000
30
2.258365
0
3DFACE
8
0
70
0
13
1.075000
23
0.000000
33
2.258365
12
1.038370
22
0.543520
32
2.183117
11
1.468477
21
0.543520
31
1.791682
10
1.520280
20
0.000000
30
1.853122
0
3DFACE
8
0
70
0
13
1.520280
23
0.000000
33
1.853122
12
1.468477
22
0.543520
32
1.791682
11
1.798510
21
0.543520
31
1.281555
10
1.861955
20
0.000000
30
1.325000
0
3DFACE
8
0
70
0
13
1.861955
23
0.000000
33
1.325000
12
1.798510
22
0.543520
32
1.281555
11
2.005977
21
0.543520
31
0.687500
10
2.076741
20
0.000000
30
0.709989
0
3DFACE
8
0
70
0
13
2.076741
23
0.000000
33
0.709989
12
2.005977
22
0.543520
32
0.687500
11
2.076741
21
0.543520
31
0.050000
10
2.150000
20
0.000000
30
0.050000
0
3DFACE
8
0
70
0
13
2.076741
23
0.543520
33
0.050000
12
1.861955
22
1.050000
32
0.050000
11
1.798510
21
1.050000
31
-0.521567
10
2.005977
20
0.543520
30
-0.587500
0
3DFACE
8
0
70
0
13
2.005977
23
0.543520
33
-0.587500
12
1.798510
22
1.050000
32
-0.521567
11
1.612500
21
1.050000
31
-1.054182
10
1.798510
20
0.543520
30
-1.181555
0
3DFACE
8
0
70
0
13
1.798510
23
0.543520
33
-1.181555
12
1.612500
22
1.050000
32
-1.054182
11
1.316601
21
1.050000
31
-1.511550
10
1.468477
20
0.543520
30
-1.691682
0
3DFACE
8
0
70
0
13
1.468477
23
0.543520
33
-1.691682
12
1.316601
22
1.050000
32
-1.511550
11
0.930977
21
1.050000
31
-1.862500
10
1.038370
20
0.543520
30
-2.083117
0
3DFACE
8
0
70
0
13
1.038370
23
0.543520
33
-2.083117
12
0.930977
22
1.050000
32
-1.862500
11
0.481909
21
1.050000
31
-2.083117
10
0.537500
20
0.543520
30
-2.329182
0
3DFACE
8
0
70
0
13
0.537500
23
0.543520
33
-2.329182
12
0.481909
22
1.050000
32
-2.083117
11
0.000000
21
1.050000
31
-2.158365
10
0.000000
20
0.543520
30
-2.413111
0
3DFACE
8
0
70
0
13
-0.537500
23
0.543520
33
-2.329182
12
0.000000
22
0.543520
32
-2.413111
11
0.000000
21
1.050000
31
-2.158365
10
-0.481909
20
1.050000
30
-2.083117
0
3DFACE
8
0
70
0
13
-1.038370
23
0.543520
33
-2.083117
12
-0.537500
22
0.543520
32
-2.329182
11
-0.481909
21
1.050000
31
-2.083117
10
-0.930977
20
1.050000
30
-1.862500
0
3DFACE
8
0
70
0
13
-1.468477
23
0.543520
33
-1.691682
12
-1.038370
22
0.543520
32
-2.083117
11
-0.930977
21
1.050000
31
-1.862500
10
-1.316601
20
1.050000
30
-1.511550
0
3DFACE
8
0
70
0
13
-1.798510
23
0.543520
33
-1.181555
12
-1.468477
22
0.543520
32
-1.691682
11
-1.316601
21
1.050000
31
-1.511550
10
-1.612500
20
1.050000
30
-1.054182
0
3DFACE
8
0
70
0
13
-2.005977
23
0.543520
33
-0.587500
12
-1.798510
22
0.543520
32
-1.181555
11
-1.612500
21
1.050000
31
-1.054182
10
-1.798510
20
1.050000
30
-0.521567
0
3DFACE
8
0
70
0
13
-2.076741
23
0.543520
33
0.050000
12
-2.005977
22
0.543520
32
-0.587500
11
-1.798510
21
1.050000
31
-0.521567
10
-1.861955
20
1.050000
30
0.050000
0
3DFACE
8
0
70
0
13
-2.005977
23
0.543520
33
0.687500
12
-2.076741
22
0.543520
32
0.050000
11
-1.861955
21
1.050000
31
0.050000
10
-1.798510
20
1.050000
30
0.621567
0
3DFACE
8
0
70
0
13
-1.798510
23
0.543520
33
1.281555
12
-2.005977
22
0.543520
32
0.687500
11
-1.798510
21
1.050000
31
0.621567
10
-1.612500
20
1.050000
30
1.154182
0
3DFACE
8
0
70
0
13
-1.468477
23
0.543520
33
1.791682
12
-1.798510
22
0.543520
32
1.281555
11
-1.612500
21
1.050000
31
1.154182
10
-1.316601
20
1.050000
30
1.611550
0
3DFACE
8
0
70
0
13
-1.038370
23
0.543520
33
2.183117
12
-1.468477
22
0.543520
32
1.791682
11
-1.316601
21
1.050000
31
1.611550
10
-0.930977
20
1.050000
30
1.962500
0
3DFACE
8
0
70
0
13
-0.537500
23
0.543520
33
2.429183
12
-1.038370
22
0.543520
32
2.183117
11
-0.930977
21
1.050000
31
1.962500
10
-0.481909
20
1.050000
30
2.183116
0
3DFACE
8
0
70
0
13
0.000000
23
0.543520
33
2.513111
12
-0.537500
22
0.543520
32
2.429183
11
-0.481909
21
1.050000
31
2.183116
10
0.000000
20
1.050000
30
2.258365
0
3DFACE
8
0
70
0
13
0.000000
23
0.543520
33
2.513111
12
0.000000
22
1.050000
32
2.258365
11
0.481909
21
1.050000
31
2.183116
10
0.537500
20
0.543520
30
2.429183
0
3DFACE
8
0
70
0
13
0.537500
23
0.543520
33
2.429183
12
0.481909
22
1.050000
32
2.183116
11
0.930977
21
1.050000
31
1.962500
10
1.038370
20
0.543520
30
2.183117
0
3DFACE
8
0
70
0
13
1.038370
23
0.543520
33
2.183117
12
0.930977
22
1.050000
32
1.962500
11
1.316601
21
1.050000
31
1.611550
10
1.468477
20
0.543520
30
1.791682
0
3DFACE
8
0
70
0
13
1.468477
23
0.543520
33
1.791682
12
1.316601
22
1.050000
32
1.611550
11
1.612500
21
1.050000
31
1.154182
10
1.798510
20
0.543520
30
1.281555
0
3DFACE
8
0
70
0
13
1.798510
23
0.543520
33
1.281555
12
1.612500
22
1.050000
32
1.154182
11
1.798510
21
1.050000
31
0.621567
10
2.005977
20
0.543520
30
0.687500
0
3DFACE
8
0
70
0
13
2.005977
23
0.543520
33
0.687500
12
1.798510
22
1.050000
32
0.621567
11
1.861955
21
1.050000
31
0.050000
10
2.076741
20
0.543520
30
0.050000
0
3DFACE
8
0
70
0
13
1.861955
23
1.050000
33
0.050000
12
1.520280
22
1.484924
32
0.050000
11
1.468477
21
1.484924
31
-0.416682
10
1.798510
20
1.050000
30
-0.521567
0
3DFACE
8
0
70
0
13
1.798510
23
1.050000
33
-0.521567
12
1.468477
22
1.484924
32
-0.416682
11
1.316601
21
1.484924
31
-0.851561
10
1.612500
20
1.050000
30
-1.054182
0
3DFACE
8
0
70
0
13
1.612500
23
1.050000
33
-1.054182
12
1.316601
22
1.484924
32
-0.851561
11
1.075000
21
1.484924
31
-1.225000
10
1.316601
20
1.050000
30
-1.511550
0
3DFACE
8
0
70
0
13
1.316601
23
1.050000
33
-1.511550
12
1.075000
22
1.484924
32
-1.225000
11
0.760140
21
1.484924
31
-1.511550
10
0.930977
20
1.050000
30
-1.862500
0
3DFACE
8
0
70
0
13
0.930977
23
1.050000
33
-1.862500
12
0.760140
22
1.484924
32
-1.511550
11
0.393477
21
1.484924
31
-1.691682
10
0.481909
20
1.050000
30
-2.083117
0
3DFACE
8
0
70
0
13
0.481909
23
1.050000
33
-2.083117
12
0.393477
22
1.484924
32
-1.691682
11
0.000000
21
1.484924
31
-1.753122
10
0.000000
20
1.050000
30
-2.158365
0
3DFACE
8
0
70
0
13
-0.481909
23
1.050000
33
-2.083117
12
0.000000
22
1.050000
32
-2.158365
11
0.000000
21
1.484924
31
-1.753122
10
-0.393477
20
1.484924
30
-1.691682
0
3DFACE
8
0
70
0
13
-0.930977
23
1.050000
33
-1.862500
12
-0.481909
22
1.050000
32
-2.083117
11
-0.393477
21
1.484924
31
-1.691682
10
-0.760140
20
1.484924
30
-1.511550
0
3DFACE
8
0
70
0
13
-1.316601
23
1.050000
33
-1.511550
12
-0.930977
22
1.050000
32
-1.862500
11
-0.760140
21
1.484924
31
-1.511550
10
-1.075000
20
1.484924
30
-1.225000
0
3DFACE
8
0
70
0
13
-1.612500
23
1.050000
33
-1.054182
12
-1.316601
22
1.050000
32
-1.511550
11
-1.075000
21
1.484924
31
-1.225000
10
-1.316601
20
1.484924
30
-0.851561
0
3DFACE
8
0
70
0
13
-1.798510
23
1.050000
33
-0.521567
12
-1.612500
22
1.050000
32
-1.054182
11
-1.316601
21
1.484924
31
-0.851561
10
-1.468477
20
1.484924
30
-0.416682
0
3DFACE
8
0
70
0
13
-1.861955
23
1.050000
33
0.050000
12
-1.798510
22
1.050000
32
-0.521567
11
-1.468477
21
1.484924
31
-0.416682
10
-1.520280
20
1.484924
30
0.050000
0
3DFACE
8
0
70
0
13
-1.798510
23
1.050000
33
0.621567
12
-1.861955
22
1.050000
32
0.050000
11
-1.520280
21
1.484924
31
0.050000
10
-1.468477
20
1.484924
30
0.516682
0
3DFACE
8
0
70
0
13
-1.612500
23
1.050000
33
1.154182
12
-1.798510
22
1.050000
32
0.621567
11
-1.468477
21
1.484924
31
0.516682
10
-1.316601
20
1.484924
30
0.951561
0
3DFACE
8
0
70
0
13
-1.316601
23
1.050000
33
1.611550
12
-1.612500
22
1.050000
32
1.154182
11
-1.316601
21
1.484924
31
0.951561
10
-1.075000
20
1.484924
30
1.325000
0
3DFACE
8
0
70
0
13
-0.930977
23
1.050000
33
1.962500
12
-1.316601
22
1.050000
32
1.611550
11
-1.075000
21
1.484924
31
1.325000
10
-0.760140
20
1.484924
30
1.611550
0
3DFACE
8
0
70
0
13
-0.481909
23
1.050000
33
2.183116
12
-0.930977
22
1.050000
32
1.962500
11
-0.760140
21
1.484924
31
1.611550
10
-0.393477
20
1.484924
30
1.791682
0
3DFACE
8
0
70
0
13
0.000000
23
1.050000
33
2.258365
12
-0.481909
22
1.050000
32
2.183116
11
-0.393477
21
1.484924
31
1.791682
10
0.000000
20
1.484924
30
1.853122
0
3DFACE
8
0
70
0
13
0.000000
23
1.050000
33
2.258365
12
0.000000
22
1.484924
32
1.853122
11
0.393477
21
1.484924
31
1.791682
10
0.481909
20
1.050000
30
2.183116
0
3DFACE
8
0
70
0
13
0.481909
23
1.050000
33
2.183116
12
0.393477
22
1.484924
32
1.791682
11
0.760140
21
1.484924
31
1.611550
10
0.930977
20
1.050000
30
1.962500
0
3DFACE
8
0
70
0
13
0.930977
23
1.050000
33
1.962500
12
0.760140
22
1.484924
32
1.611550
11
1.075000
21
1.484924
31
1.325000
10
1.316601
20
1.050000
30
1.611550
0
3DFACE
8
0
70
0
13
1.316601
23
1.050000
33
1.611550
12
1.075000
22
1.484924
32
1.325000
11
1.316601
21
1.484924
31
0.951561
10
1.612500
20
1.050000
30
1.154182
0
3DFACE
8
0
70
0
13
1.612500
23
1.050000
33
1.154182
12
1.316601
22
1.484924
32
0.951561
11
1.468477
21
1.484924
31
0.516682
10
1.798510
20
1.050000
30
0.621567
0
3DFACE
8
0
70
0
13
1.798510
23
1.050000
33
0.621567
12
1.468477
22
1.484924
32
0.516682
11
1.520280
21
1.484924
31
0.050000
10
1.861955
20
1.050000
30
0.050000
0
3DFACE
8
0
70
0
13
1.520280
23
1.484924
33
0.050000
12
1.075000
22
1.818653
32
0.050000
11
1.038370
21
1.818653
31
-0.279994
10
1.468477
20
1.484924
30
-0.416682
0
3DFACE
8
0
70
0
13
1.468477
23
1.484924
33
-0.416682
12
1.038370
22
1.818653
32
-0.279994
11
0.930977
21
1.818653
31
-0.587500
10
1.316601
20
1.484924
30
-0.851561
0
3DFACE
8
0
70
0
13
1.316601
23
1.484924
33
-0.851561
12
0.930977
22
1.818653
32
-0.587500
11
0.760140
21
1.818653
31
-0.851561
10
1.075000
20
1.484924
30
-1.225000
0
3DFACE
8
0
70
0
13
1.075000
23
1.484924
33
-1.225000
12
0.760140
22
1.818653
32
-0.851561
11
0.537500
21
1.818653
31
-1.054183
10
0.760140
20
1.484924
30
-1.511550
0
3DFACE
8
0
70
0
13
0.760140
23
1.484924
33
-1.511550
12
0.537500
22
1.818653
32
-1.054183
11
0.278231
21
1.818653
31
-1.181556
10
0.393477
20
1.484924
30
-1.691682
0
3DFACE
8
0
70
0
13
0.393477
23
1.484924
33
-1.691682
12
0.278231
22
1.818653
32
-1.181556
11
0.000000
21
1.818653
31
-1.225000
10
0.000000
20
1.484924
30
-1.753122
0
3DFACE
8
0
70
0
13
-0.393477
23
1.484924
33
-1.691682
12
0.000000
22
1.484924
32
-1.753122
11
0.000000
21
1.818653
31
-1.225000
10
-0.278231
20
1.818653
30
-1.181556
0
3DFACE
8
0
70
0
13
-0.760140
23
1.484924
33
-1.511550
12
-0.393477
22
1.484924
32
-1.691682
11
-0.278231
21
1.818653
31
-1.181556
10
-0.537500
20
1.818653
30
-1.054183
0
3DFACE
8
0
70
0
13
-1.075000
23
1.484924
33
-1.225000
12
-0.760140
22
1.484924
32
-1.511550
11
-0.537500
21
1.818653
31
-1.054183
10
-0.760140
20
1.818653
30
-0.851561
0
3DFACE
8
0
70
0
13
-1.316601
23
1.484924
33
-0.851561
12
-1.075000
22
1.484924
32
-1.225000
11
-0.760140
21
1.818653
31
-0.851561
10
-0.930977
20
1.818653
30
-0.587500
0
3DFACE
8
0
70
0
13
-1.468477
23
1.484924
33
-0.416682
12
-1.316601
22
1.484924
32
-0.851561
11
-0.930977
21
1.818653
31
-0.587500
10
-1.038370
20
1.818653
30
-0.279994
0
3DFACE
8
0
70
0
13
-1.520280
23
1.484924
33
0.050000
12
-1.468477
22
1.484924
32
-0.416682
11
-1.038370
21
1.818653
31
-0.279994
10
-1.075000
20
1.818653
30
0.050000
0
3DFACE
8
0
70
0
13
-1.468477
23
1.484924
33
0.516682
12
-1.520280
22
1.484924
32
0.050000
11
-1.075000
21
1.818653
31
0.050000
10
-1.038370
20
1.818653
30
0.379994
0
3DFACE
8
0
70
0
13
-1.316601
23
1.484924
33
0.951561
12
-1.468477
22
1.484924
32
0.516682
11
-1.038370
21
1.818653
31
0.379994
10
-0.930977
20
1.818653
30
0.687500
0
3DFACE
8
0
70
0
13
-1.075000
23
1.484924
33
1.325000
12
-1.316601
22
1.484924
32
0.951561
11
-0.930977
21
1.818653
31
0.687500
10
-0.760140
20
1.818653
30
0.951561
0
3DFACE
8
0
70
0
13
-0.760140
23
1.484924
33
1.611550
12
-1.075000
22
1.484924
32
1.325000
11
-0.760140
21
1.818653
31
0.951561
10
-0.537500
20
1.818653
30
1.154183
0
3DFACE
8
0
70
0
13
-0.393477
23
1.484924
33
1.791682
12
-0.760140
22
1.484924
32
1.611550
11
-0.537500
21
1.818653
31
1.154183
10
-0.278231
20
1.818653
30
1.281556
0
3DFACE
8
0
70
0
13
0.000000
23
1.484924
33
1.853122
12
-0.393477
22
1.484924
32
1.791682
11
-0.278231
21
1.818653
31
1.281556
10
0.000000
20
1.818653
30
1.325000
0
3DFACE
8
0
70
0
13
0.000000
23
1.484924
33
1.853122
12
0.000000
22
1.818653
32
1.325000
11
0.278231
21
1.818653
31
1.281556
10
0.393477
20
1.484924
30
1.791682
0
3DFACE
8
0
70
0
13
0.393477
23
1.484924
33
1.791682
12
0.278231
22
1.818653
32
1.281556
11
0.537500
21
1.818653
31
1.154183
10
0.760140
20
1.484924
30
1.611550
0
3DFACE
8
0
70
0
13
0.760140
23
1.484924
33
1.611550
12
0.537500
22
1.818653
32
1.154183
11
0.760140
21
1.818653
31
0.951561
10
1.075000
20
1.484924
30
1.325000
0
3DFACE
8
0
70
0
13
1.075000
23
1.484924
33
1.325000
12
0.760140
22
1.818653
32
0.951561
11
0.930977
21
1.818653
31
0.687500
10
1.316601
20
1.484924
30
0.951561
0
3DFACE
8
0
70
0
13
1.316601
23
1.484924
33
0.951561
12
0.930977
22
1.818653
32
0.687500
11
1.038370
21
1.818653
31
0.379994
10
1.468477
20
1.484924
30
0.516682
0
3DFACE
8
0
70
0
13
1.468477
23
1.484924
33
0.516682
12
1.038370
22
1.818653
32
0.379994
11
1.075000
21
1.818653
31
0.050000
10
1.520280
20
1.484924
30
0.050000
0
3DFACE
8
0
70
0
13
1.075000
23
1.818653
33
0.050000
12
0.556461
22
2.028444
32
0.050000
11
0.537500
21
2.028444
31
-0.120818
10
1.038370
20
1.818653
30
-0.279994
0
3DFACE
8
0
70
0
13
1.038370
23
1.818653
33
-0.279994
12
0.537500
22
2.028444
32
-0.120818
11
0.481909
21
2.028444
31
-0.279994
10
0.930977
20
1.818653
30
-0.587500
0
3DFACE
8
0
70
0
13
0.930977
23
1.818653
33
-0.587500
12
0.481909
22
2.028444
32
-0.279994
11
0.393477
21
2.028444
31
-0.416682
10
0.760140
20
1.818653
30
-0.851561
0
3DFACE
8
0
70
0
13
0.760140
23
1.818653
33
-0.851561
12
0.393477
22
2.028444
32
-0.416682
11
0.278230
21
2.028444
31
-0.521567
10
0.537500
20
1.818653
30
-1.054183
0
3DFACE
8
0
70
0
13
0.537500
23
1.818653
33
-1.054183
12
0.278230
22
2.028444
32
-0.521567
11
0.144023
21
2.028444
31
-0.587500
10
0.278231
20
1.818653
30
-1.181556
0
3DFACE
8
0
70
0
13
0.278231
23
1.818653
33
-1.181556
12
0.144023
22
2.028444
32
-0.587500
11
0.000000
21
2.028444
31
-0.609988
10
0.000000
20
1.818653
30
-1.225000
0
3DFACE
8
0
70
0
13
-0.278231
23
1.818653
33
-1.181556
12
0.000000
22
1.818653
32
-1.225000
11
0.000000
21
2.028444
31
-0.609988
10
-0.144023
20
2.028444
30
-0.587500
0
3DFACE
8
0
70
0
13
-0.537500
23
1.818653
33
-1.054183
12
-0.278231
22
1.818653
32
-1.181556
11
-0.144023
21
2.028444
31
-0.587500
10
-0.278230
20
2.028444
30
-0.521567
0
3DFACE
8
0
70
0
13
-0.760140
23
1.818653
33
-0.851561
12
-0.537500
22
1.818653
32
-1.054183
11
-0.278230
21
2.028444
31
-0.521567
10
-0.393477
20
2.028444
30
-0.416682
0
3DFACE
8
0
70
0
13
-0.930977
23
1.818653
33
-0.587500
12
-0.760140
22
1.818653
32
-0.851561
11
-0.393477
21
2.028444
31
-0.416682
10
-0.481909
20
2.028444
30
-0.279994
0
3DFACE
8
0
70
0
13
-1.038370
23
1.818653
33
-0.279994
12
-0.930977
22
1.818653
32
-0.587500
11
-0.481909
21
2.028444
31
-0.279994
10
-0.537500
20
2.028444
30
-0.120818
0
3DFACE
8
0
70
0
13
-1.075000
23
1.818653
33
0.050000
12
-1.038370
22
1.818653
32
-0.279994
11
-0.537500
21
2.028444
31
-0.120818
10
-0.556461
20
2.028444
30
0.050000
0
3DFACE
8
0
70
0
13
-1.038370
23
1.818653
33
0.379994
12
-1.075000
22
1.818653
32
0.050000
11
-0.556461
21
2.028444
31
0.050000
10
-0.537500
20
2.028444
30
0.220818
0
3DFACE
8
0
70
0
13
-0.930977
23
1.818653
33
0.687500
12
-1.038370
22
1.818653
32
0.379994
11
-0.537500
21
2.028444
31
0.220818
10
-0.481909
20
2.028444
30
0.379994
0
3DFACE
8
0
70
0
13
-0.760140
23
1.818653
33
0.951561
12
-0.930977
22
1.818653
32
0.687500
11
-0.481909
21
2.028444
31
0.379994
10
-0.393477
20
2.028444
30
0.516682
0
3DFACE
8
0
70
0
13
-0.537500
23
1.818653
33
1.154183
12
-0.760140
22
1.818653
32
0.951561
11
-0.393477
21
2.028444
31
0.516682
10
-0.278230
20
2.028444
30
0.621567
0
3DFACE
8
0
70
0
13
-0.278231
23
1.818653
33
1.281556
12
-0.537500
22
1.818653
32
1.154183
11
-0.278230
21
2.028444
31
0.621567
10
-0.144023
20
2.028444
30
0.687500
0
3DFACE
8
0
70
0
13
0.000000
23
1.818653
33
1.325000
12
-0.278231
22
1.818653
32
1.281556
11
-0.144023
21
2.028444
31
0.687500
10
0.000000
20
2.028444
30
0.709988
0
3DFACE
8
0
70
0
13
0.000000
23
1.818653
33
1.325000
12
0.000000
22
2.028444
32
0.709988
11
0.144023
21
2.028444
31
0.687500
10
0.278231
20
1.818653
30
1.281556
0
3DFACE
8
0
70
0
13
0.278231
23
1.818653
33
1.281556
12
0.144023
22
2.028444
32
0.687500
11
0.278230
21
2.028444
31
0.621567
10
0.537500
20
1.818653
30
1.154183
0
3DFACE
8
0
70
0
13
0.537500
23
1.818653
33
1.154183
12
0.278230
22
2.028444
32
0.621567
11
0.393477
21
2.028444
31
0.516682
10
0.760140
20
1.818653
30
0.951561
0
3DFACE
8
0
70
0
13
0.760140
23
1.818653
33
0.951561
12
0.393477
22
2.028444
32
0.516682
11
0.481909
21
2.028444
31
0.379994
10
0.930977
20
1.818653
30
0.687500
0
3DFACE
8
0
70
0
13
0.930977
23
1.818653
33
0.687500
12
0.481909
22
2.028444
32
0.379994
11
0.537500
21
2.028444
31
0.220818
10
1.038370
20
1.818653
30
0.379994
0
3DFACE
8
0
70
0
13
1.038370
23
1.818653
33
0.379994
12
0.537500
22
2.028444
32
0.220818
11
0.556461
21
2.028444
31
0.050000
10
1.075000
20
1.818653
30
0.050000
0
3DFACE
8
0
70
0
13
0.556461
23
2.028444
33
0.050000
12
0.000000
22
2.100000
32
0.050000
11
0.537500
21
2.028444
31
-0.120818
10
0.537500
20
2.028444
30
-0.120818
0
3DFACE
8
0
70
0
13
0.537500
23
2.028444
33
-0.120818
12
0.000000
22
2.100000
32
0.050000
11
0.481909
21
2.028444
31
-0.279994
10
0.481909
20
2.028444
30
-0.279994
0
3DFACE
8
0
70
0
13
0.481909
23
2.028444
33
-0.279994
12
0.000000
22
2.100000
32
0.050000
11
0.393477
21
2.028444
31
-0.416682
10
0.393477
20
2.028444
30
-0.416682
0
3DFACE
8
0
70
0
13
0.393477
23
2.028444
33
-0.416682
12
0.000000
22
2.100000
32
0.050000
11
0.278230
21
2.028444
31
-0.521567
10
0.278230
20
2.028444
30
-0.521567
0
3DFACE
8
0
70
0
13
0.278230
23
2.028444
33
-0.521567
12
0.000000
22
2.100000
32
0.050000
11
0.144023
21
2.028444
31
-0.587500
10
0.144023
20
2.028444
30
-0.587500
0
3DFACE
8
0
70
0
13
0.144023
23
2.028444
33
-0.587500
12
0.000000
22
2.100000
32
0.050000
11
0.000000
21
2.028444
31
-0.609988
10
0.000000
20
2.028444
30
-0.609988
0
3DFACE
8
0
70
0
13
-0.144023
23
2.028444
33
-0.587500
12
0.000000
22
2.028444
32
-0.609988
11
0.000000
21
2.100000
31
0.050000
10
0.000000
20
2.100000
30
0.050000
0
3DFACE
8
0
70
0
13
-0.278230
23
2.028444
33
-0.521567
12
-0.144023
22
2.028444
32
-0.587500
11
0.000000
21
2.100000
31
0.050000
10
0.000000
20
2.100000
30
0.050000
0
3DFACE
8
0
70
0
13
-0.393477
23
2.028444
33
-0.416682
12
-0.278230
22
2.028444
32
-0.521567
11
0.000000
21
2.100000
31
0.050000
10
0.000000
20
2.100000
30
0.050000
0
3DFACE
8
0
70
0
13
-0.481909
23
2.028444
33
-0.279994
12
-0.393477
22
2.028444
32
-0.416682
11
0.000000
21
2.100000
31
0.050000
10
0.000000
20
2.100000
30
0.050000
0
3DFACE
8
0
70
0
13
-0.537500
23
2.028444
33
-0.120818
12
-0.481909
22
2.028444
32
-0.279994
11
0.000000
21
2.100000
31
0.050000
10
0.000000
20
2.100000
30
0.050000
0
3DFACE
8
0
70
0
13
-0.556461
23
2.028444
33
0.050000
12
-0.537500
22
2.028444
32
-0.120818
11
0.000000
21
2.100000
31
0.050000
10
0.000000
20
2.100000
30
0.050000
0
3DFACE
8
0
70
0
13
-0.537500
23
2.028444
33
0.220818
12
-0.556461
22
2.028444
32
0.050000
11
0.000000
21
2.100000
31
0.050000
10
0.000000
20
2.100000
30
0.050000
0
3DFACE
8
0
70
0
13
-0.481909
23
2.028444
33
0.379994
12
-0.537500
22
2.028444
32
0.220818
11
0.000000
21
2.100000
31
0.050000
10
0.000000
20
2.100000
30
0.050000
0
3DFACE
8
0
70
0
13
-0.393477
23
2.028444
33
0.516682
12
-0.481909
22
2.028444
32
0.379994
11
0.000000
21
2.100000
31
0.050000
10
0.000000
20
2.100000
30
0.050000
0
3DFACE
8
0
70
0
13
-0.278230
23
2.028444
33
0.621567
12
-0.393477
22
2.028444
32
0.516682
11
0.000000
21
2.100000
31
0.050000
10
0.000000
20
2.100000
30
0.050000
0
3DFACE
8
0
70
0
13
-0.144023
23
2.028444
33
0.687500
12
-0.278230
22
2.028444
32
0.621567
11
0.000000
21
2.100000
31
0.050000
10
0.000000
20
2.100000
30
0.050000
0
3DFACE
8
0
70
0
13
0.000000
23
2.028444
33
0.709988
12
-0.144023
22
2.028444
32
0.687500
11
0.000000
21
2.100000
31
0.050000
10
0.000000
20
2.100000
30
0.050000
0
3DFACE
8
0
70
0
13
0.000000
23
2.028444
33
0.709988
12
0.000000
22
2.100000
32
0.050000
11
0.144023
21
2.028444
31
0.687500
10
0.144023
20
2.028444
30
0.687500
0
3DFACE
8
0
70
0
13
0.144023
23
2.028444
33
0.687500
12
0.000000
22
2.100000
32
0.050000
11
0.278230
21
2.028444
31
0.621567
10
0.278230
20
2.028444
30
0.621567
0
3DFACE
8
0
70
0
13
0.278230
23
2.028444
33
0.621567
12
0.000000
22
2.100000
32
0.050000
11
0.393477
21
2.028444
31
0.516682
10
0.393477
20
2.028444
30
0.516682
0
3DFACE
8
0
70
0
13
0.393477
23
2.028444
33
0.516682
12
0.000000
22
2.100000
32
0.050000
11
0.481909
21
2.028444
31
0.379994
10
0.481909
20
2.028444
30
0.379994
0
3DFACE
8
0
70
0
13
0.481909
23
2.028444
33
0.379994
12
0.000000
22
2.100000
32
0.050000
11
0.537500
21
2.028444
31
0.220818
10
0.537500
20
2.028444
30
0.220818
0
3DFACE
8
0
70
0
13
0.537500
23
2.028444
33
0.220818
12
0.000000
22
2.100000
32
0.050000
11
0.556461
21
2.028444
31
0.050000
10
0.556461
20
2.028444
30
0.050000
0
ENDSEC
0
EOF
