{
  "asset": {
    "version": "2.0"
  },
  "scene": 0,
  "scenes": [
    {
      "nodes": [
        1
      ]
    }
  ],
  "nodes": [
    {
      "name": "joint0"
    },
    {
      "mesh": 0,
      "skin": 0,
      "children": [
        0
      ]
    }
  ],
  "skins": [
    {
      "joints": [
        0
      ],
      "inverseBindMatrices": 3
    }
  ],
  "meshes": [
    {
      "primitives": [
        {
          "attributes": {
            "POSITION": 0,
            "JOINTS_0": 1,
            "WEIGHTS_0": 2
          },
          "mode": 4
        }
      ]
    }
  ],
  "buffers": [
    {
      "uri": "data:application/octet-stream;base64,",
      "byteLength": 136
    }
  ],
  "bufferViews": [
    {
      "buffer": 0,
      "byteOffset": 0,
      "byteLength": 36
    },
    {
      "buffer": 0,
      "byteOffset": 36,
      "byteLength": 12
    },
    {
      "buffer": 0,
      "byteOffset": 48,
      "byteLength": 24
    },
    {
      "buffer": 0,
      "byteOffset": 72,
      "byteLength": 64
    }
  ],
  "accessors": [
    {
      "bufferView": 0,
      "componentType": 5126,
      "count": 3,
      "type": "VEC3",
      "max": [
        1.0,
        1.0,
        0.0
      ],
      "min": [
        0.0,
        0.0,
        0.0
      ]
    },
    {
      "bufferView": 1,
      "componentType": 5121,
      "count": 3,
      "type": "VEC4"
    },
    {
      "bufferView": 2,
      "componentType": 5123,
      "normalized": true,
      "count": 3,
      "type": "VEC4"
    },
    {
      "bufferView": 3,
      "componentType": 5126,
      "count": 1,
      "type": "MAT4"
    }
  ]
}
